<svg xmlns="http://www.w3.org/2000/svg" width="216.606" height="312.937" viewBox="0 0 216.606 312.937">
  <g id="svg" transform="translate(0)">
    <g id="shape-3" transform="translate(0 0)">
      <g id="Group_5" data-name="Group 5">
        <path id="PATH_3_0" d="M137.646,5.032,88.085,0,99.233,14.048c.224-.056-1.457,22.911-1.457,22.911Z" transform="translate(78.96)" fill="#272a2d" fill-rule="evenodd"/>
        <path id="PATH_3_1" d="M100.883,11.3,92.191,1.784l36,3.347L99.75,27.353,125.572,6Z" transform="translate(82.644 1.6)" fill="#fff" fill-rule="evenodd"/>
        <path id="PATH_3_2" d="M208.82,117.885a104.513,104.513,0,0,0-48.546-84.221c-.451-.287-4.665-2.679-6.617-3.8-10.179,8.324-19.193,20.932-22.162,39.968a32.738,32.738,0,0,1,42.242,24.125,74.3,74.3,0,0,1-19.357,78.487c-11.118-14.878-19.241-28.593-24.972-41.216-9.3-20.5-12.247-38.1-11.212-53.024,3.212-46.41,44.745-67.063,52.436-68.989C107.573,10.2,23.418,67.41,39.995,157.067a74.286,74.286,0,0,1-9.71-52.077c8.633-65.558,74.427-87.1,75.518-87.455-.656-.019-1.312-.045-1.971-.041A104.283,104.283,0,0,0,0,121.745c.712,27.55,12.5,49.931,27.952,71.083l75.828,99.155L186.732,184.9c14.133-18.242,22.274-40.605,22.158-63.687Q208.879,119.556,208.82,117.885Z" transform="translate(0 8.27)" fill="#272a2d" fill-rule="evenodd"/>
        <ellipse id="PATH_3_3" cx="79.553" cy="11.517" rx="79.553" ry="11.517" transform="translate(25.725 289.902)" fill="#454141" opacity="0.22"/>
        <path id="PATH_3_4" d="M146.4,9.442c-13.452-.253-216.581,58.3-65.331,282.34L147,206.7C28.408,92.777,106.631,20.08,146.4,9.442Z" transform="translate(22.709 8.471)" fill="#c29d59" fill-rule="evenodd"/>
        <path id="PATH_3_5" d="M103.863,13.581A104.317,104.317,0,0,0,0,117.87a100.345,100.345,0,0,0,5.132,29.162C8.9,34.2,103.863,13.581,103.863,13.581Z" transform="translate(0 12.185)" fill="#4e4e4e" fill-rule="evenodd"/>
        <path id="PATH_3_6" d="M55.45,37.3C19.4,79.422,2.881,151.04,81.07,266.89L116.777,220.8C38.64,150.634,41.89,81.308,55.45,37.3Z" transform="translate(22.717 33.363)" fill="#987c48" fill-rule="evenodd"/>
        <path id="PATH_3_8" d="M113.282,67.151a33.27,33.27,0,0,1-45.051,37.883c5.824,12.83,14.079,26.765,25.379,41.889a75.522,75.522,0,0,0,19.672-79.772ZM81.992,40.176a39.661,39.661,0,0,0-11.426,1.459,106.586,106.586,0,0,0-.771,25.486c.924-21.607,30.423-27.924,39.954-8.509a75.4,75.4,0,0,1,3.537,8.539C110.041,52.174,97.934,40.176,81.992,40.176Z" transform="translate(61.162 35.485)" fill="#272a2d" fill-rule="evenodd"/>
      </g>
    </g>
  </g>
</svg>
