<svg id="svg" xmlns="http://www.w3.org/2000/svg" width="241.548" height="350.45" viewBox="0 0 241.548 350.45">
  <g id="shape-3" transform="translate(0 0)">
    <g id="Group_5" data-name="Group 5" transform="translate(0 0)">
      <path id="PATH_3_0" d="M143.336,5.609,88.085,0l12.428,15.661c.249-.062-1.625,25.542-1.625,25.542Z" transform="translate(98.213)" fill="#272a2d" fill-rule="evenodd"/>
      <path id="PATH_3_1" d="M101.881,12.4,92.191,1.784,132.33,5.515,100.618,30.288,129.4,6.487Z" transform="translate(102.791 1.989)" fill="#fff" fill-rule="evenodd"/>
      <path id="PATH_3_2" d="M232.868,130.97a117.2,117.2,0,0,0-54.137-94.363c-.5-.321-5.2-3-7.379-4.254C160,41.68,149.949,55.806,146.638,77.135a36.452,36.452,0,0,1,47.106,27.031A83.545,83.545,0,0,1,172.158,192.1c-12.4-16.669-21.457-32.036-27.847-46.179-10.367-22.964-13.658-42.685-12.5-59.409,3.582-52,49.9-75.139,58.475-77.3C119.962,10.32,26.115,74.417,44.6,174.87a83.217,83.217,0,0,1-12.17-43.462,84.081,84.081,0,0,1,1.342-14.887c9.627-73.452,83-97.59,84.216-97.986-.731-.021-1.463-.05-2.2-.046A116.57,116.57,0,0,0,0,135.3c.794,30.867,13.945,55.944,31.172,79.643l84.56,111.094,92.5-119.974c15.76-20.439,24.839-45.495,24.71-71.356Q232.935,132.842,232.868,130.97Z" transform="translate(0 10.278)" fill="#fff" fill-rule="evenodd"/>
      <ellipse id="PATH_3_3" cx="88.724" cy="12.839" rx="88.724" ry="12.839" transform="translate(28.678 324.771)" fill="#fff" opacity="0.22"/>
      <path id="PATH_3_4" d="M160.3,9.442c-15-.284-241.445,65.325-72.831,316.341l73.5-95.328C28.759,102.812,115.962,21.361,160.3,9.442Z" transform="translate(28.265 10.527)" fill="#c29d59" fill-rule="evenodd"/>
      <path id="PATH_3_5" d="M115.786,13.581A116.293,116.293,0,0,0,0,129.842a111.864,111.864,0,0,0,5.722,32.51C9.922,36.563,115.786,13.581,115.786,13.581Z" transform="translate(0 15.143)" fill="#987c48" fill-rule="evenodd"/>
      <path id="PATH_3_6" d="M58.9,37.3C18.713,84.258.3,164.1,87.467,293.248l39.806-51.386C40.165,163.645,43.789,86.36,58.9,37.3Z" transform="translate(28.265 43.063)" fill="#987c48" fill-rule="evenodd"/>
      <path id="PATH_3_8" d="M118.454,70.247a37.089,37.089,0,0,1-50.223,42.232c6.493,14.3,15.7,29.838,28.292,46.7a84.192,84.192,0,0,0,21.931-88.93ZM83.572,40.176A44.214,44.214,0,0,0,70.834,41.8a118.822,118.822,0,0,0-.86,28.412C71,46.126,103.89,39.084,114.515,60.728a84.066,84.066,0,0,1,3.943,9.52C114.84,53.551,101.344,40.176,83.572,40.176Z" transform="translate(76.076 44.754)" fill="#fff" fill-rule="evenodd"/>
    </g>
  </g>
</svg>
