<svg id="assistance" xmlns="http://www.w3.org/2000/svg" width="50" height="50" viewBox="0 0 50 50">
  <g id="Group_28" data-name="Group 28" transform="translate(0.795 0.795)">
    <path id="Path_33" data-name="Path 33" d="M27.474,41a2.347,2.347,0,0,0,.217-.457h1.343a2.774,2.774,0,0,0,2.772-2.771V34.15A14.282,14.282,0,1,0,25.75,19.457a8.416,8.416,0,0,0-2.375-.346H21.191a8.4,8.4,0,0,0-7.8,11.606,3.16,3.16,0,0,0,2.539,5.06h.071a4.773,4.773,0,0,0,2.782,3.567l-.325,1.3A12.886,12.886,0,0,0,8,53.358V57.2H36.566V53.358A12.872,12.872,0,0,0,27.474,41ZM26.15,51.11l-2.025.675,1.687-2.7ZM21.3,45.343l-1.556,2.335-.664-1.062-.544-4.36c.084-.018.169-.034.254-.051Zm.982,1.388L23.9,49.155l-1.616,2.584-1.616-2.585Zm3.968-6.986a.794.794,0,0,1-.794.794H23.87a.794.794,0,0,1,0-1.587h1.587A.794.794,0,0,1,26.251,39.745ZM25.776,42.2c.085.017.17.033.254.051l-.544,4.36-.664,1.062-1.556-2.335Zm-8.36,3.89H15.841l-.34-2.721a11.385,11.385,0,0,1,1.492-.671Zm1.337,2.992,1.687,2.7-2.024-.675Zm8.82-6.386a11.385,11.385,0,0,1,1.492.671l-.341,2.722H27.149Zm1.461-3.749H27.692a2.358,2.358,0,0,0-.382-.683,4.745,4.745,0,0,0,1.247-2.491h.075a3.141,3.141,0,0,0,1.587-.441v2.432A1.185,1.185,0,0,1,29.034,38.951Zm-.4-7.936a1.587,1.587,0,0,1,0,3.175Zm1.627-9.523a9.478,9.478,0,0,1,2.218-5.35l1.092,1.092,1.122-1.122L33.6,15.02A9.47,9.47,0,0,1,38.947,12.8v1.547h1.587V12.8a9.475,9.475,0,0,1,5.349,2.218l-1.092,1.092,1.122,1.122L47,16.143a9.476,9.476,0,0,1,2.218,5.35H47.675V23.08h1.547A9.478,9.478,0,0,1,47,28.429l-1.092-1.092L44.79,28.46l1.092,1.092a9.473,9.473,0,0,1-5.349,2.218V30.221H38.946v1.537A9.437,9.437,0,0,1,33.6,29.548l1.089-1.089-1.122-1.122-1.1,1.1a9.655,9.655,0,0,1-.668-.9,8.37,8.37,0,0,0-1.291-4.452h1.293V21.492H30.259Zm9.482-11.9a12.7,12.7,0,1,1-7.981,22.561,3.143,3.143,0,0,0-.589-1.432,8.343,8.343,0,0,0,.331-.982,11.113,11.113,0,1,0-2.792-8.716,8.448,8.448,0,0,0-1.457-.956A12.716,12.716,0,0,1,39.74,9.587ZM14.348,32.6a1.589,1.589,0,0,1,1.587-1.587V34.19A1.589,1.589,0,0,1,14.348,32.6Zm2.13-4.721-.543.181v1.366a3.156,3.156,0,0,0-1.238.252A6.826,6.826,0,0,1,21.191,20.7h2.184a6.826,6.826,0,0,1,6.494,8.981,3.156,3.156,0,0,0-1.238-.252V27.841H27.044a11.034,11.034,0,0,1-5.743-1.6l.824-1.1-1.27-.952-.875,1.167a7.207,7.207,0,0,1-3.5,2.525Zm1.044,7.1v-5.8a8.753,8.753,0,0,0,2.7-1.755,12.61,12.61,0,0,0,6.819,2v5.555a3.17,3.17,0,0,1-1.132,2.427,2.39,2.39,0,0,0-.455-.046H23.87a2.368,2.368,0,0,0-1.762.794H20.7A3.177,3.177,0,0,1,17.522,34.983ZM20.7,39.745h.794a2.379,2.379,0,0,0,2.321,2.375l-1.528,1.91-2.309-2.887.354-1.417C20.45,39.735,20.572,39.745,20.7,39.745ZM9.587,53.358a11.309,11.309,0,0,1,4.436-9.022l.418,3.345h2.938l-.751,4.507,4.863,1.62v1.809H14.348V50.856H12.761v4.762H9.587Zm25.392,2.259H31.805V50.856H30.218v4.762H23.077V53.808l4.862-1.621-.751-4.506h2.938l.418-3.345a11.307,11.307,0,0,1,4.437,9.022Z" transform="translate(-8 -8)" fill="#fff"/>
    <circle id="Ellipse_5" data-name="Ellipse 5" cx="0.5" cy="0.5" r="0.5" transform="translate(11.181 22.157)" fill="#fff"/>
    <circle id="Ellipse_6" data-name="Ellipse 6" cx="0.5" cy="0.5" r="0.5" transform="translate(16.17 22.157)" fill="#fff"/>
    <path id="Path_34" data-name="Path 34" d="M121.365,267.935l.466-.466-1.125-1.125-.466.466a3.045,3.045,0,0,1-4.306,0l-.466-.466-1.125,1.125.466.466a4.635,4.635,0,0,0,6.555,0Z" transform="translate(-103.798 -240.719)" fill="#fff"/>
    <path id="Path_35" data-name="Path 35" d="M334.351,323.134v-1.591c-.116,0-2.932,0-4.509,0l3.769-4.4A3.117,3.117,0,0,0,331.245,312h-.127A3.122,3.122,0,0,0,328,315.118v.859h1.591v-.859a1.528,1.528,0,0,1,1.527-1.527h.127a1.527,1.527,0,0,1,1.16,2.521l-4.4,5.138v1.885Z" transform="translate(-296.265 -281.861)" fill="#fff"/>
    <path id="Path_36" data-name="Path 36" d="M406.362,323.134v-1.591h1.591v-1.591h-1.591V312H404.3l-4.3,7.747v1.8h4.772v1.591Zm-4.657-3.181,3.067-5.519v5.519Z" transform="translate(-361.134 -281.861)" fill="#fff"/>
    <path id="Path_37" data-name="Path 37" d="M330.386,440a2.386,2.386,0,1,0,2.386,2.386A2.389,2.389,0,0,0,330.386,440Zm0,3.181a.8.8,0,1,1,.8-.8A.8.8,0,0,1,330.386,443.181Z" transform="translate(-296.262 -397.158)" fill="#fff"/>
    <path id="Path_38" data-name="Path 38" d="M394.386,440a2.386,2.386,0,1,0,2.386,2.386A2.389,2.389,0,0,0,394.386,440Zm0,3.181a.8.8,0,1,1,.8-.8A.8.8,0,0,1,394.386,443.181Z" transform="translate(-353.929 -397.158)" fill="#fff"/>
    <path id="Path_39" data-name="Path 39" d="M458.386,440a2.386,2.386,0,1,0,2.386,2.386A2.389,2.389,0,0,0,458.386,440Zm0,3.181a.8.8,0,1,1,.8-.8A.8.8,0,0,1,458.386,443.181Z" transform="translate(-411.567 -397.158)" fill="#fff"/>
    <path id="Path_40" data-name="Path 40" d="M306.386,96.748a2.383,2.383,0,0,0,2.24-1.591h2.532V93.567h-2.532a2.384,2.384,0,0,0-1.444-1.444V88h-1.591v4.123a2.38,2.38,0,0,0,.8,4.625Zm0-3.181a.8.8,0,1,1-.8.8A.8.8,0,0,1,306.386,93.567Z" transform="translate(-274.646 -80.067)" fill="#fff"/>
  </g>
  <g id="Group_29" data-name="Group 29">
    <path id="Path_41" data-name="Path 41" fill="none"/>
    <path id="Path_42" data-name="Path 42" fill="none"/>
  </g>
</svg>
