<svg xmlns="http://www.w3.org/2000/svg" width="50" height="52.944" viewBox="0 0 50 52.944">
  <g id="travel" transform="translate(-26.275 -12.999)">
    <path id="Path_3" data-name="Path 3" d="M238.769,42.321a.7.7,0,0,0,.511.181,22.858,22.858,0,0,1,3.208.075l.068,0a.715.715,0,0,0,.066-1.426,24.259,24.259,0,0,0-3.409-.08.716.716,0,0,0-.444,1.247Z" transform="translate(-189.048 -25.13)" fill="#fff"/>
    <path id="Path_4" data-name="Path 4" d="M167.009,49.7a.711.711,0,0,0,.266-.052,22.376,22.376,0,0,1,3.055-.975.715.715,0,0,0-.336-1.389,23.787,23.787,0,0,0-3.251,1.038.715.715,0,0,0,.266,1.378Z" transform="translate(-124.712 -30.702)" fill="#fff"/>
    <path id="Path_5" data-name="Path 5" d="M106.955,77.7a.715.715,0,1,0-.774-1.2,24.084,24.084,0,0,0-2.729,2.045.715.715,0,1,0,.937,1.08A22.658,22.658,0,0,1,106.955,77.7Z" transform="translate(-68.525 -56.793)" fill="#fff"/>
    <path id="Path_6" data-name="Path 6" d="M327.669,44h0a.74.74,0,1,0,.133,1.038A.739.739,0,0,0,327.669,44Z" transform="translate(-267.488 -27.64)" fill="#fff"/>
    <path id="Path_7" data-name="Path 7" d="M345.206,57.554h0a.74.74,0,1,0,.282.492.74.74,0,0,0-.282-.492Z" transform="translate(-283.113 -39.78)" fill="#fff"/>
    <path id="Path_8" data-name="Path 8" d="M362.754,71.107h0a.74.74,0,1,0,.282.491.74.74,0,0,0-.282-.491Z" transform="translate(-298.749 -51.923)" fill="#fff"/>
    <path id="Path_9" data-name="Path 9" d="M380.3,84.66h0a.74.74,0,1,0,.133,1.038.74.74,0,0,0-.133-1.038Z" transform="translate(-314.383 -64.066)" fill="#fff"/>
    <path id="Path_10" data-name="Path 10" d="M274.133,480.543a22.467,22.467,0,0,1-3.164.528.715.715,0,0,0,.066,1.426q.034,0,.068,0a23.98,23.98,0,0,0,3.365-.562.715.715,0,0,0-.336-1.389Z" transform="translate(-217.363 -416.555)" fill="#fff"/>
    <path id="Path_11" data-name="Path 11" d="M200.628,481.08a22.505,22.505,0,0,1-3.164-.528.715.715,0,0,0-.336,1.39,23.959,23.959,0,0,0,3.365.562c.023,0,.045,0,.068,0a.715.715,0,0,0,.066-1.426Z" transform="translate(-151.685 -416.563)" fill="#fff"/>
    <path id="Path_12" data-name="Path 12" d="M431.532,134.659a.715.715,0,0,0-.7,1.12,22.57,22.57,0,0,1,1.671,2.736.715.715,0,1,0,1.27-.656A23.984,23.984,0,0,0,432,134.95.71.71,0,0,0,431.532,134.659Z" transform="translate(-360.151 -108.359)" fill="#fff"/>
    <path id="Path_13" data-name="Path 13" d="M344.955,451.53a22.448,22.448,0,0,1-2.812,1.538.715.715,0,1,0,.594,1.3,23.924,23.924,0,0,0,2.992-1.636.715.715,0,1,0-.774-1.2Z" transform="translate(-280.972 -390.477)" fill="#fff"/>
    <path id="Path_14" data-name="Path 14" d="M406.293,401.83a.715.715,0,0,0-1,.119,22.681,22.681,0,0,1-2.159,2.373.715.715,0,1,0,.986,1.035,24.1,24.1,0,0,0,2.3-2.524A.715.715,0,0,0,406.293,401.83Z" transform="translate(-335.252 -345.914)" fill="#fff"/>
    <path id="Path_15" data-name="Path 15" d="M463.729,205.162a.718.718,0,0,0,.707.614.749.749,0,0,0,.1-.007.716.716,0,0,0,.607-.808,23.86,23.86,0,0,0-.722-3.335.715.715,0,0,0-1.372.4,22.431,22.431,0,0,1,.679,3.134Z" transform="translate(-389.11 -167.551)" fill="#fff"/>
    <path id="Path_16" data-name="Path 16" d="M449.428,336.841a.715.715,0,0,0-.909.442,22.4,22.4,0,0,1-1.264,2.949.715.715,0,1,0,1.27.656,23.846,23.846,0,0,0,1.345-3.138.715.715,0,0,0-.442-.909Z" transform="translate(-374.903 -288.414)" fill="#fff"/>
    <path id="Path_17" data-name="Path 17" d="M30.842,195.6a.714.714,0,0,0,.836-.567,22.4,22.4,0,0,1,.828-3.1.715.715,0,1,0-1.351-.467,23.831,23.831,0,0,0-.881,3.3.715.715,0,0,0,.567.836Z" transform="translate(-3.572 -158.532)" fill="#fff"/>
    <path id="Path_18" data-name="Path 18" d="M132.545,453.053a22.516,22.516,0,0,1-2.815-1.54.715.715,0,1,0-.774,1.2,23.951,23.951,0,0,0,2.994,1.638.707.707,0,0,0,.3.065.715.715,0,0,0,.3-1.365Z" transform="translate(-91.167 -390.462)" fill="#fff"/>
    <path id="Path_19" data-name="Path 19" d="M27.93,267.811a22.758,22.758,0,0,1-.226-3.2.715.715,0,1,0-1.429,0,24.188,24.188,0,0,0,.24,3.4.718.718,0,0,0,.707.614.755.755,0,0,0,.1-.007.716.716,0,0,0,.607-.809Z" transform="translate(0 -223.47)" fill="#fff"/>
    <path id="Path_20" data-name="Path 20" d="M470.7,263.9a.716.716,0,0,0-.715.715,22.781,22.781,0,0,1-.226,3.2.715.715,0,0,0,.607.808.753.753,0,0,0,.1.007.718.718,0,0,0,.707-.614,24.212,24.212,0,0,0,.24-3.4A.715.715,0,0,0,470.7,263.9Z" transform="translate(-395.138 -223.474)" fill="#fff"/>
    <path id="Path_21" data-name="Path 21" d="M39.858,337.276a.715.715,0,1,0-1.351.467,23.849,23.849,0,0,0,1.344,3.136.715.715,0,1,0,1.27-.656A22.422,22.422,0,0,1,39.858,337.276Z" transform="translate(-10.924 -288.409)" fill="#fff"/>
    <path id="Path_22" data-name="Path 22" d="M75.212,401.931a.715.715,0,0,0-1.123.885,24.112,24.112,0,0,0,2.295,2.523.715.715,0,1,0,.987-1.034,22.674,22.674,0,0,1-2.158-2.373Z" transform="translate(-42.701 -345.898)" fill="#fff"/>
    <path id="Path_23" data-name="Path 23" d="M59.119,126.285a.716.716,0,0,0-1,.119,24.039,24.039,0,0,0-1.915,2.824.715.715,0,1,0,1.237.716,22.565,22.565,0,0,1,1.8-2.655A.716.716,0,0,0,59.119,126.285Z" transform="translate(-26.726 -100.773)" fill="#fff"/>
    <path id="Path_24" data-name="Path 24" d="M302.479,28.625a1.063,1.063,0,0,0,1.122-.377.624.624,0,0,0,.1-.191l1.037-3.231L307.609,23a.621.621,0,0,0,.159-.145,1.066,1.066,0,0,0-.88-1.716l-3.336-.446L301.882,19.4l2.293-2.968a1.009,1.009,0,0,0-.182-1.415l-.718-.555a1.4,1.4,0,0,0-1.767.051l-2.8,2.435-4.428-3.42a2.547,2.547,0,0,0-3.114,4.031l4.428,3.42-1.648,3.325a1.4,1.4,0,0,0,.4,1.722l.718.555a1,1,0,0,0,.615.211,1.024,1.024,0,0,0,.131-.008,1,1,0,0,0,.67-.384l2.293-2.968,1.669,1.289,1.28,3.108A1.062,1.062,0,0,0,302.479,28.625Zm-.95-4.532a.625.625,0,0,0-.2-.256l-3.208-2.478a.625.625,0,1,0-.763.989l.419.323-2.146,2.779-.528-.408a.145.145,0,0,1-.042-.179l1.876-3.784a.624.624,0,0,0-.178-.771l-4.833-3.733a1.3,1.3,0,1,1,1.587-2.055l4.833,3.733a.624.624,0,0,0,.791-.023l3.187-2.771a.145.145,0,0,1,.184-.005l.528.408-2.146,2.779-.419-.323a.625.625,0,1,0-.763.989l3.208,2.478a.624.624,0,0,0,.3.125l3.124.417-2.465,1.57a.624.624,0,0,0-.259.336L302.728,27Z" transform="translate(-234.252)" fill="#fff"/>
    <path id="Path_25" data-name="Path 25" d="M128.115,126.809c-8.864,0-16.075,6.721-16.075,14.981s7.211,14.981,16.075,14.981,16.075-6.721,16.075-14.981S136.978,126.809,128.115,126.809ZM113.38,141.79c0-7.4,6.3-13.443,14.168-13.721l.686,3.886a.9.9,0,0,1-.433.918l-2.588,1.579a2.1,2.1,0,0,0-1.01,2.22l.348,1.7a2.2,2.2,0,0,0,1.276,1.547l1.818.816a.907.907,0,0,1,.543.991l-.662,3.428a.893.893,0,0,1-.181.388,1.018,1.018,0,0,1-.892.364.985.985,0,0,1-.792-.527l-.666-1.337a2.351,2.351,0,0,0-2.109-1.254H120.19a2.433,2.433,0,0,0-1.336.393l-1.812,1.185a1.043,1.043,0,0,1-.794.142l-2.692-.6A12.855,12.855,0,0,1,113.38,141.79Zm22.289,7.476.472,4.034a15.429,15.429,0,0,1-8.027,2.222,14.616,14.616,0,0,1-14.258-10.263l2.081.46a2.467,2.467,0,0,0,1.874-.335l1.812-1.185a1.031,1.031,0,0,1,.567-.167h2.694a1,1,0,0,1,.894.532l.666,1.337a2.3,2.3,0,0,0,1.869,1.243q.123.012.247.012a2.364,2.364,0,0,0,1.856-.87,2.106,2.106,0,0,0,.427-.914l.662-3.428a2.139,2.139,0,0,0-1.28-2.337l-1.818-.816a.935.935,0,0,1-.541-.656l-.348-1.7a.891.891,0,0,1,.428-.941l2.587-1.579a2.113,2.113,0,0,0,1.021-2.165l-.648-3.675a15.108,15.108,0,0,1,10.557,4.964l-1.139.756a3.172,3.172,0,0,0-1.319,1.792l-.362,1.317a3.045,3.045,0,0,0,1.2,3.275,1.853,1.853,0,0,1,.739,1.926l-.731,3.039a1.878,1.878,0,0,1-.558.941l-.637.588a3.023,3.023,0,0,0-.986,2.591Zm7.18-7.476a13.378,13.378,0,0,1-5.46,10.663L137,149.13a1.829,1.829,0,0,1,.6-1.567l.637-.588a3.1,3.1,0,0,0,.923-1.555l.731-3.039a3.063,3.063,0,0,0-1.221-3.183,1.843,1.843,0,0,1-.725-1.982l.362-1.317a1.918,1.918,0,0,1,.8-1.084l1.169-.776a13.015,13.015,0,0,1,2.578,7.751Z" transform="translate(-76.84 -100.64)" fill="#fff"/>
  </g>
</svg>
