<svg xmlns="http://www.w3.org/2000/svg" width="50.529" height="50.529" viewBox="0 0 50.529 50.529">
  <g id="warranty" transform="translate(0.013 0.014)">
    <path id="Path_30" data-name="Path 30" d="M53.346,39.321a.691.691,0,0,0-.488.2L40.829,51.552l-6.923-6.923a.71.71,0,0,0-.976,0L30.139,47.42a.691.691,0,0,0,0,.976l10.2,10.2a.69.69,0,0,0,.976,0L56.625,43.291a.691.691,0,0,0,0-.977l-2.791-2.791a.691.691,0,0,0-.488-.2ZM40.829,57.134,31.6,47.909l1.815-1.815,6.922,6.924a.69.69,0,0,0,.976,0L53.346,40.988,55.161,42.8Z" transform="translate(-18.13 -23.811)" fill="#fff"/>
    <path id="Path_31" data-name="Path 31" d="M35.145,16.332A18.813,18.813,0,1,0,53.958,35.145,18.813,18.813,0,0,0,35.145,16.332Zm0,36.245A17.432,17.432,0,1,1,52.577,35.145,17.432,17.432,0,0,1,35.145,52.577Z" transform="translate(-9.894 -9.895)" fill="#fff"/>
    <path id="Path_32" data-name="Path 32" d="M49.732,27.466a3.522,3.522,0,0,0,0-4.431L48.6,21.622a2.164,2.164,0,0,1-.388-1.957l.505-1.733a3.566,3.566,0,0,0-1.7-4.1l-1.581-.868a2.164,2.164,0,0,1-1.111-1.658l-.2-1.8a3.522,3.522,0,0,0-3.134-3.134l-1.8-.2a2.162,2.162,0,0,1-1.658-1.111L36.67,3.484a3.522,3.522,0,0,0-4.1-1.7l-1.733.5A2.167,2.167,0,0,1,28.879,1.9L27.466.769a3.524,3.524,0,0,0-4.431,0L21.623,1.9a2.171,2.171,0,0,1-1.957.388l-1.733-.505a3.565,3.565,0,0,0-4.1,1.7l-.868,1.581a2.164,2.164,0,0,1-1.658,1.111l-1.8.2A3.522,3.522,0,0,0,6.375,9.507l-.2,1.8a2.162,2.162,0,0,1-1.111,1.658l-1.582.868a3.523,3.523,0,0,0-1.7,4.1l.506,1.732A2.167,2.167,0,0,1,1.9,21.622L.771,23.035a3.522,3.522,0,0,0,0,4.431L1.9,28.878a2.164,2.164,0,0,1,.388,1.957l-.505,1.733a3.566,3.566,0,0,0,1.7,4.1l1.581.868a2.164,2.164,0,0,1,1.111,1.658l.2,1.8a3.522,3.522,0,0,0,3.134,3.134l1.8.2a2.162,2.162,0,0,1,1.658,1.111l.868,1.582a3.522,3.522,0,0,0,4.1,1.7l1.732-.506a2.171,2.171,0,0,1,1.958.388l1.413,1.132a3.522,3.522,0,0,0,4.431,0L28.879,48.6a2.165,2.165,0,0,1,1.957-.388l1.733.505a3.523,3.523,0,0,0,4.1-1.7l.868-1.581A2.164,2.164,0,0,1,39.2,44.324l1.8-.2a3.522,3.522,0,0,0,3.134-3.134l.2-1.8a2.162,2.162,0,0,1,1.111-1.658l1.582-.868a3.523,3.523,0,0,0,1.7-4.1l-.506-1.732a2.167,2.167,0,0,1,.388-1.958Zm-2.21.55a3.549,3.549,0,0,0-.636,3.208l.506,1.732a2.15,2.15,0,0,1-1.037,2.5l-1.582.868a3.544,3.544,0,0,0-1.819,2.72l-.2,1.8a2.151,2.151,0,0,1-1.913,1.913l-1.8.2a3.546,3.546,0,0,0-2.719,1.82l-.868,1.582a2.151,2.151,0,0,1-2.5,1.037l-1.733-.506a3.546,3.546,0,0,0-3.207.636L26.6,48.654a2.149,2.149,0,0,1-2.7,0l-1.413-1.132a3.548,3.548,0,0,0-3.208-.636l-1.732.506a2.152,2.152,0,0,1-2.5-1.037l-.868-1.582a3.544,3.544,0,0,0-2.72-1.819l-1.8-.2a2.151,2.151,0,0,1-1.913-1.913l-.2-1.8a3.546,3.546,0,0,0-1.82-2.719l-1.582-.868a2.175,2.175,0,0,1-1.037-2.5l.506-1.733a3.547,3.547,0,0,0-.636-3.207L1.847,26.6a2.15,2.15,0,0,1,0-2.7l1.132-1.413a3.549,3.549,0,0,0,.636-3.208L3.11,17.545a2.15,2.15,0,0,1,1.037-2.5l1.582-.868a3.544,3.544,0,0,0,1.819-2.72l.2-1.8A2.151,2.151,0,0,1,9.662,7.746l1.8-.2a3.546,3.546,0,0,0,2.719-1.82l.868-1.582a2.177,2.177,0,0,1,2.5-1.038l1.733.506a3.547,3.547,0,0,0,3.207-.636L23.9,1.846a2.15,2.15,0,0,1,2.7,0l1.413,1.132a3.552,3.552,0,0,0,3.208.636l1.732-.505a2.153,2.153,0,0,1,2.5,1.037l.868,1.582a3.544,3.544,0,0,0,2.72,1.819l1.8.2a2.151,2.151,0,0,1,1.913,1.913l.2,1.8a3.546,3.546,0,0,0,1.82,2.719l1.582.868a2.176,2.176,0,0,1,1.037,2.5l-.506,1.733a3.547,3.547,0,0,0,.636,3.207L48.655,23.9a2.15,2.15,0,0,1,0,2.7Z" fill="#fff"/>
  </g>
</svg>
