{
    "asset" : {
        "generator" : "Khronos glTF Blender I/O v1.7.33",
        "version" : "2.0"
    },
    "scene" : 0,
    "scenes" : [
        {
            "name" : "Scene",
            "nodes" : [
                0
            ]
        }
    ],
    "nodes" : [
        {
            "mesh" : 0,
            "name" : "6",
            "rotation" : [
                -0.005396101623773575,
                0,
                0,
                0.9999854564666748
            ],
            "scale" : [
                0.01636086404323578,
                0.016360865905880928,
                0.016360865905880928
            ],
            "translation" : [
                0,
                -0.46834537386894226,
                0
            ]
        }
    ],
    "materials" : [
        {
            "alphaMode" : "BLEND",
            "doubleSided" : true,
            "name" : "blinn4SG",
            "pbrMetallicRoughness" : {
                "baseColorFactor" : [
                    0,
                    0,
                    0,
                    1
                ],
                "metallicFactor" : 0,
                "roughnessFactor" : 0
            }
        },
        {
            "alphaMode" : "BLEND",
            "doubleSided" : true,
            "name" : "blinn2SG",
            "pbrMetallicRoughness" : {
                "baseColorFactor" : [
                    0,
                    0,
                    0,
                    1
                ],
                "metallicFactor" : 0,
                "roughnessFactor" : 0
            }
        },
        {
            "alphaMode" : "BLEND",
            "doubleSided" : true,
            "name" : "blinn1SG",
            "pbrMetallicRoughness" : {
                "baseColorFactor" : [
                    0,
                    0,
                    0,
                    1
                ],
                "metallicFactor" : 0,
                "roughnessFactor" : 0
            }
        },
        {
            "alphaMode" : "BLEND",
            "doubleSided" : true,
            "name" : "blinn3SG",
            "pbrMetallicRoughness" : {
                "baseColorFactor" : [
                    0.7099999785423279,
                    0.7099999785423279,
                    0,
                    1
                ],
                "metallicFactor" : 0
            }
        }
    ],
    "meshes" : [
        {
            "name" : "10384_GrandPiano.006",
            "primitives" : [
                {
                    "attributes" : {
                        "POSITION" : 0
                    },
                    "indices" : 1,
                    "material" : 0
                },
                {
                    "attributes" : {
                        "POSITION" : 2
                    },
                    "indices" : 3,
                    "material" : 1
                },
                {
                    "attributes" : {
                        "POSITION" : 4
                    },
                    "indices" : 5,
                    "material" : 2
                },
                {
                    "attributes" : {
                        "POSITION" : 6
                    },
                    "indices" : 7,
                    "material" : 3
                }
            ]
        }
    ],
    "accessors" : [
        {
            "bufferView" : 0,
            "componentType" : 5126,
            "count" : 2329,
            "max" : [
                119.8085708618164,
                117.56735229492188,
                76.7381591796875
            ],
            "min" : [
                -118.95406341552734,
                78.54557037353516,
                -77.01963806152344
            ],
            "type" : "VEC3"
        },
        {
            "bufferView" : 1,
            "componentType" : 5123,
            "count" : 11208,
            "type" : "SCALAR"
        },
        {
            "bufferView" : 2,
            "componentType" : 5126,
            "count" : 7255,
            "max" : [
                117.87565612792969,
                120.8284912109375,
                78.5744400024414
            ],
            "min" : [
                -120.81177520751953,
                4.75995397567749,
                -79.79608154296875
            ],
            "type" : "VEC3"
        },
        {
            "bufferView" : 3,
            "componentType" : 5123,
            "count" : 35208,
            "type" : "SCALAR"
        },
        {
            "bufferView" : 4,
            "componentType" : 5126,
            "count" : 33872,
            "max" : [
                116.7155990600586,
                86.28901672363281,
                67.04737854003906
            ],
            "min" : [
                88.88453674316406,
                81.72447967529297,
                -66.38847351074219
            ],
            "type" : "VEC3"
        },
        {
            "bufferView" : 5,
            "componentType" : 5123,
            "count" : 202176,
            "type" : "SCALAR"
        },
        {
            "bufferView" : 6,
            "componentType" : 5126,
            "count" : 2630,
            "max" : [
                100.16010284423828,
                121.21336364746094,
                77.05262756347656
            ],
            "min" : [
                -114.27434539794922,
                -0.010707907378673553,
                -78.26206970214844
            ],
            "type" : "VEC3"
        },
        {
            "bufferView" : 7,
            "componentType" : 5123,
            "count" : 14904,
            "type" : "SCALAR"
        }
    ],
    "bufferViews" : [
        {
            "buffer" : 0,
            "byteLength" : 27948,
            "byteOffset" : 0
        },
        {
            "buffer" : 0,
            "byteLength" : 22416,
            "byteOffset" : 27948
        },
        {
            "buffer" : 0,
            "byteLength" : 87060,
            "byteOffset" : 50364
        },
        {
            "buffer" : 0,
            "byteLength" : 70416,
            "byteOffset" : 137424
        },
        {
            "buffer" : 0,
            "byteLength" : 406464,
            "byteOffset" : 207840
        },
        {
            "buffer" : 0,
            "byteLength" : 404352,
            "byteOffset" : 614304
        },
        {
            "buffer" : 0,
            "byteLength" : 31560,
            "byteOffset" : 1018656
        },
        {
            "buffer" : 0,
            "byteLength" : 29808,
            "byteOffset" : 1050216
        }
    ],
    "buffers" : [
        {
            "byteLength" : 1080024,
            "uri" : "data:application/octet-stream;base64,"
        }
    ]
}
