{
    "asset" : {
        "generator" : "Khronos glTF Blender I/O v1.7.33",
        "version" : "2.0"
    },
    "scene" : 0,
    "scenes" : [
        {
            "name" : "Scene",
            "nodes" : [
                0,
                1,
                2,
                3,
                4,
                5,
                6,
                7
            ]
        }
    ],
    "nodes" : [
        {
            "mesh" : 0,
            "name" : "foot",
            "rotation" : [
                -0.0038140281103551388,
                -0.7073913812637329,
                -0.0038172113709151745,
                0.7068015336990356
            ],
            "scale" : [
                0.01636086404323578,
                0.016360865905880928,
                0.016360865905880928
            ],
            "translation" : [
                0,
                -1.5183452367782593,
                0
            ]
        },
        {
            "mesh" : 1,
            "name" : "wrap",
            "rotation" : [
                -0.0038140281103551388,
                -0.7073913812637329,
                -0.0038172113709151745,
                0.7068015336990356
            ],
            "scale" : [
                0.01636086404323578,
                0.016360865905880928,
                0.016360865905880928
            ],
            "translation" : [
                0,
                -1.5183452367782593,
                0
            ]
        },
        {
            "mesh" : 2,
            "name" : "leg",
            "rotation" : [
                -0.0038140281103551388,
                -0.7073913812637329,
                -0.0038172113709151745,
                0.7068015336990356
            ],
            "scale" : [
                0.01636086404323578,
                0.016360865905880928,
                0.016360865905880928
            ],
            "translation" : [
                0,
                -1.5183452367782593,
                0
            ]
        },
        {
            "mesh" : 3,
            "name" : "head",
            "rotation" : [
                -0.0038140281103551388,
                -0.7073913812637329,
                -0.0038172113709151745,
                0.7068015336990356
            ],
            "scale" : [
                0.01636086404323578,
                0.016360865905880928,
                0.016360865905880928
            ],
            "translation" : [
                0,
                -1.5183452367782593,
                0
            ]
        },
        {
            "mesh" : 4,
            "name" : "face",
            "rotation" : [
                -0.0038140281103551388,
                -0.7073913812637329,
                -0.0038172113709151745,
                0.7068015336990356
            ],
            "scale" : [
                0.01636086404323578,
                0.016360865905880928,
                0.016360865905880928
            ],
            "translation" : [
                0,
                -1.5183452367782593,
                0
            ]
        },
        {
            "mesh" : 5,
            "name" : "forbid_key",
            "rotation" : [
                0.7070966958999634,
                -0.0037563557270914316,
                -0.0037563571240752935,
                0.7070969343185425
            ],
            "scale" : [
                0.0016467781970277429,
                0.0016467781970277429,
                0.0016467781970277429
            ],
            "translation" : [
                -1.0079315900802612,
                -0.1360437124967575,
                1.6345363855361938
            ]
        },
        {
            "mesh" : 6,
            "name" : "face_2",
            "rotation" : [
                -0.0038140281103551388,
                -0.7073913812637329,
                -0.0038172113709151745,
                0.7068015336990356
            ],
            "scale" : [
                0.01636086404323578,
                0.016360865905880928,
                0.016360865905880928
            ],
            "translation" : [
                0,
                -1.5183452367782593,
                0
            ]
        },
        {
            "mesh" : 7,
            "name" : "line",
            "rotation" : [
                -0.0038140281103551388,
                -0.7073913812637329,
                -0.0038172113709151745,
                0.7068015336990356
            ],
            "scale" : [
                0.01636086404323578,
                0.016360865905880928,
                0.016360865905880928
            ],
            "translation" : [
                0,
                -1.5183452367782593,
                0
            ]
        }
    ],
    "materials" : [
        {
            "alphaMode" : "BLEND",
            "doubleSided" : true,
            "name" : "blinn3SG",
            "pbrMetallicRoughness" : {
                "baseColorFactor" : [
                    0.7099999785423279,
                    0.7099999785423279,
                    0,
                    1
                ],
                "metallicFactor" : 0
            }
        },
        {
            "alphaMode" : "BLEND",
            "doubleSided" : true,
            "name" : "blinn4SG",
            "pbrMetallicRoughness" : {
                "baseColorFactor" : [
                    0,
                    0,
                    0,
                    1
                ],
                "metallicFactor" : 0,
                "roughnessFactor" : 0
            }
        },
        {
            "alphaMode" : "BLEND",
            "doubleSided" : true,
            "name" : "blinn2SG",
            "pbrMetallicRoughness" : {
                "baseColorFactor" : [
                    0,
                    0,
                    0,
                    1
                ],
                "metallicFactor" : 0,
                "roughnessFactor" : 0
            }
        },
        {
            "doubleSided" : true,
            "name" : "Material #2126294540",
            "pbrMetallicRoughness" : {
                "baseColorFactor" : [
                    0.960784375667572,
                    0.960784375667572,
                    0.960784375667572,
                    1
                ],
                "metallicFactor" : 0,
                "roughnessFactor" : 0.5527864098548889
            }
        },
        {
            "doubleSided" : true,
            "name" : "Material #2126294538",
            "pbrMetallicRoughness" : {
                "baseColorFactor" : [
                    0.07058823853731155,
                    0.07058823853731155,
                    0.07058823853731155,
                    1
                ],
                "metallicFactor" : 0,
                "roughnessFactor" : 0.5527864098548889
            }
        }
    ],
    "meshes" : [
        {
            "name" : "10384_GrandPiano.006",
            "primitives" : [
                {
                    "attributes" : {
                        "POSITION" : 0
                    },
                    "indices" : 1,
                    "material" : 0
                }
            ]
        },
        {
            "name" : "10384_GrandPiano.001",
            "primitives" : [
                {
                    "attributes" : {
                        "POSITION" : 2
                    },
                    "indices" : 3,
                    "material" : 1
                },
                {
                    "attributes" : {
                        "POSITION" : 4
                    },
                    "indices" : 5,
                    "material" : 2
                }
            ]
        },
        {
            "name" : "10384_GrandPiano.002",
            "primitives" : [
                {
                    "attributes" : {
                        "POSITION" : 6
                    },
                    "indices" : 7,
                    "material" : 2
                }
            ]
        },
        {
            "name" : "10384_GrandPiano.010",
            "primitives" : [
                {
                    "attributes" : {
                        "POSITION" : 8
                    },
                    "indices" : 9,
                    "material" : 2
                }
            ]
        },
        {
            "name" : "10384_GrandPiano.019",
            "primitives" : [
                {
                    "attributes" : {
                        "POSITION" : 10
                    },
                    "indices" : 11,
                    "material" : 2
                }
            ]
        },
        {
            "name" : "\u7f51\u683c.133",
            "primitives" : [
                {
                    "attributes" : {
                        "POSITION" : 12
                    },
                    "indices" : 13,
                    "material" : 3
                },
                {
                    "attributes" : {
                        "POSITION" : 14
                    },
                    "indices" : 15,
                    "material" : 4
                }
            ]
        },
        {
            "name" : "10384_GrandPiano.035",
            "primitives" : [
                {
                    "attributes" : {
                        "POSITION" : 16
                    },
                    "indices" : 17,
                    "material" : 2
                }
            ]
        },
        {
            "name" : "10384_GrandPiano.037",
            "primitives" : [
                {
                    "attributes" : {
                        "POSITION" : 18
                    },
                    "indices" : 19,
                    "material" : 0
                }
            ]
        }
    ],
    "accessors" : [
        {
            "bufferView" : 0,
            "componentType" : 5126,
            "count" : 2307,
            "max" : [
                93.0805892944336,
                10.469560623168945,
                70.55528259277344
            ],
            "min" : [
                -114.27434539794922,
                -0.010707907378673553,
                -71.95658874511719
            ],
            "type" : "VEC3"
        },
        {
            "bufferView" : 1,
            "componentType" : 5123,
            "count" : 13104,
            "type" : "SCALAR"
        },
        {
            "bufferView" : 2,
            "componentType" : 5126,
            "count" : 2329,
            "max" : [
                119.8085708618164,
                117.56735229492188,
                76.7381591796875
            ],
            "min" : [
                -118.95406341552734,
                78.54557037353516,
                -77.01963806152344
            ],
            "type" : "VEC3"
        },
        {
            "bufferView" : 3,
            "componentType" : 5123,
            "count" : 11208,
            "type" : "SCALAR"
        },
        {
            "bufferView" : 4,
            "componentType" : 5126,
            "count" : 3,
            "max" : [
                101.69022369384766,
                79.15316772460938,
                71.91220092773438
            ],
            "min" : [
                93.80967712402344,
                79.15316009521484,
                70.47396087646484
            ],
            "type" : "VEC3"
        },
        {
            "bufferView" : 5,
            "componentType" : 5123,
            "count" : 3,
            "type" : "SCALAR"
        },
        {
            "bufferView" : 6,
            "componentType" : 5126,
            "count" : 4023,
            "max" : [
                102.35657501220703,
                79.1531753540039,
                72.39581298828125
            ],
            "min" : [
                -116.951416015625,
                4.75995397567749,
                -73.79713439941406
            ],
            "type" : "VEC3"
        },
        {
            "bufferView" : 7,
            "componentType" : 5123,
            "count" : 21345,
            "type" : "SCALAR"
        },
        {
            "bufferView" : 8,
            "componentType" : 5126,
            "count" : 3135,
            "max" : [
                105.45661926269531,
                120.8284912109375,
                78.574462890625
            ],
            "min" : [
                -120.81177520751953,
                116.06673431396484,
                -79.79610443115234
            ],
            "type" : "VEC3"
        },
        {
            "bufferView" : 9,
            "componentType" : 5123,
            "count" : 8112,
            "type" : "SCALAR"
        },
        {
            "bufferView" : 10,
            "componentType" : 5126,
            "count" : 575,
            "max" : [
                99.77014923095703,
                120.37808227539062,
                77.20734405517578
            ],
            "min" : [
                55.68160629272461,
                87.84368896484375,
                -76.07530212402344
            ],
            "type" : "VEC3"
        },
        {
            "bufferView" : 11,
            "componentType" : 5123,
            "count" : 2451,
            "type" : "SCALAR"
        },
        {
            "bufferView" : 12,
            "componentType" : 5126,
            "count" : 1664,
            "max" : [
                1245.9395751953125,
                182,
                12.000000953674316
            ],
            "min" : [
                -12,
                -7.62939453125e-06,
                -12
            ],
            "type" : "VEC3"
        },
        {
            "bufferView" : 13,
            "componentType" : 5123,
            "count" : 9360,
            "type" : "SCALAR"
        },
        {
            "bufferView" : 14,
            "componentType" : 5126,
            "count" : 550,
            "max" : [
                1213.515869140625,
                119.94307708740234,
                -8.095670700073242
            ],
            "min" : [
                22.217525482177734,
                4.2057342529296875,
                -26.38113021850586
            ],
            "type" : "VEC3"
        },
        {
            "bufferView" : 15,
            "componentType" : 5123,
            "count" : 3000,
            "type" : "SCALAR"
        },
        {
            "bufferView" : 16,
            "componentType" : 5126,
            "count" : 773,
            "max" : [
                117.87565612792969,
                88.06166076660156,
                75.07914733886719
            ],
            "min" : [
                42.55657958984375,
                81.05518341064453,
                -74.51516723632812
            ],
            "type" : "VEC3"
        },
        {
            "bufferView" : 17,
            "componentType" : 5123,
            "count" : 3297,
            "type" : "SCALAR"
        },
        {
            "bufferView" : 18,
            "componentType" : 5126,
            "count" : 589,
            "max" : [
                100.16010284423828,
                121.21336364746094,
                77.05262756347656
            ],
            "min" : [
                55.5760383605957,
                107.69005584716797,
                -78.26206970214844
            ],
            "type" : "VEC3"
        },
        {
            "bufferView" : 19,
            "componentType" : 5123,
            "count" : 1800,
            "type" : "SCALAR"
        }
    ],
    "bufferViews" : [
        {
            "buffer" : 0,
            "byteLength" : 27684,
            "byteOffset" : 0
        },
        {
            "buffer" : 0,
            "byteLength" : 26208,
            "byteOffset" : 27684
        },
        {
            "buffer" : 0,
            "byteLength" : 27948,
            "byteOffset" : 53892
        },
        {
            "buffer" : 0,
            "byteLength" : 22416,
            "byteOffset" : 81840
        },
        {
            "buffer" : 0,
            "byteLength" : 36,
            "byteOffset" : 104256
        },
        {
            "buffer" : 0,
            "byteLength" : 6,
            "byteOffset" : 104292
        },
        {
            "buffer" : 0,
            "byteLength" : 48276,
            "byteOffset" : 104300
        },
        {
            "buffer" : 0,
            "byteLength" : 42690,
            "byteOffset" : 152576
        },
        {
            "buffer" : 0,
            "byteLength" : 37620,
            "byteOffset" : 195268
        },
        {
            "buffer" : 0,
            "byteLength" : 16224,
            "byteOffset" : 232888
        },
        {
            "buffer" : 0,
            "byteLength" : 6900,
            "byteOffset" : 249112
        },
        {
            "buffer" : 0,
            "byteLength" : 4902,
            "byteOffset" : 256012
        },
        {
            "buffer" : 0,
            "byteLength" : 19968,
            "byteOffset" : 260916
        },
        {
            "buffer" : 0,
            "byteLength" : 18720,
            "byteOffset" : 280884
        },
        {
            "buffer" : 0,
            "byteLength" : 6600,
            "byteOffset" : 299604
        },
        {
            "buffer" : 0,
            "byteLength" : 6000,
            "byteOffset" : 306204
        },
        {
            "buffer" : 0,
            "byteLength" : 9276,
            "byteOffset" : 312204
        },
        {
            "buffer" : 0,
            "byteLength" : 6594,
            "byteOffset" : 321480
        },
        {
            "buffer" : 0,
            "byteLength" : 7068,
            "byteOffset" : 328076
        },
        {
            "buffer" : 0,
            "byteLength" : 3600,
            "byteOffset" : 335144
        }
    ],
    "buffers" : [
        {
            "byteLength" : 338744,
            "uri" : "data:application/octet-stream;base64,"
        }
    ]
}
