{
    "asset" : {
        "generator" : "Khronos glTF Blender I/O v1.7.33",
        "version" : "2.0"
    },
    "scene" : 0,
    "scenes" : [
        {
            "name" : "Scene",
            "nodes" : [
                0,
                1,
                2,
                3,
                4,
                5,
                6,
                7,
                8
            ]
        }
    ],
    "nodes" : [
        {
            "mesh" : 0,
            "name" : "guitar_face",
            "rotation" : [
                0.7124312520027161,
                0.7015284895896912,
                -0.013838264159858227,
                -0.010392529889941216
            ],
            "scale" : [
                0.002514385152608156,
                0.0025143849197775126,
                0.002514385152608156
            ],
            "translation" : [
                -1.491992473602295,
                -0.052282437682151794,
                0.37777090072631836
            ]
        },
        {
            "mesh" : 1,
            "name" : "head_node",
            "rotation" : [
                0.7124312520027161,
                0.7015284895896912,
                -0.013838264159858227,
                -0.010392529889941216
            ],
            "scale" : [
                0.002514385152608156,
                0.0025143849197775126,
                0.002514385152608156
            ],
            "translation" : [
                -1.491992473602295,
                -0.052282437682151794,
                0.37777090072631836
            ]
        },
        {
            "mesh" : 2,
            "name" : "guitar_wrap",
            "rotation" : [
                0.7124312520027161,
                0.7015284895896912,
                -0.013838264159858227,
                -0.010392529889941216
            ],
            "scale" : [
                0.002514385152608156,
                0.0025143849197775126,
                0.002514385152608156
            ],
            "translation" : [
                -1.491992473602295,
                -0.052282437682151794,
                0.37777090072631836
            ]
        },
        {
            "mesh" : 3,
            "name" : "guitar_back",
            "rotation" : [
                0.7124312520027161,
                0.7015284895896912,
                -0.013838264159858227,
                -0.010392529889941216
            ],
            "scale" : [
                0.002514385152608156,
                0.0025143849197775126,
                0.002514385152608156
            ],
            "translation" : [
                -1.491992473602295,
                -0.052282437682151794,
                0.37777090072631836
            ]
        },
        {
            "mesh" : 4,
            "name" : "guitar_cylinder",
            "rotation" : [
                0.7124312520027161,
                0.7015284895896912,
                -0.013838264159858227,
                -0.010392529889941216
            ],
            "scale" : [
                0.002514385152608156,
                0.0025143849197775126,
                0.002514385152608156
            ],
            "translation" : [
                -1.491992473602295,
                -0.052282437682151794,
                0.37777090072631836
            ]
        },
        {
            "mesh" : 5,
            "name" : "guitar_line",
            "rotation" : [
                0.7124312520027161,
                0.7015284895896912,
                -0.013838264159858227,
                -0.010392529889941216
            ],
            "scale" : [
                0.002514385152608156,
                0.0025143849197775126,
                0.002514385152608156
            ],
            "translation" : [
                -1.491992473602295,
                -0.052282437682151794,
                0.37777090072631836
            ]
        },
        {
            "mesh" : 6,
            "name" : "guitar_bar",
            "rotation" : [
                0.7124312520027161,
                0.7015284895896912,
                -0.013838264159858227,
                -0.010392529889941216
            ],
            "scale" : [
                0.002514385152608156,
                0.0025143849197775126,
                0.002514385152608156
            ],
            "translation" : [
                -1.491992473602295,
                -0.052282437682151794,
                0.37777090072631836
            ]
        },
        {
            "mesh" : 7,
            "name" : "guitar_face2",
            "rotation" : [
                0.7124312520027161,
                0.7015284895896912,
                -0.013838264159858227,
                -0.010392529889941216
            ],
            "scale" : [
                0.002514385152608156,
                0.0025143849197775126,
                0.002514385152608156
            ],
            "translation" : [
                -1.491992473602295,
                -0.052282437682151794,
                0.37777090072631836
            ]
        },
        {
            "mesh" : 8,
            "name" : "gutar_center",
            "rotation" : [
                0.7124312520027161,
                0.7015284895896912,
                -0.013838264159858227,
                -0.010392529889941216
            ],
            "scale" : [
                0.002514385152608156,
                0.0025143849197775126,
                0.002514385152608156
            ],
            "translation" : [
                -1.491992473602295,
                -0.052282437682151794,
                0.37777090072631836
            ]
        }
    ],
    "materials" : [
        {
            "doubleSided" : true,
            "name" : "Guitar",
            "pbrMetallicRoughness" : {
                "baseColorFactor" : [
                    1,
                    0.497236967086792,
                    0.029054079204797745,
                    1
                ],
                "metallicFactor" : 0,
                "roughnessFactor" : 0.690034806728363
            }
        },
        {
            "alphaMode" : "BLEND",
            "doubleSided" : true,
            "name" : "blinn1SG",
            "pbrMetallicRoughness" : {
                "baseColorFactor" : [
                    0,
                    0,
                    0,
                    1
                ],
                "metallicFactor" : 0,
                "roughnessFactor" : 0
            }
        },
        {
            "doubleSided" : true,
            "name" : "SideBrown",
            "pbrMetallicRoughness" : {
                "baseColorFactor" : [
                    0.15487061440944672,
                    0.06001776456832886,
                    0.0068793329410254955,
                    1
                ],
                "metallicFactor" : 0,
                "roughnessFactor" : 0.690034806728363
            }
        },
        {
            "alphaMode" : "BLEND",
            "doubleSided" : true,
            "name" : "blinn1SG.001",
            "pbrMetallicRoughness" : {
                "baseColorFactor" : [
                    0,
                    0,
                    0,
                    1
                ],
                "metallicFactor" : 0,
                "roughnessFactor" : 0
            }
        }
    ],
    "meshes" : [
        {
            "name" : "10367_AcousticGuitar_v01",
            "primitives" : [
                {
                    "attributes" : {
                        "POSITION" : 0
                    },
                    "indices" : 1,
                    "material" : 0
                }
            ]
        },
        {
            "name" : "10367_AcousticGuitar_v01.001",
            "primitives" : [
                {
                    "attributes" : {
                        "POSITION" : 2
                    },
                    "indices" : 3,
                    "material" : 1
                }
            ]
        },
        {
            "name" : "10367_AcousticGuitar_v01.006",
            "primitives" : [
                {
                    "attributes" : {
                        "POSITION" : 4
                    },
                    "indices" : 5,
                    "material" : 1
                }
            ]
        },
        {
            "name" : "10367_AcousticGuitar_v01.004",
            "primitives" : [
                {
                    "attributes" : {
                        "POSITION" : 6
                    },
                    "indices" : 7,
                    "material" : 1
                }
            ]
        },
        {
            "name" : "10367_AcousticGuitar_v01.011",
            "primitives" : [
                {
                    "attributes" : {
                        "POSITION" : 8
                    },
                    "indices" : 9,
                    "material" : 0
                }
            ]
        },
        {
            "name" : "10367_AcousticGuitar_v01.020",
            "primitives" : [
                {
                    "attributes" : {
                        "POSITION" : 10
                    },
                    "indices" : 11,
                    "material" : 1
                }
            ]
        },
        {
            "name" : "10367_AcousticGuitar_v01.023",
            "primitives" : [
                {
                    "attributes" : {
                        "POSITION" : 12
                    },
                    "indices" : 13,
                    "material" : 0
                }
            ]
        },
        {
            "name" : "10367_AcousticGuitar_v01.028",
            "primitives" : [
                {
                    "attributes" : {
                        "POSITION" : 14
                    },
                    "indices" : 15,
                    "material" : 2
                }
            ]
        },
        {
            "name" : "10367_AcousticGuitar_v01.032",
            "primitives" : [
                {
                    "attributes" : {
                        "POSITION" : 16
                    },
                    "indices" : 17,
                    "material" : 1
                },
                {
                    "attributes" : {
                        "POSITION" : 18
                    },
                    "indices" : 19,
                    "material" : 3
                }
            ]
        }
    ],
    "accessors" : [
        {
            "bufferView" : 0,
            "componentType" : 5126,
            "count" : 867,
            "max" : [
                222.73207092285156,
                595.9279174804688,
                8.63759994506836
            ],
            "min" : [
                -218.6521759033203,
                15.986498832702637,
                -3.978300094604492
            ],
            "type" : "VEC3"
        },
        {
            "bufferView" : 1,
            "componentType" : 5123,
            "count" : 3996,
            "type" : "SCALAR"
        },
        {
            "bufferView" : 2,
            "componentType" : 5126,
            "count" : 1510,
            "max" : [
                62.58620071411133,
                1240.899658203125,
                58.20989990234375
            ],
            "min" : [
                -68.41909790039062,
                1105.14111328125,
                5.024799823760986
            ],
            "type" : "VEC3"
        },
        {
            "bufferView" : 3,
            "componentType" : 5123,
            "count" : 8694,
            "type" : "SCALAR"
        },
        {
            "bufferView" : 4,
            "componentType" : 5126,
            "count" : 1485,
            "max" : [
                222.7321014404297,
                600.3634643554688,
                99.36129760742188
            ],
            "min" : [
                -218.65220642089844,
                15.986498832702637,
                3.5839996337890625
            ],
            "type" : "VEC3"
        },
        {
            "bufferView" : 5,
            "componentType" : 5123,
            "count" : 6870,
            "type" : "SCALAR"
        },
        {
            "bufferView" : 6,
            "componentType" : 5126,
            "count" : 561,
            "max" : [
                222.7321014404297,
                585.9849853515625,
                99.49078369140625
            ],
            "min" : [
                -218.65220642089844,
                15.986499786376953,
                98.73628234863281
            ],
            "type" : "VEC3"
        },
        {
            "bufferView" : 7,
            "componentType" : 5123,
            "count" : 2880,
            "type" : "SCALAR"
        },
        {
            "bufferView" : 8,
            "componentType" : 5126,
            "count" : 2550,
            "max" : [
                26.725393295288086,
                1087.9471435546875,
                -1.5561000108718872
            ],
            "min" : [
                -33.360801696777344,
                446.78717041015625,
                -9.25986099243164
            ],
            "type" : "VEC3"
        },
        {
            "bufferView" : 9,
            "componentType" : 5123,
            "count" : 11784,
            "type" : "SCALAR"
        },
        {
            "bufferView" : 10,
            "componentType" : 5126,
            "count" : 1552,
            "max" : [
                23.370595932006836,
                1229.7025146484375,
                34.6454963684082
            ],
            "min" : [
                -36.91859436035156,
                214.05540466308594,
                -9.857030868530273
            ],
            "type" : "VEC3"
        },
        {
            "bufferView" : 11,
            "componentType" : 5123,
            "count" : 6096,
            "type" : "SCALAR"
        },
        {
            "bufferView" : 12,
            "componentType" : 5126,
            "count" : 4480,
            "max" : [
                43.40509796142578,
                1255.149169921875,
                85.32564544677734
            ],
            "min" : [
                -54.315792083740234,
                468.5824890136719,
                -9.259845733642578
            ],
            "type" : "VEC3"
        },
        {
            "bufferView" : 13,
            "componentType" : 5123,
            "count" : 22710,
            "type" : "SCALAR"
        },
        {
            "bufferView" : 14,
            "componentType" : 5126,
            "count" : 1823,
            "max" : [
                81.41458892822266,
                490.1203918457031,
                6.551854133605957
            ],
            "min" : [
                -85.68608856201172,
                314.434814453125,
                -6.345045566558838
            ],
            "type" : "VEC3"
        },
        {
            "bufferView" : 15,
            "componentType" : 5123,
            "count" : 8826,
            "type" : "SCALAR"
        },
        {
            "bufferView" : 16,
            "componentType" : 5126,
            "count" : 4424,
            "max" : [
                78.25090026855469,
                243.36959838867188,
                0.5566847324371338
            ],
            "min" : [
                -84.53379821777344,
                200.5821075439453,
                -10.683830261230469
            ],
            "type" : "VEC3"
        },
        {
            "bufferView" : 17,
            "componentType" : 5123,
            "count" : 25674,
            "type" : "SCALAR"
        },
        {
            "bufferView" : 18,
            "componentType" : 5126,
            "count" : 54,
            "max" : [
                38.480899810791016,
                243.36959838867188,
                0.5565847158432007
            ],
            "min" : [
                -44.76390075683594,
                200.5821075439453,
                -5.879915237426758
            ],
            "type" : "VEC3"
        },
        {
            "bufferView" : 19,
            "componentType" : 5123,
            "count" : 198,
            "type" : "SCALAR"
        }
    ],
    "bufferViews" : [
        {
            "buffer" : 0,
            "byteLength" : 10404,
            "byteOffset" : 0
        },
        {
            "buffer" : 0,
            "byteLength" : 7992,
            "byteOffset" : 10404
        },
        {
            "buffer" : 0,
            "byteLength" : 18120,
            "byteOffset" : 18396
        },
        {
            "buffer" : 0,
            "byteLength" : 17388,
            "byteOffset" : 36516
        },
        {
            "buffer" : 0,
            "byteLength" : 17820,
            "byteOffset" : 53904
        },
        {
            "buffer" : 0,
            "byteLength" : 13740,
            "byteOffset" : 71724
        },
        {
            "buffer" : 0,
            "byteLength" : 6732,
            "byteOffset" : 85464
        },
        {
            "buffer" : 0,
            "byteLength" : 5760,
            "byteOffset" : 92196
        },
        {
            "buffer" : 0,
            "byteLength" : 30600,
            "byteOffset" : 97956
        },
        {
            "buffer" : 0,
            "byteLength" : 23568,
            "byteOffset" : 128556
        },
        {
            "buffer" : 0,
            "byteLength" : 18624,
            "byteOffset" : 152124
        },
        {
            "buffer" : 0,
            "byteLength" : 12192,
            "byteOffset" : 170748
        },
        {
            "buffer" : 0,
            "byteLength" : 53760,
            "byteOffset" : 182940
        },
        {
            "buffer" : 0,
            "byteLength" : 45420,
            "byteOffset" : 236700
        },
        {
            "buffer" : 0,
            "byteLength" : 21876,
            "byteOffset" : 282120
        },
        {
            "buffer" : 0,
            "byteLength" : 17652,
            "byteOffset" : 303996
        },
        {
            "buffer" : 0,
            "byteLength" : 53088,
            "byteOffset" : 321648
        },
        {
            "buffer" : 0,
            "byteLength" : 51348,
            "byteOffset" : 374736
        },
        {
            "buffer" : 0,
            "byteLength" : 648,
            "byteOffset" : 426084
        },
        {
            "buffer" : 0,
            "byteLength" : 396,
            "byteOffset" : 426732
        }
    ],
    "buffers" : [
        {
            "byteLength" : 427128,
            "uri" : "data:application/octet-stream;base64,"
        }
    ]
}
