{
    "asset" : {
        "generator" : "Khronos glTF Blender I/O v1.7.33",
        "version" : "2.0"
    },
    "scene" : 0,
    "scenes" : [
        {
            "name" : "Scene",
            "nodes" : [
                0,
                1,
                2,
                3,
                4,
                5,
                6,
                7,
                8,
                9,
                10
            ]
        }
    ],
    "nodes" : [
        {
            "mesh" : 0,
            "name" : "guitar_bar_cylinder",
            "rotation" : [
                0.7071068286895752,
                0,
                0,
                0.7071067094802856
            ],
            "scale" : [
                0.011312277987599373,
                0.011312277987599373,
                0.1874559223651886
            ],
            "translation" : [
                -0.4796954095363617,
                0.0010785814374685287,
                0.006729140877723694
            ]
        },
        {
            "mesh" : 1,
            "name" : "guitar_center_node",
            "rotation" : [
                -1,
                0,
                0,
                7.549790126404332e-08
            ],
            "scale" : [
                0.014711902476847172,
                0.014711902476847172,
                0.014711902476847172
            ],
            "translation" : [
                -1.2686355113983154,
                0.0631583034992218,
                0.029565295204520226
            ]
        },
        {
            "mesh" : 2,
            "name" : "guitar_bar_node",
            "rotation" : [
                -1,
                0,
                0,
                7.549790126404332e-08
            ],
            "scale" : [
                0.016436045989394188,
                0.016436045989394188,
                0.004098203033208847
            ],
            "translation" : [
                -0.018181167542934418,
                0.061742834746837616,
                0.010704642161726952
            ]
        },
        {
            "mesh" : 3,
            "name" : "guitar_line",
            "rotation" : [
                0.7071068286895752,
                0,
                0,
                0.7071067094802856
            ],
            "scale" : [
                0.002224569208920002,
                0.002224569208920002,
                0.002224569208920002
            ],
            "translation" : [
                -1.252681851387024,
                -0.09095294773578644,
                0.039609722793102264
            ]
        },
        {
            "mesh" : 4,
            "name" : "guitar_head_node",
            "rotation" : [
                -1,
                0,
                0,
                7.549790126404332e-08
            ],
            "scale" : [
                0.030817074701189995,
                0.02043989486992359,
                0.006135682575404644
            ],
            "translation" : [
                1.6126304864883423,
                0.04811412841081619,
                -0.0021127969957888126
            ]
        },
        {
            "mesh" : 5,
            "name" : "guitar_back",
            "rotation" : [
                0.7071068286895752,
                0,
                0,
                0.7071067094802856
            ],
            "scale" : [
                1.7565736770629883,
                0.032552000135183334,
                1.3702706098556519
            ],
            "translation" : [
                -1.1078155040740967,
                0.00014314427971839905,
                -0.4096028506755829
            ]
        },
        {
            "mesh" : 6,
            "name" : "guitar_bar",
            "rotation" : [
                0.7071068286895752,
                0,
                0,
                0.7071067094802856
            ],
            "scale" : [
                1.7933727502822876,
                0.03977905958890915,
                0.1973055899143219
            ],
            "translation" : [
                0.36613816022872925,
                0.0010785814374685287,
                -0.00839541107416153
            ]
        },
        {
            "mesh" : 7,
            "name" : "guitar_center",
            "rotation" : [
                0.7071068286895752,
                0,
                0,
                0.7071067094802856
            ],
            "scale" : [
                0.12240086495876312,
                0.06584788113832474,
                0.29773184657096863
            ],
            "translation" : [
                -1.244773507118225,
                0.0010785814374685287,
                0.015377195551991463
            ]
        },
        {
            "mesh" : 8,
            "name" : "guitar_face",
            "rotation" : [
                0.7071068286895752,
                0,
                0,
                0.7071067094802856
            ],
            "scale" : [
                1.7565736770629883,
                0.032552000135183334,
                1.3702706098556519
            ],
            "translation" : [
                -1.060660481452942,
                0.00014314427971839905,
                -0.023857206106185913
            ]
        },
        {
            "mesh" : 9,
            "name" : "guitar_head",
            "rotation" : [
                0.7071068286895752,
                0,
                0,
                0.7071067094802856
            ],
            "scale" : [
                0.6561692357063293,
                0.07247302681207657,
                0.5075124502182007
            ],
            "translation" : [
                1.4682432413101196,
                0.0010785814374685287,
                -0.007400963455438614
            ]
        },
        {
            "mesh" : 10,
            "name" : "guitar_wrap",
            "rotation" : [
                0.7071068286895752,
                0,
                0,
                0.7071067094802856
            ],
            "scale" : [
                0.01939886435866356,
                0.43939968943595886,
                0.028320632874965668
            ],
            "translation" : [
                -1.9792994260787964,
                0.00014314427971839905,
                -0.2184484601020813
            ]
        }
    ],
    "meshes" : [
        {
            "name" : "\u7f51\u683c.064",
            "primitives" : [
                {
                    "attributes" : {
                        "POSITION" : 0
                    },
                    "indices" : 1
                }
            ]
        },
        {
            "name" : "\u7f51\u683c.086",
            "primitives" : [
                {
                    "attributes" : {
                        "POSITION" : 2
                    },
                    "indices" : 3
                }
            ]
        },
        {
            "name" : "\u7f51\u683c.096",
            "primitives" : [
                {
                    "attributes" : {
                        "POSITION" : 4
                    },
                    "indices" : 5
                }
            ]
        },
        {
            "name" : "\u7f51\u683c.107",
            "primitives" : [
                {
                    "attributes" : {
                        "POSITION" : 6
                    },
                    "indices" : 7
                }
            ]
        },
        {
            "name" : "\u7f51\u683c.113",
            "primitives" : [
                {
                    "attributes" : {
                        "POSITION" : 8
                    },
                    "indices" : 9
                }
            ]
        },
        {
            "name" : "\u7f51\u683c.120",
            "primitives" : [
                {
                    "attributes" : {
                        "POSITION" : 10
                    },
                    "indices" : 11
                }
            ]
        },
        {
            "name" : "\u7f51\u683c.121",
            "primitives" : [
                {
                    "attributes" : {
                        "POSITION" : 12
                    },
                    "indices" : 13
                }
            ]
        },
        {
            "name" : "\u7f51\u683c",
            "primitives" : [
                {
                    "attributes" : {
                        "POSITION" : 14
                    },
                    "indices" : 15
                }
            ]
        },
        {
            "name" : "\u7f51\u683c.122",
            "primitives" : [
                {
                    "attributes" : {
                        "POSITION" : 16
                    },
                    "indices" : 17
                }
            ]
        },
        {
            "name" : "\u7f51\u683c.123",
            "primitives" : [
                {
                    "attributes" : {
                        "POSITION" : 18
                    },
                    "indices" : 19
                }
            ]
        },
        {
            "name" : "\u7f51\u683c.124",
            "primitives" : [
                {
                    "attributes" : {
                        "POSITION" : 20
                    },
                    "indices" : 21
                }
            ]
        }
    ],
    "accessors" : [
        {
            "bufferView" : 0,
            "componentType" : 5126,
            "count" : 6664,
            "max" : [
                141.11805725097656,
                3.085125207901001,
                0.6448031067848206
            ],
            "min" : [
                -70.0042953491211,
                -0.5,
                -0.6939295530319214
            ],
            "type" : "VEC3"
        },
        {
            "bufferView" : 1,
            "componentType" : 5123,
            "count" : 39696,
            "type" : "SCALAR"
        },
        {
            "bufferView" : 2,
            "componentType" : 5126,
            "count" : 9372,
            "max" : [
                1.4258403778076172,
                11.43185043334961,
                0.9989751577377319
            ],
            "min" : [
                -1.0863553285598755,
                -3.6413474082946777,
                -0.9989761114120483
            ],
            "type" : "VEC3"
        },
        {
            "bufferView" : 3,
            "componentType" : 5123,
            "count" : 56160,
            "type" : "SCALAR"
        },
        {
            "bufferView" : 4,
            "componentType" : 5126,
            "count" : 2000,
            "max" : [
                49.96057891845703,
                8.326455116271973,
                1
            ],
            "min" : [
                -19.241788864135742,
                -0.9985418915748596,
                -1.0000046491622925
            ],
            "type" : "VEC3"
        },
        {
            "bufferView" : 5,
            "componentType" : 5123,
            "count" : 11904,
            "type" : "SCALAR"
        },
        {
            "bufferView" : 6,
            "componentType" : 5126,
            "count" : 2556,
            "max" : [
                1317.30615234375,
                1.4943504333496094,
                0.4999961853027344
            ],
            "min" : [
                -8.296366691589355,
                -0.637603759765625,
                -87.29195404052734
            ],
            "type" : "VEC3"
        },
        {
            "bufferView" : 7,
            "componentType" : 5123,
            "count" : 15264,
            "type" : "SCALAR"
        },
        {
            "bufferView" : 8,
            "componentType" : 5126,
            "count" : 6072,
            "max" : [
                3.639810562133789,
                6.042061805725098,
                0.8119210004806519
            ],
            "min" : [
                -12.577237129211426,
                -5.792325496673584,
                -11.604883193969727
            ],
            "type" : "VEC3"
        },
        {
            "bufferView" : 9,
            "componentType" : 5123,
            "count" : 36288,
            "type" : "SCALAR"
        },
        {
            "bufferView" : 10,
            "componentType" : 5126,
            "count" : 5506,
            "max" : [
                0.5055491924285889,
                0.5,
                0.4675922691822052
            ],
            "min" : [
                -0.4951801896095276,
                -0.5,
                -0.48649656772613525
            ],
            "type" : "VEC3"
        },
        {
            "bufferView" : 11,
            "componentType" : 5123,
            "count" : 33024,
            "type" : "SCALAR"
        },
        {
            "bufferView" : 12,
            "componentType" : 5126,
            "count" : 266,
            "max" : [
                0.4400976896286011,
                0.5,
                0.49997228384017944
            ],
            "min" : [
                -0.5,
                -0.5,
                -0.49997228384017944
            ],
            "type" : "VEC3"
        },
        {
            "bufferView" : 13,
            "componentType" : 5123,
            "count" : 1584,
            "type" : "SCALAR"
        },
        {
            "bufferView" : 14,
            "componentType" : 5126,
            "count" : 810,
            "max" : [
                0.4999990463256836,
                0.2651252746582031,
                1.12577223777771
            ],
            "min" : [
                -0.5000009536743164,
                -0.5,
                -1.1562023162841797
            ],
            "type" : "VEC3"
        },
        {
            "bufferView" : 15,
            "componentType" : 5123,
            "count" : 4848,
            "type" : "SCALAR"
        },
        {
            "bufferView" : 16,
            "componentType" : 5126,
            "count" : 1812,
            "max" : [
                0.4780843257904053,
                0.5000038146972656,
                0.4700090289115906
            ],
            "min" : [
                -0.5200070142745972,
                -2.66878342628479,
                -0.4866601228713989
            ],
            "type" : "VEC3"
        },
        {
            "bufferView" : 17,
            "componentType" : 5123,
            "count" : 10272,
            "type" : "SCALAR"
        },
        {
            "bufferView" : 18,
            "componentType" : 5126,
            "count" : 1658,
            "max" : [
                0.5000000596046448,
                0.5,
                0.44743257761001587
            ],
            "min" : [
                -0.5,
                -0.5,
                -0.2588159143924713
            ],
            "type" : "VEC3"
        },
        {
            "bufferView" : 19,
            "componentType" : 5123,
            "count" : 9936,
            "type" : "SCALAR"
        },
        {
            "bufferView" : 20,
            "componentType" : 5126,
            "count" : 946,
            "max" : [
                91.15168762207031,
                0.5041167736053467,
                23.08599853515625
            ],
            "min" : [
                -0.4999847412109375,
                -0.5015751123428345,
                -24.099645614624023
            ],
            "type" : "VEC3"
        },
        {
            "bufferView" : 21,
            "componentType" : 5123,
            "count" : 5664,
            "type" : "SCALAR"
        }
    ],
    "bufferViews" : [
        {
            "buffer" : 0,
            "byteLength" : 79968,
            "byteOffset" : 0
        },
        {
            "buffer" : 0,
            "byteLength" : 79392,
            "byteOffset" : 79968
        },
        {
            "buffer" : 0,
            "byteLength" : 112464,
            "byteOffset" : 159360
        },
        {
            "buffer" : 0,
            "byteLength" : 112320,
            "byteOffset" : 271824
        },
        {
            "buffer" : 0,
            "byteLength" : 24000,
            "byteOffset" : 384144
        },
        {
            "buffer" : 0,
            "byteLength" : 23808,
            "byteOffset" : 408144
        },
        {
            "buffer" : 0,
            "byteLength" : 30672,
            "byteOffset" : 431952
        },
        {
            "buffer" : 0,
            "byteLength" : 30528,
            "byteOffset" : 462624
        },
        {
            "buffer" : 0,
            "byteLength" : 72864,
            "byteOffset" : 493152
        },
        {
            "buffer" : 0,
            "byteLength" : 72576,
            "byteOffset" : 566016
        },
        {
            "buffer" : 0,
            "byteLength" : 66072,
            "byteOffset" : 638592
        },
        {
            "buffer" : 0,
            "byteLength" : 66048,
            "byteOffset" : 704664
        },
        {
            "buffer" : 0,
            "byteLength" : 3192,
            "byteOffset" : 770712
        },
        {
            "buffer" : 0,
            "byteLength" : 3168,
            "byteOffset" : 773904
        },
        {
            "buffer" : 0,
            "byteLength" : 9720,
            "byteOffset" : 777072
        },
        {
            "buffer" : 0,
            "byteLength" : 9696,
            "byteOffset" : 786792
        },
        {
            "buffer" : 0,
            "byteLength" : 21744,
            "byteOffset" : 796488
        },
        {
            "buffer" : 0,
            "byteLength" : 20544,
            "byteOffset" : 818232
        },
        {
            "buffer" : 0,
            "byteLength" : 19896,
            "byteOffset" : 838776
        },
        {
            "buffer" : 0,
            "byteLength" : 19872,
            "byteOffset" : 858672
        },
        {
            "buffer" : 0,
            "byteLength" : 11352,
            "byteOffset" : 878544
        },
        {
            "buffer" : 0,
            "byteLength" : 11328,
            "byteOffset" : 889896
        }
    ],
    "buffers" : [
        {
            "byteLength" : 901224,
            "uri" : "model_design_guitar.bin"
        }
    ]
}
