{
    "asset" : {
        "generator" : "Khronos glTF Blender I/O v1.7.33",
        "version" : "2.0"
    },
    "scene" : 0,
    "scenes" : [
        {
            "name" : "Scene",
            "nodes" : [
                0,
                1,
                2,
                3,
                4,
                5,
                6,
                7,
                8,
                9,
                10
            ]
        }
    ],
    "nodes" : [
        {
            "mesh" : 0,
            "name" : "guitar_back",
            "rotation" : [
                0.706828236579895,
                0.01984710432589054,
                0.019847100600600243,
                0.7068281173706055
            ],
            "scale" : [
                2.339217185974121,
                0.04334927722811699,
                1.824779987335205
            ],
            "translation" : [
                -1.2418535947799683,
                0.5804483294487,
                -0.29598385095596313
            ]
        },
        {
            "mesh" : 1,
            "name" : "guitar_bar",
            "rotation" : [
                0.706828236579895,
                0.01984710432589054,
                0.019847100600600243,
                0.7068281173706055
            ],
            "scale" : [
                2.3882222175598145,
                0.05297350138425827,
                0.262750506401062
            ],
            "translation" : [
                0.7178375720977783,
                0.6918355822563171,
                0.2383013665676117
            ]
        },
        {
            "mesh" : 2,
            "name" : "guitar_bar_cylinder",
            "rotation" : [
                0.706828236579895,
                0.01984710432589054,
                0.019847100600600243,
                0.7068281173706055
            ],
            "scale" : [
                0.015064483508467674,
                0.015064481645822525,
                0.2496337741613388
            ],
            "translation" : [
                -0.40677836537361145,
                0.6286293268203735,
                0.25844264030456543
            ]
        },
        {
            "mesh" : 3,
            "name" : "guitar_bar_node",
            "rotation" : [
                -0.9996060132980347,
                -0.028068041428923607,
                0,
                7.54681579451244e-08
            ],
            "scale" : [
                0.021887773647904396,
                0.021887773647904396,
                0.005457548890262842
            ],
            "translation" : [
                0.20231539011001587,
                0.7437756061553955,
                0.2637367844581604
            ]
        },
        {
            "mesh" : 4,
            "name" : "guitar_center",
            "rotation" : [
                0.706828236579895,
                0.01984710432589054,
                0.019847100600600243,
                0.7068281173706055
            ],
            "scale" : [
                0.16300038993358612,
                0.08768917620182037,
                0.3964874744415283
            ],
            "translation" : [
                -1.4240223169326782,
                0.5714576840400696,
                0.2699591815471649
            ]
        },
        {
            "mesh" : 5,
            "name" : "guitar_center_node",
            "rotation" : [
                -0.9996060132980347,
                -0.028068041428923607,
                0,
                7.54681579451244e-08
            ],
            "scale" : [
                0.019591739401221275,
                0.019591739401221275,
                0.019591739401221275
            ],
            "translation" : [
                -1.4603880643844604,
                0.6522154211997986,
                0.28885337710380554
            ]
        },
        {
            "mesh" : 6,
            "name" : "guitar_face",
            "rotation" : [
                0.706828236579895,
                0.01984710432589054,
                0.019847100600600243,
                0.7068281173706055
            ],
            "scale" : [
                2.339217185974121,
                0.04334927722811699,
                1.824779987335205
            ],
            "translation" : [
                -1.1791566610336304,
                0.5839720368385315,
                0.21771100163459778
            ]
        },
        {
            "mesh" : 7,
            "name" : "guitar_head",
            "rotation" : [
                0.706828236579895,
                0.01984710432589054,
                0.019847100600600243,
                0.7068281173706055
            ],
            "scale" : [
                0.8738160729408264,
                0.0965118333697319,
                0.6758508682250977
            ],
            "translation" : [
                2.1831908226013184,
                0.7741921544075012,
                0.23962566256523132
            ]
        },
        {
            "mesh" : 8,
            "name" : "guitar_head_node",
            "rotation" : [
                -0.9996060132980347,
                -0.028068041428923607,
                0,
                7.54681579451244e-08
            ],
            "scale" : [
                0.041038889437913895,
                0.02721966803073883,
                0.008170846849679947
            ],
            "translation" : [
                2.371652364730835,
                0.8475199341773987,
                0.24666789174079895
            ]
        },
        {
            "mesh" : 9,
            "name" : "guitar_line",
            "rotation" : [
                0.706828236579895,
                0.01984710432589054,
                0.019847100600600243,
                0.7068281173706055
            ],
            "scale" : [
                0.0029624435119330883,
                0.0029624432791024446,
                0.0029624435119330883
            ],
            "translation" : [
                -1.4276599884033203,
                0.4485020637512207,
                0.30222946405410767
            ]
        },
        {
            "mesh" : 10,
            "name" : "guitar_wrap",
            "rotation" : [
                0.706828236579895,
                0.01984710432589054,
                0.019847100600600243,
                0.7068281173706055
            ],
            "scale" : [
                0.025833334773778915,
                0.5851455926895142,
                0.0377143919467926
            ],
            "translation" : [
                -2.4005744457244873,
                0.5153253078460693,
                -0.04142485558986664
            ]
        }
    ],
    "materials" : [
        {
            "doubleSided" : true,
            "name" : "SideBrown",
            "pbrMetallicRoughness" : {
                "baseColorFactor" : [
                    0.15487061440944672,
                    0.06001776456832886,
                    0.0068793329410254955,
                    1
                ],
                "metallicFactor" : 0,
                "roughnessFactor" : 0.690034806728363
            }
        },
        {
            "alphaMode" : "BLEND",
            "doubleSided" : true,
            "name" : "blinn1SG.002",
            "pbrMetallicRoughness" : {
                "baseColorFactor" : [
                    0,
                    0,
                    0,
                    1
                ],
                "metallicFactor" : 0,
                "roughnessFactor" : 0
            }
        },
        {
            "doubleSided" : true,
            "name" : "Guitar",
            "pbrMetallicRoughness" : {
                "baseColorFactor" : [
                    1,
                    0.497236967086792,
                    0.029054079204797745,
                    1
                ],
                "metallicFactor" : 0,
                "roughnessFactor" : 0.690034806728363
            }
        }
    ],
    "meshes" : [
        {
            "name" : "\u7f51\u683c.120",
            "primitives" : [
                {
                    "attributes" : {
                        "POSITION" : 0
                    },
                    "indices" : 1,
                    "material" : 0
                }
            ]
        },
        {
            "name" : "\u7f51\u683c.121",
            "primitives" : [
                {
                    "attributes" : {
                        "POSITION" : 2
                    },
                    "indices" : 3,
                    "material" : 1
                }
            ]
        },
        {
            "name" : "\u7f51\u683c.064",
            "primitives" : [
                {
                    "attributes" : {
                        "POSITION" : 4
                    },
                    "indices" : 5
                }
            ]
        },
        {
            "name" : "\u7f51\u683c.096",
            "primitives" : [
                {
                    "attributes" : {
                        "POSITION" : 6
                    },
                    "indices" : 7,
                    "material" : 1
                }
            ]
        },
        {
            "name" : "\u7f51\u683c",
            "primitives" : [
                {
                    "attributes" : {
                        "POSITION" : 8
                    },
                    "indices" : 9,
                    "material" : 0
                }
            ]
        },
        {
            "name" : "\u7f51\u683c.086",
            "primitives" : [
                {
                    "attributes" : {
                        "POSITION" : 10
                    },
                    "indices" : 11
                }
            ]
        },
        {
            "name" : "\u7f51\u683c.122",
            "primitives" : [
                {
                    "attributes" : {
                        "POSITION" : 12
                    },
                    "indices" : 13,
                    "material" : 2
                }
            ]
        },
        {
            "name" : "\u7f51\u683c.123",
            "primitives" : [
                {
                    "attributes" : {
                        "POSITION" : 14
                    },
                    "indices" : 15,
                    "material" : 2
                }
            ]
        },
        {
            "name" : "\u7f51\u683c.113",
            "primitives" : [
                {
                    "attributes" : {
                        "POSITION" : 16
                    },
                    "indices" : 17
                }
            ]
        },
        {
            "name" : "\u7f51\u683c.107",
            "primitives" : [
                {
                    "attributes" : {
                        "POSITION" : 18
                    },
                    "indices" : 19
                }
            ]
        },
        {
            "name" : "\u7f51\u683c.124",
            "primitives" : [
                {
                    "attributes" : {
                        "POSITION" : 20
                    },
                    "indices" : 21,
                    "material" : 0
                }
            ]
        }
    ],
    "accessors" : [
        {
            "bufferView" : 0,
            "componentType" : 5126,
            "count" : 5506,
            "max" : [
                0.5055491924285889,
                0.5,
                0.4675922691822052
            ],
            "min" : [
                -0.4951801896095276,
                -0.5,
                -0.48649656772613525
            ],
            "type" : "VEC3"
        },
        {
            "bufferView" : 1,
            "componentType" : 5123,
            "count" : 33024,
            "type" : "SCALAR"
        },
        {
            "bufferView" : 2,
            "componentType" : 5126,
            "count" : 266,
            "max" : [
                0.4400976896286011,
                0.5,
                0.49997228384017944
            ],
            "min" : [
                -0.5,
                -0.5,
                -0.49997228384017944
            ],
            "type" : "VEC3"
        },
        {
            "bufferView" : 3,
            "componentType" : 5123,
            "count" : 1584,
            "type" : "SCALAR"
        },
        {
            "bufferView" : 4,
            "componentType" : 5126,
            "count" : 6664,
            "max" : [
                141.11805725097656,
                3.085125207901001,
                0.6448031067848206
            ],
            "min" : [
                -70.0042953491211,
                -0.5,
                -0.6939295530319214
            ],
            "type" : "VEC3"
        },
        {
            "bufferView" : 5,
            "componentType" : 5123,
            "count" : 39696,
            "type" : "SCALAR"
        },
        {
            "bufferView" : 6,
            "componentType" : 5126,
            "count" : 2000,
            "max" : [
                49.96057891845703,
                8.326455116271973,
                1
            ],
            "min" : [
                -19.241788864135742,
                -0.9985418915748596,
                -1.0000046491622925
            ],
            "type" : "VEC3"
        },
        {
            "bufferView" : 7,
            "componentType" : 5123,
            "count" : 11904,
            "type" : "SCALAR"
        },
        {
            "bufferView" : 8,
            "componentType" : 5126,
            "count" : 810,
            "max" : [
                0.4999990463256836,
                0.2651252746582031,
                1.12577223777771
            ],
            "min" : [
                -0.5000009536743164,
                -0.5,
                -1.1562023162841797
            ],
            "type" : "VEC3"
        },
        {
            "bufferView" : 9,
            "componentType" : 5123,
            "count" : 4848,
            "type" : "SCALAR"
        },
        {
            "bufferView" : 10,
            "componentType" : 5126,
            "count" : 9372,
            "max" : [
                1.4258403778076172,
                11.43185043334961,
                0.9989751577377319
            ],
            "min" : [
                -1.0863553285598755,
                -3.6413474082946777,
                -0.9989761114120483
            ],
            "type" : "VEC3"
        },
        {
            "bufferView" : 11,
            "componentType" : 5123,
            "count" : 56160,
            "type" : "SCALAR"
        },
        {
            "bufferView" : 12,
            "componentType" : 5126,
            "count" : 1812,
            "max" : [
                0.4780843257904053,
                0.5000038146972656,
                0.4700090289115906
            ],
            "min" : [
                -0.5200070142745972,
                -2.66878342628479,
                -0.4866601228713989
            ],
            "type" : "VEC3"
        },
        {
            "bufferView" : 13,
            "componentType" : 5123,
            "count" : 10272,
            "type" : "SCALAR"
        },
        {
            "bufferView" : 14,
            "componentType" : 5126,
            "count" : 1658,
            "max" : [
                0.5000000596046448,
                0.5,
                0.44743257761001587
            ],
            "min" : [
                -0.5,
                -0.5,
                -0.2588159143924713
            ],
            "type" : "VEC3"
        },
        {
            "bufferView" : 15,
            "componentType" : 5123,
            "count" : 9936,
            "type" : "SCALAR"
        },
        {
            "bufferView" : 16,
            "componentType" : 5126,
            "count" : 6072,
            "max" : [
                3.639810562133789,
                6.042061805725098,
                0.8119210004806519
            ],
            "min" : [
                -12.577237129211426,
                -5.792325496673584,
                -11.604883193969727
            ],
            "type" : "VEC3"
        },
        {
            "bufferView" : 17,
            "componentType" : 5123,
            "count" : 36288,
            "type" : "SCALAR"
        },
        {
            "bufferView" : 18,
            "componentType" : 5126,
            "count" : 2556,
            "max" : [
                1317.30615234375,
                1.4943504333496094,
                0.4999961853027344
            ],
            "min" : [
                -8.296366691589355,
                -0.637603759765625,
                -87.29195404052734
            ],
            "type" : "VEC3"
        },
        {
            "bufferView" : 19,
            "componentType" : 5123,
            "count" : 15264,
            "type" : "SCALAR"
        },
        {
            "bufferView" : 20,
            "componentType" : 5126,
            "count" : 946,
            "max" : [
                91.15168762207031,
                0.5041167736053467,
                23.08599853515625
            ],
            "min" : [
                -0.4999847412109375,
                -0.5015751123428345,
                -24.099645614624023
            ],
            "type" : "VEC3"
        },
        {
            "bufferView" : 21,
            "componentType" : 5123,
            "count" : 5664,
            "type" : "SCALAR"
        }
    ],
    "bufferViews" : [
        {
            "buffer" : 0,
            "byteLength" : 66072,
            "byteOffset" : 0
        },
        {
            "buffer" : 0,
            "byteLength" : 66048,
            "byteOffset" : 66072
        },
        {
            "buffer" : 0,
            "byteLength" : 3192,
            "byteOffset" : 132120
        },
        {
            "buffer" : 0,
            "byteLength" : 3168,
            "byteOffset" : 135312
        },
        {
            "buffer" : 0,
            "byteLength" : 79968,
            "byteOffset" : 138480
        },
        {
            "buffer" : 0,
            "byteLength" : 79392,
            "byteOffset" : 218448
        },
        {
            "buffer" : 0,
            "byteLength" : 24000,
            "byteOffset" : 297840
        },
        {
            "buffer" : 0,
            "byteLength" : 23808,
            "byteOffset" : 321840
        },
        {
            "buffer" : 0,
            "byteLength" : 9720,
            "byteOffset" : 345648
        },
        {
            "buffer" : 0,
            "byteLength" : 9696,
            "byteOffset" : 355368
        },
        {
            "buffer" : 0,
            "byteLength" : 112464,
            "byteOffset" : 365064
        },
        {
            "buffer" : 0,
            "byteLength" : 112320,
            "byteOffset" : 477528
        },
        {
            "buffer" : 0,
            "byteLength" : 21744,
            "byteOffset" : 589848
        },
        {
            "buffer" : 0,
            "byteLength" : 20544,
            "byteOffset" : 611592
        },
        {
            "buffer" : 0,
            "byteLength" : 19896,
            "byteOffset" : 632136
        },
        {
            "buffer" : 0,
            "byteLength" : 19872,
            "byteOffset" : 652032
        },
        {
            "buffer" : 0,
            "byteLength" : 72864,
            "byteOffset" : 671904
        },
        {
            "buffer" : 0,
            "byteLength" : 72576,
            "byteOffset" : 744768
        },
        {
            "buffer" : 0,
            "byteLength" : 30672,
            "byteOffset" : 817344
        },
        {
            "buffer" : 0,
            "byteLength" : 30528,
            "byteOffset" : 848016
        },
        {
            "buffer" : 0,
            "byteLength" : 11352,
            "byteOffset" : 878544
        },
        {
            "buffer" : 0,
            "byteLength" : 11328,
            "byteOffset" : 889896
        }
    ],
    "buffers" : [
        {
            "byteLength" : 901224,
            "uri" : "data:application/octet-stream;base64,"
        }
    ]
}
