<?xml version="1.0" encoding="utf-8"?>
<!-- Generator: Adobe Illustrator 21.0.2, SVG Export Plug-In . SVG Version: 6.00 Build 0)  -->
<svg version="1.0" id="Layer_1" xmlns="http://www.w3.org/2000/svg" xmlns:xlink="http://www.w3.org/1999/xlink" x="0px" y="0px"
	 viewBox="0 0 25 25" style="enable-background:new 0 0 25 25;" xml:space="preserve">
<style type="text/css">
	.st0{fill:#5FC5F1;}
</style>
<path class="st0" d="M13.914,12.5L24.707,1.707c0.391-0.391,0.391-1.023,0-1.414s-1.023-0.391-1.414,0L12.5,11.086L1.707,0.293
	c-0.391-0.391-1.023-0.391-1.414,0s-0.391,1.023,0,1.414L11.086,12.5L0.293,23.293c-0.391,0.391-0.391,1.023,0,1.414
	C0.488,24.902,0.744,25,1,25s0.512-0.098,0.707-0.293L12.5,13.914l10.793,10.793C23.488,24.902,23.744,25,24,25
	s0.512-0.098,0.707-0.293c0.391-0.391,0.391-1.023,0-1.414L13.914,12.5z"/>
</svg>
