<?xml version="1.0" encoding="utf-8"?>
<!-- Generator: Adobe Illustrator 21.0.2, SVG Export Plug-In . SVG Version: 6.00 Build 0)  -->
<svg version="1.0" id="Layer_1" xmlns="http://www.w3.org/2000/svg" xmlns:xlink="http://www.w3.org/1999/xlink" x="0px" y="0px"
	 viewBox="0 0 37 26" style="enable-background:new 0 0 37 26;" xml:space="preserve">
<style type="text/css">
	.st0{fill:#5FC5F1;}
</style>
<g>
	<path class="st0" d="M8.244,17.54C4.334,15.854,2,13.282,2,10.662c0-2.097,1.453-4.146,4.092-5.769
		c0.47-0.289,0.614-0.9,0.323-1.365c-0.29-0.466-0.905-0.61-1.376-0.321C1.789,5.205,0,7.853,0,10.662
		c0,3.487,2.715,6.657,7.447,8.698c0.13,0.056,0.265,0.082,0.397,0.082c0.387,0,0.755-0.223,0.918-0.597
		C8.983,18.342,8.751,17.758,8.244,17.54z"/>
	<path class="st0" d="M37,10.662c0-2.808-1.789-5.456-5.036-7.454c-0.471-0.288-1.086-0.144-1.377,0.32
		c-0.291,0.466-0.146,1.078,0.322,1.366C33.547,6.517,35,8.566,35,10.662c0,4.563-6.88,8.44-15.279,8.789l3.234-2.751
		c0.42-0.357,0.469-0.983,0.108-1.398c-0.358-0.418-0.99-0.464-1.409-0.108l-5.326,4.531c-0.222,0.188-0.35,0.463-0.35,0.753
		c0,0.29,0.128,0.565,0.35,0.753l5.326,4.531c0.188,0.161,0.42,0.239,0.65,0.239c0.281,0,0.562-0.117,0.759-0.347
		c0.36-0.416,0.312-1.042-0.108-1.398l-3.312-2.818C29.461,21.101,37,16.496,37,10.662z"/>
	<path class="st0" d="M16.675,9.205c0-0.756-0.2-1.437-0.595-2.025c-0.329-0.489-0.79-0.858-1.375-1.099
		c0.373-0.285,0.668-0.626,0.879-1.019c0.268-0.499,0.404-1.038,0.404-1.601c0-0.458-0.084-0.903-0.25-1.322
		c-0.167-0.421-0.406-0.795-0.711-1.111c-0.307-0.321-0.682-0.575-1.114-0.755C13.479,0.092,12.984,0,12.441,0
		c-0.553,0-1.06,0.095-1.506,0.281c-0.443,0.187-0.824,0.437-1.131,0.744C9.498,1.332,9.262,1.694,9.101,2.104
		C8.941,2.509,8.86,2.941,8.86,3.39c0,0.249,0.081,0.467,0.241,0.646c0.164,0.185,0.395,0.279,0.682,0.279
		c0.083,0,0.168-0.007,0.254-0.019c0.103-0.014,0.204-0.048,0.302-0.102c0.11-0.058,0.204-0.156,0.282-0.294
		c0.068-0.128,0.107-0.291,0.121-0.489c0.024-0.23,0.07-0.449,0.137-0.652c0.062-0.197,0.16-0.375,0.288-0.527
		c0.124-0.147,0.286-0.267,0.48-0.354c0.198-0.089,0.441-0.134,0.723-0.134c0.497,0,0.882,0.166,1.177,0.507
		c0.303,0.351,0.449,0.794,0.449,1.352c0,0.527-0.124,0.936-0.368,1.217c-0.247,0.285-0.679,0.495-1.279,0.627
		c-0.34,0.067-0.579,0.163-0.731,0.292c-0.174,0.145-0.262,0.339-0.262,0.577c0,0.263,0.116,0.486,0.335,0.647
		c0.201,0.149,0.484,0.225,0.842,0.225c0.281,0,0.554,0.034,0.809,0.1c0.239,0.063,0.453,0.173,0.633,0.329
		c0.181,0.156,0.326,0.372,0.435,0.643c0.111,0.276,0.167,0.643,0.167,1.087c0,0.291-0.056,0.569-0.166,0.828
		c-0.109,0.258-0.265,0.486-0.463,0.679c-0.197,0.194-0.434,0.35-0.705,0.463c-0.271,0.113-0.576,0.172-0.907,0.172
		c-0.561,0-0.995-0.141-1.292-0.418c-0.312-0.289-0.544-0.646-0.689-1.063c-0.106-0.301-0.23-0.524-0.378-0.683
		C9.808,9.149,9.572,9.059,9.277,9.059c-0.252,0-0.471,0.106-0.634,0.304c-0.156,0.19-0.235,0.447-0.235,0.765
		c0,0.265,0.073,0.568,0.224,0.926c0.148,0.355,0.389,0.699,0.712,1.02c0.322,0.324,0.735,0.6,1.226,0.821
		c0.491,0.224,1.097,0.337,1.801,0.337c0.601,0,1.165-0.093,1.678-0.277c0.518-0.186,0.977-0.453,1.365-0.791
		c0.394-0.343,0.706-0.769,0.928-1.267S16.675,9.832,16.675,9.205z"/>
	<path class="st0" d="M19.549,13.127h3.346c0.893,0,1.702-0.165,2.407-0.489c0.703-0.321,1.308-0.78,1.797-1.364
		c0.485-0.578,0.859-1.277,1.113-2.081c0.252-0.798,0.38-1.688,0.38-2.647c0-0.84-0.122-1.659-0.361-2.434
		c-0.24-0.775-0.611-1.469-1.104-2.062c-0.496-0.596-1.121-1.073-1.859-1.418c-0.74-0.349-1.612-0.525-2.591-0.525h-3.128
		c-0.362,0-0.634,0.109-0.808,0.324c-0.161,0.2-0.242,0.444-0.242,0.726v10.921c0,0.282,0.081,0.527,0.242,0.728
		C18.914,13.019,19.186,13.127,19.549,13.127z M26.491,6.546c0,0.62-0.074,1.234-0.221,1.823c-0.144,0.584-0.374,1.105-0.683,1.548
		c-0.307,0.439-0.713,0.797-1.206,1.064c-0.493,0.267-1.104,0.402-1.813,0.402h-2.077V1.851h1.97c0.725,0,1.348,0.127,1.854,0.378
		c0.508,0.252,0.925,0.593,1.24,1.015c0.321,0.427,0.561,0.929,0.709,1.492C26.415,5.307,26.491,5.916,26.491,6.546z"/>
</g>
</svg>
