<?xml version="1.0" standalone="no"?><!DOCTYPE svg PUBLIC "-//W3C//DTD SVG 1.1//EN" "http://www.w3.org/Graphics/SVG/1.1/DTD/svg11.dtd"><svg t="1647845648315" class="icon" viewBox="0 0 1024 1024" version="1.1" xmlns="http://www.w3.org/2000/svg" p-id="44768" xmlns:xlink="http://www.w3.org/1999/xlink" width="200" height="200"><defs><style type="text/css"></style></defs><path d="M571.284211 754.526316l264.08421-158.989474s2.694737 0 2.694737-2.694737l2.694737-2.694737v-2.694736-2.694737-2.694737V153.6v-2.694737-2.694737-2.694737-2.694736-2.694737s0-2.694737-2.694737-2.694737H835.368421h-2.694737-2.694737L428.463158 35.031579h-2.694737-2.694737-2.694737-2.694736-2.694737-2.694737-2.694737L169.768421 202.105263s-2.694737 0-2.694737 2.694737v2.694737s0 2.694737-2.694737 2.694737v2.694737C161.684211 215.578947 161.684211 215.578947 161.684211 218.273684V652.126316l2.694736 2.694737s2.694737 0 2.694737 2.694736h5.389474L555.115789 754.526316h5.389474c2.694737 0 5.389474 0 5.389474-2.694737 2.694737 2.694737 2.694737 2.694737 5.389474 2.694737-2.694737 0 0 0 0 0zM425.768421 113.178947c10.778947 0 18.863158-8.084211 18.863158-18.863158v-16.168421L778.778947 161.684211l-223.663158 153.6-113.178947-35.031579c-2.694737-8.084211-8.084211-16.168421-18.863158-16.168421-5.389474 0-10.778947 2.694737-13.473684 5.389473l-188.631579-56.589473L404.210526 88.926316v5.389473c2.694737 10.778947 10.778947 18.863158 21.557895 18.863158zM598.231579 485.052632l-18.863158-5.389474v-134.736842L805.726316 188.631579v363.789474l-13.473684-5.389474c-10.778947-2.694737-21.557895 2.694737-24.252632 13.473684-2.694737 10.778947 2.694737 18.863158 10.778947 24.252632l-199.410526 121.263158v-185.936842l8.084211 2.694736h5.389473c8.084211 0 16.168421-5.389474 18.863158-13.473684 2.694737-10.778947-2.694737-21.557895-13.473684-24.252631zM226.357895 603.621053c-5.389474-8.084211-18.863158-10.778947-26.947369-2.694737h-2.694737V245.221053l207.494737 64.673684v37.726316c0 10.778947 8.084211 18.863158 18.863158 18.863158s18.863158-8.084211 18.863158-18.863158v-26.947369L538.947368 350.315789v118.568422l-8.08421-2.694737c-10.778947-2.694737-21.557895 2.694737-24.252632 13.473684s2.694737 21.557895 13.473685 24.252631l18.863157 5.389474v204.8l-320.673684-80.842105h2.694737c10.778947-8.084211 10.778947-21.557895 5.389474-29.642105z" p-id="44769"></path><path d="M406.905263 220.968421c0 10.778947 8.084211 18.863158 18.863158 18.863158s18.863158-8.084211 18.863158-18.863158V156.294737c0-10.778947-8.084211-18.863158-18.863158-18.863158s-18.863158 8.084211-18.863158 18.863158v64.673684zM272.168421 587.452632c5.389474 0 8.084211 0 10.778947-2.694737l59.284211-48.505263c8.084211-5.389474 10.778947-18.863158 2.694737-26.947369-5.389474-8.084211-18.863158-10.778947-26.947369-2.694737l-59.28421 48.505263c-8.084211 5.389474-10.778947 18.863158-2.694737 26.947369 5.389474 2.694737 10.778947 5.389474 16.168421 5.389474zM393.431579 493.136842c5.389474 0 8.084211 0 10.778947-2.694737l24.252632-18.863158 29.642105 8.084211h5.389474c8.084211 0 16.168421-5.389474 18.863158-13.473684 2.694737-10.778947-2.694737-21.557895-13.473684-24.252632l-24.252632-8.08421v-26.947369c0-10.778947-8.084211-18.863158-18.863158-18.863158s-18.863158 8.084211-18.863158 18.863158v32.336842l-24.252631 18.863158c-8.084211 5.389474-10.778947 18.863158-2.694737 26.947369 2.694737 5.389474 8.084211 8.084211 13.473684 8.08421zM652.126316 541.642105l64.673684 21.557895h5.389474c8.084211 0 16.168421-5.389474 18.863158-13.473684 2.694737-10.778947-2.694737-21.557895-13.473685-24.252632l-64.673684-21.557895c-10.778947-2.694737-21.557895 2.694737-24.252631 13.473685s2.694737 21.557895 13.473684 24.252631zM910.821053 441.936842c-8.084211-8.084211-18.863158-8.084211-26.947369 0s-8.084211 18.863158 0 26.947369c43.115789 43.115789 67.368421 94.315789 67.368421 145.515789 0 132.042105-148.210526 247.915789-353.010526 272.168421-10.778947 0-18.863158 10.778947-16.168421 21.557895 0 10.778947 8.084211 16.168421 18.863158 16.168421h2.694737c223.663158-26.947368 388.042105-158.989474 388.042105-309.894737-2.694737-61.978947-29.642105-121.263158-80.842105-172.463158zM512 910.821053v-2.694737-2.694737-2.694737s0-2.694737-2.694737-2.694737v-2.694737l-45.810526-59.28421c-5.389474-8.084211-18.863158-10.778947-26.947369-2.694737-8.084211 5.389474-10.778947 18.863158-2.694736 26.947368l21.557894 26.947369c-8.084211 0-16.168421-2.694737-24.252631-2.694737C220.968421 862.315789 72.757895 746.442105 72.757895 614.4c0-48.505263 18.863158-94.315789 56.589473-134.736842 5.389474-8.084211 5.389474-21.557895-2.694736-26.947369-8.084211-8.084211-18.863158-5.389474-26.947369 2.694737-43.115789 48.505263-64.673684 102.4-64.673684 158.989474 0 150.905263 161.684211 282.947368 388.042105 309.894737 10.778947 0 21.557895 2.694737 32.336842 2.694737l-24.252631 32.336842c-5.389474 8.084211-5.389474 18.863158 2.694737 26.947368 2.694737 2.694737 8.084211 5.389474 10.778947 5.389474 5.389474 0 10.778947-2.694737 16.168421-8.084211l45.810526-59.28421v-2.694737-2.694737-2.694737c2.694737-2.694737 5.389474-2.694737 5.389474-5.389473z" p-id="44770"></path></svg>