<?xml version="1.0" standalone="no"?><!DOCTYPE svg PUBLIC "-//W3C//DTD SVG 1.1//EN" "http://www.w3.org/Graphics/SVG/1.1/DTD/svg11.dtd"><svg t="1647845788865" class="icon" viewBox="0 0 1024 1024" version="1.1" xmlns="http://www.w3.org/2000/svg" p-id="48242" xmlns:xlink="http://www.w3.org/1999/xlink" width="200" height="200"><defs><style type="text/css"></style></defs><path d="M896 128v288c0 19.2-12.8 32-32 32s-32-12.8-32-32V236.8L633.6 441.6c-6.4 6.4-19.2 6.4-25.6 6.4s-19.2 0-25.6-6.4c-6.4-12.8-6.4-38.4 0-51.2L787.2 192H608c-19.2 0-32-12.8-32-32s12.8-32 32-32H896zM441.6 582.4c-12.8-6.4-38.4-12.8-51.2 0L192 787.2V608c0-19.2-12.8-32-32-32s-32 12.8-32 32V896h288c19.2 0 32-12.8 32-32s-12.8-32-32-32H236.8l204.8-198.4c6.4-12.8 6.4-38.4 0-51.2zM448 160c0-19.2-12.8-32-32-32H128v288c0 19.2 12.8 32 32 32s32-12.8 32-32V236.8l198.4 198.4c6.4 12.8 19.2 12.8 25.6 12.8s19.2 0 25.6-6.4c6.4-12.8 6.4-38.4 0-51.2L236.8 192h179.2c19.2 0 32-12.8 32-32zM864 576c-19.2 0-32 12.8-32 32v179.2L633.6 588.8c-12.8-12.8-38.4-12.8-51.2 0-6.4 12.8-6.4 32 0 44.8l198.4 198.4H608c-19.2 0-32 12.8-32 32s12.8 32 32 32H896V608c0-19.2-12.8-32-32-32z" fill="" p-id="48243"></path></svg>