<?xml version="1.0" standalone="no"?><!DOCTYPE svg PUBLIC "-//W3C//DTD SVG 1.1//EN" "http://www.w3.org/Graphics/SVG/1.1/DTD/svg11.dtd"><svg t="1647845761707" class="icon" viewBox="0 0 1024 1024" version="1.1" xmlns="http://www.w3.org/2000/svg" p-id="46723" xmlns:xlink="http://www.w3.org/1999/xlink" width="200" height="200"><defs><style type="text/css"></style></defs><path d="M448 614.4v249.6c0 19.2-12.8 32-32 32s-32-12.8-32-32v-179.2l-198.4 198.4c-6.4 12.8-19.2 12.8-25.6 12.8s-19.2 0-25.6-6.4c-12.8-12.8-12.8-32 0-44.8L339.2 640H160c-19.2 0-32-12.8-32-32s12.8-32 32-32H448V614.4zM864 448c19.2 0 32-12.8 32-32s-12.8-32-32-32h-179.2l198.4-198.4c12.8-12.8 12.8-32 0-44.8s-32-12.8-44.8 0L640 339.2V160c0-19.2-12.8-32-32-32s-32 12.8-32 32V448h288z m32 160c0-19.2-12.8-32-32-32H576v288c0 19.2 12.8 32 32 32s32-12.8 32-32v-179.2l198.4 198.4c6.4 6.4 12.8 6.4 25.6 6.4s19.2 0 25.6-6.4c12.8-12.8 12.8-32 0-44.8L684.8 640h179.2c19.2 0 32-12.8 32-32zM416 128c-19.2 0-32 12.8-32 32v179.2L185.6 134.4c-12.8-6.4-38.4-6.4-51.2 0s-6.4 38.4 0 51.2L339.2 384H160c-19.2 0-32 12.8-32 32s12.8 32 32 32H448V160c0-19.2-12.8-32-32-32z" fill="" p-id="46724"></path></svg>