<?xml version="1.0" encoding="utf-8"?>
<!-- Generator: Adobe Illustrator 15.0.0, SVG Export Plug-In . SVG Version: 6.00 Build 0)  -->
<!DOCTYPE svg PUBLIC "-//W3C//DTD SVG 1.1//EN" "http://www.w3.org/Graphics/SVG/1.1/DTD/svg11.dtd">
<svg version="1.1" id="Layer_1" xmlns="http://www.w3.org/2000/svg" xmlns:xlink="http://www.w3.org/1999/xlink" x="0px" y="0px"
	 width="350px" height="316px" viewBox="0 0 350 316" enable-background="new 0 0 350 316" xml:space="preserve">
<g>
	<g opacity="0.5">
		<g id="XMLID_288_">
			<g>
				<g>
					<path fill="#F5BFBA" d="M176.53,183.917h-1.624c-3.378,0-6.111-2.738-6.111-6.111v-22.088c0-3.377,2.733-6.116,6.111-6.116
						h1.624c3.378,0,6.111,2.739,6.111,6.116v22.088C182.642,181.179,179.908,183.917,176.53,183.917z"/>
				</g>
			</g>
		</g>
		<g id="XMLID_287_">
			<g>
				<g>
					<path fill="#F5BFBA" d="M195.471,183.917h-1.624c-3.378,0-6.116-2.738-6.116-6.111v-14.544c0-3.378,2.738-6.116,6.116-6.116
						h1.624c3.373,0,6.111,2.738,6.111,6.116v14.544C201.582,181.179,198.844,183.917,195.471,183.917z"/>
				</g>
			</g>
		</g>
		<g id="XMLID_286_">
			<g>
				<g>
					<path fill="#F5BFBA" d="M214.406,183.917h-1.624c-3.373,0-6.112-2.738-6.112-6.111v-31.923c0-3.378,2.739-6.111,6.112-6.111
						h1.624c3.377,0,6.116,2.733,6.116,6.111v31.923C220.522,181.179,217.783,183.917,214.406,183.917z"/>
				</g>
			</g>
		</g>
		<g id="XMLID_285_">
			<g>
				<g>
					<path fill="#F5BFBA" d="M233.346,183.917h-1.623c-3.373,0-6.112-2.738-6.112-6.111v-7.063c0-3.373,2.739-6.111,6.112-6.111
						h1.623c3.378,0,6.112,2.738,6.112,6.111v7.063C239.458,181.179,236.724,183.917,233.346,183.917z"/>
				</g>
			</g>
		</g>
		<g>
			<g>
				<g>
					<path fill="#F5BFBA" d="M241.783,187.636h-75.31c-0.341,0-0.619-0.317-0.619-0.696c0-0.385,0.278-0.697,0.619-0.697h75.31
						c0.336,0,0.615,0.312,0.615,0.697C242.398,187.319,242.119,187.636,241.783,187.636z"/>
				</g>
			</g>
		</g>
	</g>
	<g opacity="0.1">
		<g>
			<path fill="#06196A" d="M277.631,121.672c-5.025-5.634-13.654-6.116-19.286-1.091c-5.636,5.028-6.116,13.677-1.091,19.286
				c5.046,5.636,13.675,6.121,19.311,1.096C282.177,135.933,282.681,127.285,277.631,121.672z M273.297,137.317
				c-3.604,3.224-9.152,2.906-12.377-0.692c-3.247-3.623-2.931-9.172,0.692-12.398c3.599-3.224,9.148-2.912,12.377,0.692
				C277.213,128.541,276.92,134.09,273.297,137.317z"/>
		</g>
	</g>
	<g opacity="0.1">
		<g>
			<path fill="#06196A" d="M260.143,271.479c-17.351,2.461-33.408-9.613-35.863-26.963c-2.455-17.352,9.619-33.408,26.969-35.863
				c17.351-2.455,33.403,9.619,35.863,26.965C289.566,252.971,277.492,269.029,260.143,271.479z"/>
		</g>
	</g>
	<g opacity="0.69">
		<g>
			<polygon fill="#9BA9DD" points="325.279,183.995 331.574,182.005 333.568,175.711 335.562,182.005 341.855,183.995 
				335.562,185.994 333.568,192.288 331.574,185.994 			"/>
			<polygon fill="#06196A" points="333.568,200.431 329.613,187.954 317.136,183.99 329.613,180.045 333.568,167.567 
				337.522,180.045 350,183.99 337.522,187.954 			"/>
		</g>
		<g>
			<path fill="#06196A" d="M333.568,193.209c-0.399,0-0.76-0.259-0.88-0.644l-1.85-5.838l-5.838-1.85
				c-0.384-0.125-0.644-0.48-0.644-0.884c0-0.399,0.26-0.755,0.644-0.875l5.838-1.854l1.85-5.833c0.245-0.769,1.519-0.769,1.759,0
				l1.85,5.833l5.838,1.854c0.385,0.12,0.644,0.476,0.644,0.875c0,0.403-0.259,0.759-0.644,0.884l-5.838,1.85l-1.85,5.838
				C334.327,192.951,333.972,193.209,333.568,193.209z M328.331,183.995l3.521,1.114c0.283,0.097,0.509,0.317,0.601,0.605
				l1.115,3.518l1.114-3.518c0.091-0.288,0.317-0.509,0.605-0.605l3.517-1.114l-3.517-1.115c-0.288-0.086-0.515-0.316-0.605-0.601
				l-1.114-3.517l-1.115,3.517c-0.092,0.284-0.317,0.515-0.601,0.601L328.331,183.995z"/>
		</g>
	</g>
	<g opacity="0.5">
		<g>
			<path fill="#06196A" d="M274.945,228.486c-0.438,0-0.812-0.309-0.903-0.73l-2.1-9.879l-9.878-2.1
				c-0.424-0.092-0.73-0.465-0.73-0.898c0-0.438,0.307-0.816,0.73-0.902l9.878-2.105l2.1-9.879c0.183-0.846,1.624-0.846,1.807,0
				l2.104,9.879l9.874,2.105c0.423,0.086,0.73,0.465,0.73,0.902c0,0.434-0.308,0.807-0.73,0.898l-9.874,2.1l-2.104,9.879
				C275.758,228.178,275.383,228.486,274.945,228.486z M266.687,214.879l6.222,1.326c0.36,0.072,0.635,0.346,0.711,0.707
				l1.326,6.221l1.326-6.221c0.077-0.361,0.355-0.635,0.711-0.707l6.223-1.326l-6.223-1.326c-0.355-0.076-0.634-0.355-0.711-0.711
				l-1.326-6.227l-1.326,6.227c-0.076,0.355-0.351,0.635-0.711,0.711L266.687,214.879z"/>
		</g>
	</g>
	<g opacity="0.5">
		<g>
			<path fill="#06196A" d="M234.644,146.869c-0.216,0-0.403-0.149-0.452-0.365l-1.052-4.939l-4.939-1.053
				c-0.211-0.043-0.36-0.23-0.36-0.451c0-0.212,0.149-0.403,0.36-0.447l4.939-1.054l1.052-4.938
				c0.049-0.214,0.236-0.365,0.452-0.365l0,0c0.216,0,0.403,0.151,0.451,0.365l1.053,4.938l4.935,1.054
				c0.216,0.044,0.365,0.235,0.365,0.447c0,0.221-0.149,0.408-0.365,0.451l-4.935,1.053l-1.053,4.939
				C235.047,146.719,234.859,146.869,234.644,146.869z M230.512,140.06l3.113,0.663c0.178,0.038,0.316,0.183,0.355,0.355
				l0.663,3.113l0.663-3.113c0.038-0.173,0.178-0.317,0.355-0.355l3.108-0.663l-3.108-0.663c-0.178-0.038-0.317-0.176-0.355-0.354
				l-0.663-3.11l-0.663,3.11c-0.039,0.178-0.178,0.315-0.355,0.354L230.512,140.06z"/>
		</g>
	</g>
	<g opacity="0.76">
		<g>
			<path fill="#06196A" d="M308.766,116.332c-1.437,0-2.844-0.701-3.68-1.991c-0.64-0.982-0.855-2.155-0.615-3.301
				c0.245-1.146,0.918-2.129,1.897-2.768l0,0c0.985-0.637,2.162-0.848,3.301-0.612c1.148,0.245,2.129,0.92,2.768,1.9
				c1.316,2.027,0.74,4.747-1.287,6.065C310.414,116.104,309.588,116.332,308.766,116.332z M307.031,109.291
				c-1.465,0.954-1.883,2.921-0.932,4.387c0.956,1.468,2.921,1.884,4.387,0.933c1.465-0.954,1.883-2.924,0.932-4.39
				c-0.461-0.711-1.172-1.196-2.004-1.372C308.598,108.678,307.742,108.83,307.031,109.291L307.031,109.291z"/>
		</g>
	</g>
	<g opacity="0.58">
		<g>
			<path fill="#06196A" d="M251.503,106.208c-1.484,0-2.729-1.175-2.791-2.674c-0.034-0.745,0.226-1.458,0.73-2.009
				c0.504-0.553,1.191-0.872,1.936-0.905c0.735-0.046,1.456,0.224,2.009,0.728c0.553,0.505,0.874,1.191,0.908,1.939
				c0.067,1.537-1.129,2.847-2.667,2.918C251.585,106.208,251.542,106.208,251.503,106.208z M251.508,101.504
				c-0.028,0-0.058,0-0.091,0.003c-0.51,0.021-0.976,0.242-1.321,0.617c-0.342,0.377-0.52,0.862-0.495,1.372
				c0.02,0.509,0.24,0.978,0.615,1.323c0.379,0.344,0.851,0.514,1.369,0.497c1.052-0.048,1.869-0.939,1.821-1.991
				c-0.02-0.51-0.24-0.978-0.62-1.321C252.436,101.682,251.983,101.504,251.508,101.504z"/>
		</g>
	</g>
	<g opacity="0.5">
		<g>
			<circle fill="#06196A" cx="267.974" cy="251.827" r="4.786"/>
		</g>
	</g>
	<g opacity="0.85">
		<g>
			<g>
				<path fill="#06196A" d="M322.311,138.251c-0.005,0-0.015,0-0.024,0l-21.727-0.329c-0.841-0.013-1.514-0.707-1.504-1.55
					c0.01-0.836,0.691-1.504,1.528-1.504c0.004,0,0.014,0,0.023,0l21.727,0.329c0.842,0.012,1.514,0.706,1.504,1.55
					C323.824,137.583,323.142,138.251,322.311,138.251z"/>
			</g>
		</g>
		<g>
			<g>
				<path fill="#06196A" d="M334.25,138.448c-0.005,0-0.01,0-0.02,0l-4.958-0.064c-0.846-0.015-1.519-0.706-1.509-1.55
					c0.015-0.836,0.697-1.506,1.528-1.506c0.005,0,0.014,0,0.019,0l4.964,0.067c0.841,0.012,1.519,0.703,1.504,1.547
					C335.769,137.778,335.086,138.448,334.25,138.448z"/>
			</g>
		</g>
	</g>
	<g opacity="0.55">
		<g>
			<g>
				<path fill="#06196A" d="M301.025,88.77c0,0-0.005,0-0.01,0l-28.698-0.219c-0.543-0.005-0.976-0.447-0.971-0.99
					c0-0.538,0.442-0.973,0.98-0.973c0,0,0,0,0.005,0l28.703,0.221c0.538,0.005,0.976,0.447,0.971,0.99
					C302.001,88.337,301.563,88.77,301.025,88.77z"/>
			</g>
		</g>
		<g>
			<g>
				<path fill="#06196A" d="M314.426,88.897L314.426,88.897l-6.554-0.048c-0.543-0.005-0.976-0.447-0.976-0.987
					c0.005-0.541,0.515-1.019,0.99-0.974l6.549,0.046c0.543,0.005,0.976,0.447,0.976,0.987
					C315.406,88.459,314.969,88.897,314.426,88.897z"/>
			</g>
		</g>
	</g>
	<g opacity="0.96">
		<g>
			<g>
				<path fill="#06196A" d="M311.058,151.629c-0.005,0-0.01,0-0.019,0l-23.822-0.413c-0.576-0.01-1.043-0.485-1.028-1.066
					c0.01-0.571,0.476-1.028,1.048-1.028c0.009,0,0.014,0,0.019,0l23.822,0.408c0.581,0.015,1.042,0.49,1.033,1.072
					C312.101,151.173,311.635,151.629,311.058,151.629z"/>
			</g>
		</g>
		<g>
			<g>
				<path fill="#06196A" d="M324.15,151.866c-0.01,0-0.01,0-0.02,0l-5.434-0.092c-0.581-0.01-1.048-0.485-1.033-1.066
					c0.005-0.577,0.476-1.033,1.048-1.033c0.01,0,0.015,0,0.019,0l5.435,0.091c0.581,0.01,1.048,0.485,1.038,1.067
					C325.193,151.409,324.723,151.866,324.15,151.866z"/>
			</g>
		</g>
	</g>
	<g opacity="0.4">
		<g>
			<g>
				<path fill="#06196A" d="M276.449,104.109c0.596,0,1.062,0.471,1.062,1.066v0.548c1.466,0.173,2.71,0.644,3.849,1.362
					c0.399,0.226,0.745,0.596,0.745,1.191c0,0.769-0.62,1.364-1.389,1.364c-0.25,0-0.495-0.074-0.745-0.224
					c-0.869-0.519-1.715-0.891-2.556-1.09v4.764c3.771,0.941,5.386,2.457,5.386,5.112c0,2.729-2.138,4.54-5.29,4.838v1.487
					c0,0.596-0.466,1.066-1.062,1.066s-1.096-0.471-1.096-1.066v-1.537c-1.859-0.2-3.574-0.868-5.083-1.937
					c-0.423-0.271-0.673-0.671-0.673-1.189c0-0.771,0.596-1.367,1.364-1.367c0.298,0,0.597,0.102,0.817,0.274
					c1.167,0.846,2.311,1.415,3.676,1.662v-4.887c-3.623-0.943-5.31-2.309-5.31-5.112c0-2.654,2.109-4.489,5.208-4.737v-0.523
					C275.354,104.58,275.854,104.109,276.449,104.109z M275.455,112.57v-4.392c-1.586,0.149-2.384,0.992-2.384,2.083
					C273.071,111.304,273.543,111.95,275.455,112.57z M277.415,116.02v4.516c1.591-0.175,2.455-0.968,2.455-2.159
					C279.87,117.284,279.327,116.616,277.415,116.02z"/>
			</g>
		</g>
	</g>
	<g opacity="0.4">
		<g>
			<g>
				<path fill="#06196A" d="M263.736,166.467c0.264,0,0.476,0.211,0.476,0.476v0.245c0.653,0.076,1.206,0.288,1.715,0.604
					c0.173,0.102,0.332,0.27,0.332,0.534c0,0.341-0.279,0.609-0.62,0.609c-0.11,0-0.221-0.038-0.332-0.105
					c-0.389-0.23-0.764-0.394-1.139-0.48v2.124c1.678,0.418,2.398,1.096,2.398,2.277c0,1.216-0.952,2.022-2.354,2.152v0.663
					c0,0.27-0.212,0.48-0.476,0.48c-0.265,0-0.485-0.211-0.485-0.48v-0.683c-0.831-0.086-1.596-0.384-2.269-0.864
					c-0.191-0.12-0.303-0.298-0.303-0.528c0-0.347,0.27-0.61,0.61-0.61c0.135,0,0.265,0.043,0.365,0.12
					c0.52,0.379,1.028,0.634,1.639,0.744v-2.176c-1.614-0.423-2.368-1.033-2.368-2.282c0-1.183,0.941-2.004,2.325-2.109v-0.235
					C263.251,166.678,263.472,166.467,263.736,166.467z M263.294,170.239v-1.956c-0.711,0.067-1.062,0.442-1.062,0.928
					C262.232,169.676,262.443,169.964,263.294,170.239z M264.168,171.776v2.014c0.707-0.077,1.091-0.433,1.091-0.961
					C265.259,172.338,265.019,172.041,264.168,171.776z"/>
			</g>
		</g>
	</g>
	<g opacity="0.3">
		<g>
			<path fill="#06196A" d="M299.92,178.968c0,5.146-4.17,9.312-9.311,9.312c-5.142,0-9.312-4.165-9.312-9.312
				c0-5.141,4.171-9.307,9.312-9.307C295.75,169.662,299.92,173.828,299.92,178.968z"/>
		</g>
	</g>
	<g opacity="0.3">
		<g>
			<circle fill="#06196A" cx="286.688" cy="71.79" r="3.205"/>
		</g>
	</g>
	<g opacity="0.4">
		<g>
			<path fill="#06196A" d="M304.859,242.219c-0.331,0-0.663-0.049-0.984-0.135v0.004c-0.98-0.264-1.802-0.889-2.312-1.768
				c-0.514-0.879-0.648-1.902-0.384-2.883c0.538-2.027,2.618-3.234,4.65-2.695c0.98,0.26,1.797,0.889,2.312,1.768
				c0.504,0.875,0.644,1.902,0.379,2.883c-0.259,0.98-0.884,1.797-1.763,2.307C306.172,242.045,305.518,242.219,304.859,242.219z
				 M304.846,236.26c-0.37,0-0.74,0.102-1.072,0.293c-0.499,0.289-0.854,0.756-1.004,1.312c-0.145,0.547-0.067,1.133,0.221,1.623
				c0.289,0.5,0.75,0.855,1.308,1.004l0,0c0.557,0.15,1.134,0.068,1.634-0.215c0.494-0.289,0.85-0.754,0.994-1.307
				c0.148-0.559,0.072-1.139-0.217-1.635c-0.288-0.5-0.749-0.855-1.307-0.998C305.22,236.289,305.032,236.26,304.846,236.26z"/>
		</g>
	</g>
	<g opacity="0.7">
		<g>
			<g>
				<path fill="#06196A" d="M309.309,217.652c-0.096,0-0.192,0-0.293-0.006c-3.09-0.154-5.478-2.801-5.323-5.895
					c0.163-3.09,2.776-5.449,5.899-5.324c3.095,0.158,5.482,2.801,5.324,5.895C314.762,215.316,312.273,217.652,309.309,217.652z
					 M309.299,207.816c-2.229,0-4.098,1.754-4.213,4.008c-0.116,2.324,1.682,4.314,4.002,4.43l0,0
					c2.335,0.158,4.314-1.678,4.435-4.002c0.058-1.131-0.327-2.207-1.081-3.043c-0.759-0.836-1.792-1.336-2.921-1.393
					C309.448,207.816,309.376,207.816,309.299,207.816z"/>
			</g>
		</g>
		<g>
			<g>
				<path fill="#06196A" d="M312.014,212.572c-0.293,1.494-1.744,2.471-3.243,2.172c-1.499-0.293-2.47-1.748-2.177-3.242
					c0.299-1.494,1.749-2.471,3.243-2.178C311.336,209.623,312.312,211.074,312.014,212.572z"/>
			</g>
		</g>
	</g>
	<g opacity="0.76">
		<g>
			<path fill="#06196A" d="M40.677,271.969c-0.308,0-0.615-0.033-0.923-0.096c-1.144-0.25-2.123-0.922-2.763-1.902
				c-1.316-2.027-0.739-4.748,1.283-6.064l0,0c2.032-1.32,4.752-0.74,6.068,1.283c1.316,2.033,0.74,4.752-1.288,6.068
				C42.334,271.725,41.513,271.969,40.677,271.969z M38.938,264.92c-1.466,0.957-1.884,2.926-0.932,4.387
				c0.461,0.711,1.172,1.201,2.003,1.375c0.821,0.178,1.677,0.02,2.384-0.443c1.465-0.951,1.888-2.92,0.932-4.387
				C42.373,264.387,40.408,263.969,38.938,264.92z"/>
		</g>
	</g>
	<g opacity="0.5">
		<g id="XMLID_273_">
			<g id="XMLID_274_">
				<g id="XMLID_284_">
					<g>
						<g>
							<path fill="#F5BFBA" d="M11.69,245.053L11.69,245.053c-2.412,0-4.368-1.961-4.368-4.373v-12.434
								c0-2.412,1.956-4.367,4.368-4.367l0,0c2.412,0,4.368,1.955,4.368,4.367v12.434C16.058,243.092,14.102,245.053,11.69,245.053z
								"/>
						</g>
					</g>
				</g>
				<g id="XMLID_283_">
					<g>
						<g>
							<path fill="#F5BFBA" d="M24.629,245.053L24.629,245.053c-2.417,0-4.367-1.961-4.367-4.373v-55.609
								c0-2.412,1.951-4.363,4.367-4.363l0,0c2.412,0,4.367,1.951,4.367,4.363v55.609C28.996,243.092,27.041,245.053,24.629,245.053
								z"/>
						</g>
					</g>
				</g>
				<g id="XMLID_282_">
					<g>
						<g>
							<path fill="#F5BFBA" d="M40.667,245.053L40.667,245.053c-2.412,0-4.367-1.961-4.367-4.373v-37.678
								c0-2.412,1.955-4.363,4.367-4.363l0,0c2.412,0,4.368,1.951,4.368,4.363v37.678C45.035,243.092,43.079,245.053,40.667,245.053
								z"/>
						</g>
					</g>
				</g>
				<g id="XMLID_281_">
					<g>
						<g>
							<path fill="#F5BFBA" d="M53.602,245.053L53.602,245.053c-2.412,0-4.367-1.961-4.367-4.373v-87.325
								c0-2.412,1.955-4.368,4.367-4.368l0,0c2.412,0,4.367,1.956,4.367,4.368v87.325C57.969,243.092,56.014,245.053,53.602,245.053
								z"/>
						</g>
					</g>
				</g>
				<g id="XMLID_280_">
					<g>
						<g>
							<path fill="#F5BFBA" d="M69.64,245.053L69.64,245.053c-2.412,0-4.367-1.961-4.367-4.373v-53.682
								c0-2.412,1.955-4.368,4.367-4.368l0,0c2.412,0,4.367,1.956,4.367,4.368v53.682C74.007,243.092,72.052,245.053,69.64,245.053z
								"/>
						</g>
					</g>
				</g>
				<g id="XMLID_279_">
					<g>
						<g>
							<path fill="#F5BFBA" d="M82.579,245.053L82.579,245.053c-2.412,0-4.368-1.961-4.368-4.373v-68.793
								c0-2.412,1.956-4.367,4.368-4.367l0,0c2.411,0,4.367,1.955,4.367,4.367v68.793C86.946,243.092,84.99,245.053,82.579,245.053z
								"/>
						</g>
					</g>
				</g>
				<g id="XMLID_278_">
					<g>
						<g>
							<path fill="#F5BFBA" d="M98.617,245.053L98.617,245.053c-2.412,0-4.368-1.961-4.368-4.373v-61.778
								c0-2.412,1.956-4.363,4.368-4.363l0,0c2.412,0,4.367,1.951,4.367,4.363v61.778
								C102.984,243.092,101.029,245.053,98.617,245.053z"/>
						</g>
					</g>
				</g>
				<g id="XMLID_277_">
					<g>
						<g>
							<path fill="#F5BFBA" d="M111.556,245.053L111.556,245.053c-2.411,0-4.367-1.961-4.367-4.373V127.917
								c0-2.412,1.956-4.37,4.367-4.37l0,0c2.412,0,4.368,1.958,4.368,4.37V240.68C115.924,243.092,113.968,245.053,111.556,245.053
								z"/>
						</g>
					</g>
				</g>
				<g id="XMLID_276_">
					<g>
						<g>
							<path fill="#F5BFBA" d="M127.594,245.053L127.594,245.053c-2.411,0-4.367-1.961-4.367-4.373v-70.081
								c0-2.412,1.956-4.363,4.367-4.363l0,0c2.412,0,4.368,1.951,4.368,4.363v70.081
								C131.962,243.092,130.006,245.053,127.594,245.053z"/>
						</g>
					</g>
				</g>
				<g id="XMLID_275_">
					<g>
						<g>
							<path fill="#F5BFBA" d="M140.528,245.053L140.528,245.053c-2.412,0-4.367-1.961-4.367-4.373v-87.349
								c0-2.412,1.955-4.362,4.367-4.362l0,0c2.412,0,4.368,1.95,4.368,4.362v87.349
								C144.896,243.092,142.94,245.053,140.528,245.053z"/>
						</g>
					</g>
				</g>
			</g>
		</g>
		<g>
			<g>
				<g>
					<path fill="#F5BFBA" d="M150.988,251.809H1.23c-0.677,0-1.23-0.553-1.23-1.23c0-0.672,0.553-1.23,1.23-1.23h149.758
						c0.678,0,1.23,0.559,1.23,1.23C152.219,251.256,151.666,251.809,150.988,251.809z"/>
				</g>
			</g>
		</g>
	</g>
	<g opacity="0.1">
		<g>
			<path fill="#06196A" d="M63.24,276.744c3.982,0.562,7.668-2.209,8.23-6.193c0.566-3.982-2.206-7.668-6.189-8.23
				c-3.982-0.566-7.668,2.207-8.234,6.189C56.484,272.492,59.257,276.178,63.24,276.744z"/>
		</g>
	</g>
	<g opacity="0.1">
		<g>
			<circle fill="#06196A" cx="95.97" cy="100.595" r="28.241"/>
		</g>
	</g>
	<g opacity="0.1">
		<g>
			<path fill="#06196A" d="M38.895,77.18c3.982,0.565,7.668-2.207,8.235-6.19c0.562-3.983-2.211-7.668-6.193-8.233
				c-3.983-0.562-7.669,2.208-8.23,6.191C32.144,72.931,34.911,76.619,38.895,77.18z"/>
		</g>
	</g>
	<g opacity="0.1">
		<g>
			<path fill="#06196A" d="M27.146,106.218c-6.625-5.91-16.773-5.346-22.707,1.28c-5.91,6.602-5.343,16.773,1.278,22.683
				c6.625,5.913,16.773,5.346,22.683-1.28C34.34,122.301,33.748,112.13,27.146,106.218z M24.12,125.083
				c-3.795,4.238-10.32,4.605-14.558,0.814c-4.262-3.793-4.632-10.32-0.812-14.582c3.791-4.235,10.32-4.605,14.553-0.812
				C27.564,114.297,27.91,120.825,24.12,125.083z"/>
		</g>
	</g>
	<g opacity="0.43">
		<g>
			<path fill="#06196A" d="M74.425,126.085L74.425,126.085c-0.23,0-0.427-0.158-0.476-0.382l-1.1-5.172l-5.17-1.104
				c-0.227-0.048-0.385-0.245-0.385-0.473c0-0.229,0.158-0.426,0.385-0.471l5.17-1.104l1.1-5.172c0.097-0.449,0.851-0.449,0.947,0
				l1.104,5.172l5.17,1.104c0.226,0.045,0.385,0.242,0.385,0.471c0,0.228-0.159,0.425-0.385,0.473l-5.17,1.104l-1.104,5.172
				C74.848,125.927,74.651,126.085,74.425,126.085z M70.096,118.956l3.263,0.696c0.188,0.038,0.332,0.186,0.37,0.372l0.696,3.261
				l0.697-3.261c0.038-0.187,0.183-0.334,0.37-0.372l3.257-0.696l-3.257-0.694c-0.188-0.039-0.332-0.186-0.37-0.372l-0.697-3.258
				l-0.696,3.258c-0.038,0.187-0.183,0.333-0.37,0.372L70.096,118.956z"/>
		</g>
	</g>
	<g opacity="0.2">
		<g>
			<g>
				<path fill="#06196A" d="M84.51,152.014c-3.622,0-6.572-2.95-6.572-6.573c0-3.632,2.95-6.58,6.572-6.58
					c3.628,0,6.583,2.948,6.583,6.58c0,0.433-0.351,0.778-0.778,0.778c-0.433,0-0.783-0.346-0.783-0.778
					c0-2.767-2.249-5.021-5.021-5.021c-2.762,0-5.016,2.254-5.016,5.021c0,2.768,2.254,5.017,5.016,5.017
					c0.433,0,0.783,0.346,0.783,0.778S84.942,152.014,84.51,152.014z"/>
			</g>
		</g>
		<g>
			<g>
				<path fill="#06196A" d="M84.52,148.973c-0.316,0-0.639-0.044-0.951-0.13c-0.908-0.25-1.667-0.846-2.133-1.667
					c-0.956-1.696-0.355-3.854,1.34-4.814c0.37-0.212,0.846-0.082,1.062,0.293c0.211,0.375,0.076,0.855-0.293,1.066
					c-0.952,0.538-1.288,1.739-0.75,2.69c0.26,0.457,0.683,0.788,1.191,0.933c0.505,0.135,1.038,0.076,1.494-0.188
					c0.462-0.255,0.793-0.678,0.938-1.187c0.139-0.51,0.072-1.043-0.188-1.499c-0.212-0.38-0.077-0.855,0.293-1.067
					c0.375-0.211,0.851-0.076,1.066,0.298c0.462,0.817,0.582,1.773,0.327,2.682c-0.255,0.913-0.846,1.667-1.667,2.133
					C85.711,148.819,85.12,148.973,84.52,148.973z"/>
			</g>
		</g>
	</g>
	<g opacity="0.98">
		<g>
			<g>
				<path fill="#06196A" d="M50.008,130.249c-2.566,0-4.646-2.085-4.646-4.644c0-2.563,2.08-4.648,4.646-4.648
					c2.561,0,4.641,2.085,4.641,4.648C54.648,128.164,52.568,130.249,50.008,130.249z M50.008,122.112
					c-1.927,0-3.493,1.564-3.493,3.493c0,1.925,1.566,3.49,3.493,3.49s3.488-1.565,3.488-3.49
					C53.496,123.676,51.935,122.112,50.008,122.112z"/>
			</g>
		</g>
		<g>
			<g>
				<path fill="#06196A" d="M50.334,127.866c1.25-0.183,2.114-1.341,1.932-2.59c-0.178-1.247-1.341-2.114-2.585-1.932
					c-1.249,0.181-2.114,1.338-1.937,2.588C47.927,127.181,49.085,128.045,50.334,127.866z"/>
			</g>
		</g>
	</g>
	<g opacity="0.91">
		<g>
			<g>
				<path fill="#06196A" d="M55.951,97.832c-0.75,0-1.36-0.608-1.365-1.357c0-0.755,0.605-1.367,1.36-1.372l19.421-0.094h0.005
					c0.749,0,1.359,0.605,1.364,1.357c0.005,0.755-0.605,1.367-1.359,1.372l-19.416,0.094
					C55.956,97.832,55.956,97.832,55.951,97.832z"/>
			</g>
		</g>
		<g>
			<g>
				<path fill="#06196A" d="M45.284,97.899c-0.754,0-1.364-0.608-1.369-1.36c0-0.754,0.61-1.364,1.364-1.369l4.431-0.015l0,0
					c0.754,0,1.364,0.608,1.369,1.36c0,0.754-0.61,1.364-1.359,1.369L45.284,97.899L45.284,97.899z"/>
			</g>
		</g>
	</g>
	<g opacity="0.83">
		<g>
			<g>
				<path fill="#06196A" d="M71.951,85c-0.75,0-1.36-0.605-1.365-1.355c-0.01-0.752,0.601-1.369,1.355-1.376l11.176-0.097
					c0,0,0.005,0,0.01,0c0.749,0,1.359,0.605,1.364,1.355c0.005,0.752-0.601,1.369-1.355,1.376L71.96,85
					C71.96,85,71.955,85,71.951,85z"/>
			</g>
		</g>
		<g>
			<g>
				<path fill="#06196A" d="M64.023,85.065c-0.745,0-1.355-0.603-1.365-1.353c-0.005-0.752,0.601-1.369,1.355-1.376l1.687-0.015
					c0,0,0.005,0,0.009,0c0.75,0,1.355,0.603,1.365,1.35c0.01,0.755-0.601,1.372-1.351,1.38l-1.687,0.014
					C64.032,85.065,64.027,85.065,64.023,85.065z"/>
			</g>
		</g>
	</g>
	<g opacity="0.62">
		<g>
			<g>
				<path fill="#06196A" d="M29.904,145.288c0.567,0,1.019,0.447,1.019,1.014v0.523c1.398,0.164,2.585,0.615,3.676,1.303
					c0.38,0.216,0.711,0.571,0.711,1.139c0,0.735-0.596,1.307-1.331,1.307c-0.235,0-0.471-0.077-0.711-0.216
					c-0.831-0.495-1.633-0.851-2.44-1.043v4.55c3.604,0.898,5.146,2.35,5.146,4.887c0,2.604-2.042,4.334-5.05,4.622v1.422
					c0,0.567-0.451,1.019-1.019,1.019c-0.571,0-1.047-0.451-1.047-1.019v-1.47c-1.778-0.192-3.412-0.826-4.858-1.85
					c-0.403-0.26-0.639-0.64-0.639-1.139c0-0.735,0.567-1.303,1.303-1.303c0.283,0,0.571,0.092,0.782,0.26
					c1.115,0.807,2.206,1.35,3.508,1.59v-4.67c-3.459-0.903-5.069-2.205-5.069-4.882c0-2.536,2.013-4.295,4.973-4.53v-0.5
					C28.857,145.735,29.333,145.288,29.904,145.288z M28.953,153.37v-4.2c-1.514,0.145-2.272,0.952-2.272,1.989
					C26.681,152.159,27.127,152.773,28.953,153.37z M30.827,156.666v4.314c1.519-0.168,2.35-0.928,2.35-2.066
					C33.177,157.872,32.653,157.232,30.827,156.666z"/>
			</g>
		</g>
	</g>
	<g>
		<g>
			<g>
				<g>
					<path fill="#06196A" d="M220.287,117.783c2.35,0,4.267-1.838,4.267-4.076c0-14.736,16.519-27.291,32.479-39.449
						c14.712-11.181,28.588-21.734,30.577-34.577c1.067-6.929-1.153-13.454-6.255-18.374c-5.9-5.703-15.078-8.557-23.923-7.426
						c-8.52,1.086-14.909,6.734-16.653,14.712c-1.528,6.918,0.389,13.119,5.251,17.011c4.771,3.822,11.656,4.851,17.523,2.623
						c5.443-2.068,8.946-6.549,9.633-12.312c0.255-2.229-1.427-4.238-3.767-4.493c-2.292-0.267-4.459,1.351-4.728,3.592
						c-0.399,3.477-2.571,4.987-4.306,5.66c-2.892,1.096-6.529,0.564-8.854-1.307c-2.45-1.951-3.272-5.103-2.388-9.112
						c1.019-4.642,4.444-7.666,9.427-8.303c6.241-0.795,12.655,1.144,16.701,5.06c2.253,2.169,4.742,5.912,3.892,11.479
						c-1.504,9.667-14.106,19.262-27.454,29.414c-17.547,13.338-35.704,27.138-35.704,45.802
						C216.006,115.945,217.923,117.783,220.287,117.783z"/>
				</g>
			</g>
		</g>
		<g>
			<g>
				<g>
					<path fill="#06196A" d="M119.138,117.783c-2.363,0-4.267-1.838-4.267-4.076c0-14.736-16.519-27.291-32.489-39.449
						C67.68,63.077,53.789,52.523,51.805,39.68c-1.071-6.929,1.148-13.454,6.251-18.374c5.914-5.703,15.077-8.557,23.923-7.426
						c8.523,1.086,14.908,6.734,16.667,14.712c1.514,6.918-0.398,13.119-5.261,17.011c-4.776,3.822-11.661,4.851-17.514,2.623
						c-5.438-2.068-8.956-6.549-9.633-12.312c-0.27-2.229,1.417-4.238,3.767-4.493c2.282-0.267,4.449,1.351,4.718,3.592
						c0.409,3.477,2.566,4.987,4.311,5.66c2.888,1.096,6.524,0.564,8.859-1.307c2.437-1.951,3.277-5.103,2.389-9.112
						c-1.02-4.642-4.459-7.666-9.428-8.303c-6.256-0.795-12.655,1.144-16.715,5.06c-2.239,2.169-4.738,5.912-3.878,11.479
						C61.75,48.158,74.357,57.752,87.7,67.905c17.562,13.338,35.704,27.138,35.704,45.802
						C123.404,115.945,121.492,117.783,119.138,117.783z"/>
				</g>
			</g>
		</g>
		<g>
			<g>
				<path fill="#9BA9DD" d="M245.992,6.385c-0.082,0.476-0.25,0.954-0.418,1.432c-0.75,3.024-1.754,7.161-3.09,12.492
					c-2.921,13.052-7.096,32.706-11.021,57.455c-7.52,46.791-43.176,59.762-50.19,67.639c-2.508,2.787-3.507,5.333-3.844,6.448
					c-0.668,1.907-0.836,3.661-0.836,5.246c-0.25,21.886,6.765,34.22,6.765,34.22c4.008,7.164,9.105,13.771,17.538,18.941
					c8.854,5.572,20.545,8.355,26.724,9.469c1.254,0.236,2.508,0.957,3.426,1.832c0.918,0.797,1.585,1.83,1.835,2.863l2.004,7.322
					H104.521l2.004-7.322c0.25-1.033,0.918-2.066,1.84-2.863c0.918-0.875,2.172-1.596,3.422-1.832
					c6.179-1.113,17.873-3.896,26.81-9.469c8.183-5.094,13.194-11.46,17.451-18.941c0,0,7.851-13.607,7.102-34.056
					c-0.087-2.229-0.5-3.738-0.755-4.612c-0.668-2.394-2.172-4.699-4.257-7.246c-5.598-6.921-42.676-20.848-50.19-67.639
					c-3.925-24.749-8.101-44.402-11.108-57.455c-1.254-5.331-2.34-9.468-3.008-12.492c-0.168-0.478-0.331-0.956-0.418-1.432
					c-0.581-2.15,0.923-3.899,3.258-3.899h146.063C245.156,2.486,246.578,4.235,245.992,6.385z"/>
				<path fill="#06196A" d="M238.107,234.203h-136.81l2.854-10.43c0.353-1.461,1.285-2.936,2.604-4.074
					c1.232-1.184,2.934-2.082,4.574-2.389c4.798-0.865,16.894-3.484,25.965-9.139c6.876-4.281,11.844-9.681,16.615-18.071
					c0.081-0.14,7.495-13.323,6.779-32.749c-0.077-2.027-0.467-3.368-0.658-4.017c-0.51-1.831-1.677-3.786-3.796-6.376
					c-0.985-1.211-3.69-3.061-6.823-5.198c-13.218-9.017-37.822-25.802-43.894-63.607c-3.115-19.64-6.842-38.914-11.077-57.292
					c-0.579-2.464-1.127-4.682-1.609-6.649c-0.562-2.285-1.043-4.233-1.403-5.864c-0.13-0.317-0.326-0.922-0.435-1.523
					c-0.418-1.511-0.101-3.258,0.918-4.588c1.076-1.406,2.811-2.21,4.759-2.21h146.063c1.97,0,3.714,0.8,4.781,2.193
					c1.014,1.329,1.321,3.083,0.85,4.812c-0.053,0.377-0.254,0.992-0.471,1.603l-3.021,12.273
					c-2.792,12.476-6.986,32.055-10.979,57.241c-6.077,37.822-30.322,54.36-43.348,63.242c-3.291,2.248-6.136,4.185-7.438,5.646
					c-2.254,2.508-3.075,4.699-3.325,5.525c-0.51,1.461-0.73,2.868-0.73,4.535c-0.24,20.887,6.381,32.889,6.448,33.009
					c4.607,8.24,9.749,13.804,16.682,18.056c9.004,5.664,21.093,8.283,25.874,9.143c1.662,0.312,3.363,1.211,4.684,2.471
					c1.235,1.066,2.162,2.541,2.532,4.07L238.107,234.203z M107.746,229.283H231.66l-1.153-4.213
					c-0.145-0.596-0.543-1.191-1.076-1.658c-0.716-0.678-1.552-1.133-2.264-1.268c-5.05-0.908-17.873-3.695-27.584-9.807
					c-7.658-4.695-13.333-10.816-18.373-19.82c-0.288-0.515-7.332-13.155-7.077-35.449c0-2.205,0.308-4.132,0.976-6.03
					c0.312-1.042,1.427-4.05,4.334-7.284c1.695-1.902,4.627-3.896,8.331-6.426c13.285-9.062,35.521-24.228,41.258-59.953
					c4.017-25.321,8.23-45.004,11.051-57.604l3.104-12.545c0.188-0.571,0.321-0.913,0.379-1.256
					c0.082-0.343,0.145-0.622,0.039-0.761c-0.092-0.12-0.375-0.262-0.87-0.262H96.671c-0.469,0-0.747,0.146-0.853,0.281
					c-0.104,0.137-0.074,0.355-0.029,0.517C95.897,6.296,96.027,6.647,96.152,7c0.435,1.886,0.905,3.798,1.455,6.035
					c0.49,1.982,1.041,4.216,1.627,6.712c4.262,18.498,8.012,37.885,11.143,57.633c5.736,35.708,29.2,51.718,41.808,60.318
					c3.738,2.549,6.438,4.394,7.865,6.157c2.562,3.128,4.017,5.641,4.714,8.129c0.216,0.745,0.74,2.547,0.846,5.18
					c0.764,20.92-7.097,34.801-7.434,35.382c-5.193,9.133-10.666,15.059-18.276,19.801c-9.797,6.105-22.618,8.889-27.676,9.801
					c-0.694,0.131-1.53,0.586-2.162,1.191c-0.622,0.543-1.019,1.135-1.146,1.658L107.746,229.283z"/>
			</g>
			<g>
				<path fill="#06196A" d="M234.884,233.828H104.521c-0.653,0-1.264-0.303-1.657-0.816c-0.398-0.518-0.528-1.191-0.355-1.82
					l2.004-7.318c0.336-1.398,1.225-2.801,2.483-3.891c1.191-1.139,2.82-2.004,4.401-2.307c4.814-0.865,16.951-3.488,26.095-9.188
					c6.928-4.314,11.935-9.757,16.744-18.2c0.077-0.145,7.543-13.405,6.827-32.951c-0.076-2.032-0.466-3.392-0.672-4.122
					c-0.524-1.864-1.716-3.863-3.868-6.486c-1.019-1.259-3.748-3.123-6.904-5.275c-13.175-8.987-37.688-25.715-43.732-63.357
					c-3.113-19.63-6.842-38.914-11.08-57.318c-0.586-2.479-1.134-4.706-1.619-6.683c-0.543-2.21-1.014-4.108-1.364-5.703
					c-0.168-0.469-0.36-1.033-0.466-1.648c-0.395-1.413-0.097-3.042,0.85-4.281c1.005-1.312,2.634-2.066,4.464-2.066h146.063
					c1.854,0,3.483,0.747,4.483,2.047c0.922,1.21,1.22,2.806,0.816,4.394c-0.12,0.629-0.327,1.208-0.495,1.677l-0.884,3.632
					c-0.596,2.431-1.302,5.314-2.143,8.67c-2.792,12.447-6.977,31.988-10.989,57.275c-6.049,37.661-30.207,54.142-43.189,62.992
					c-3.449,2.354-6.174,4.214-7.505,5.708c-2.373,2.638-3.2,4.997-3.401,5.655c-0.52,1.489-0.745,2.94-0.745,4.65
					c-0.24,20.997,6.424,33.076,6.491,33.191c4.646,8.303,9.831,13.905,16.812,18.19c9.071,5.703,21.208,8.332,26.004,9.191
					c1.604,0.309,3.233,1.174,4.497,2.379c1.187,1.023,2.07,2.426,2.426,3.883l1.989,7.26c0.169,0.629,0.039,1.303-0.355,1.82
					C236.147,233.525,235.537,233.828,234.884,233.828z M107.261,229.658h124.889l-1.282-4.684
					c-0.159-0.664-0.601-1.332-1.191-1.842c-0.75-0.711-1.663-1.205-2.446-1.354c-5.016-0.904-17.782-3.672-27.449-9.754
					c-7.601-4.666-13.237-10.744-18.243-19.69c-0.293-0.51-7.284-13.069-7.029-35.257c0-2.172,0.303-4.065,0.951-5.92
					c0.303-1.023,1.394-3.964,4.257-7.149c1.667-1.874,4.579-3.858,8.265-6.376c13.338-9.093,35.655-24.316,41.421-60.2
					c4.026-25.4,8.23-45.025,11.046-57.58c0.851-3.399,1.557-6.275,2.157-8.701l0.942-3.839c0.188-0.558,0.326-0.923,0.389-1.286
					c0.01-0.065,0.024-0.127,0.043-0.189c0.067-0.255,0.111-0.608-0.081-0.858c-0.197-0.259-0.62-0.408-1.163-0.408H96.671
					c-0.514,0-0.941,0.161-1.148,0.43c-0.153,0.205-0.188,0.485-0.091,0.836c0.105,0.552,0.24,0.917,0.37,1.283
					c0.028,0.082,0.053,0.161,0.067,0.248c0.355,1.593,0.826,3.5,1.374,5.729c0.489,1.987,1.037,4.23,1.628,6.736
					c4.263,18.505,8.01,37.885,11.138,57.604c5.761,35.867,29.313,51.934,41.965,60.565c3.714,2.537,6.395,4.363,7.788,6.088
					c2.527,3.08,3.964,5.55,4.646,7.99c0.235,0.826,0.73,2.556,0.826,5.098c0.764,20.814-7.044,34.604-7.375,35.181
					c-5.17,9.08-10.6,14.966-18.162,19.669c-9.754,6.078-22.51,8.846-27.541,9.75c-0.764,0.148-1.677,0.643-2.354,1.287
					c-0.663,0.576-1.101,1.244-1.245,1.846L107.261,229.658z"/>
			</g>
		</g>
		<g>
			<g>
				<path fill="#F5BFBA" d="M251.921,253.625v41.857H87.484v-41.857c0-9.23,7.851-16.711,17.455-16.711h129.526
					C244.07,236.914,251.921,244.395,251.921,253.625z"/>
				<path fill="#06196A" d="M254.381,297.943H85.024v-44.318c0-10.57,8.935-19.172,19.915-19.172h129.526
					c10.983,0,19.915,8.602,19.915,19.172V297.943z M89.944,293.023h159.517v-39.398c0-7.855-6.727-14.252-14.995-14.252H104.939
					c-8.269,0-14.995,6.396-14.995,14.252V293.023z"/>
			</g>
			<g>
				<path fill="#06196A" d="M251.921,297.568H87.484c-1.153,0-2.085-0.932-2.085-2.086v-41.857c0-10.365,8.764-18.797,19.54-18.797
					h129.531c10.771,0,19.541,8.432,19.541,18.797v41.857C254.012,296.637,253.074,297.568,251.921,297.568z M89.569,293.398
					h160.267v-39.773c0-8.062-6.895-14.621-15.365-14.621H104.939c-8.475,0-15.37,6.559-15.37,14.621V293.398z"/>
			</g>
		</g>
		<g>
			<g>
				<path fill="#FFFFFF" d="M185.208,266.064c0,8.162-6.934,14.773-15.5,14.773l0,0c-8.562,0-15.491-6.611-15.491-14.773v-1.543
					c0-8.154,6.929-14.77,15.491-14.77l0,0c8.566,0,15.5,6.615,15.5,14.77V266.064z"/>
			</g>
			<g>
				<path fill="#06196A" d="M169.708,282.361c-9.379,0-17.009-7.309-17.009-16.297v-1.543c0-8.98,7.63-16.287,17.009-16.287
					c9.388,0,17.022,7.307,17.022,16.287v1.543C186.73,275.053,179.096,282.361,169.708,282.361z M169.708,251.275
					c-7.702,0-13.968,5.943-13.968,13.246v1.543c0,7.307,6.266,13.256,13.968,13.256c7.706,0,13.981-5.949,13.981-13.256v-1.543
					C183.689,257.219,177.414,251.275,169.708,251.275z"/>
			</g>
		</g>
		<g opacity="0.3">
			<g>
				<path fill="#06196A" d="M245.574,8.898c-0.75,3.022-1.754,7.161-3.09,12.492c-0.168,0.079-0.25,0.079-0.418,0.079H97.339
					c-0.168,0-0.331,0-0.5-0.079c-1.254-5.331-2.34-9.47-3.008-12.492c1.005-0.637,2.254-0.956,3.508-0.956h144.728
					C243.32,7.942,244.575,8.262,245.574,8.898z"/>
			</g>
		</g>
		<g opacity="0.3">
			<g>
				<path fill="#06196A" d="M234.884,230.668H104.521l2.004-7.322c0.25-1.039,0.918-2.072,1.84-2.863h122.68
					c0.918,0.791,1.585,1.824,1.835,2.863L234.884,230.668z"/>
			</g>
		</g>
		<g opacity="0.3">
			<g>
				<rect x="87.484" y="288.354" fill="#06196A" width="164.437" height="6.283"/>
			</g>
		</g>
		<g>
			<g>
				<path fill="#FFFFFF" d="M133.869,116.214c-0.601,0-1.196-0.257-1.609-0.752c-4.146-4.99-7.597-10.47-10.254-16.286
					c-3.401-7.442-5.472-15.339-6.159-23.469l-4.339-25.111c-0.197-1.139,0.567-2.215,1.701-2.412
					c1.139-0.211,2.215,0.564,2.412,1.701l4.362,25.292c0.673,7.829,2.624,15.262,5.818,22.265
					c2.504,5.48,5.757,10.646,9.667,15.349c0.74,0.887,0.615,2.206-0.269,2.94C134.811,116.055,134.335,116.214,133.869,116.214z"/>
			</g>
		</g>
		<g>
			<g>
				<path fill="#FFFFFF" d="M111.369,39.598c-1,0-1.884-0.719-2.057-1.734l-1.413-8.166c-0.192-1.136,0.567-2.215,1.706-2.409
					c1.134-0.197,2.215,0.562,2.412,1.7l1.407,8.166c0.197,1.137-0.566,2.215-1.7,2.412
					C111.604,39.588,111.484,39.598,111.369,39.598z"/>
			</g>
		</g>
		<g>
			<g>
				<path fill="#F5BFBA" d="M249.188,9.239c0,3.752-3.176,6.789-7.111,6.789H97.339c-3.926,0-7.116-3.037-7.116-6.789l0,0
					c0-3.743,3.19-6.779,7.116-6.779h144.737C246.012,2.46,249.188,5.497,249.188,9.239L249.188,9.239z"/>
				<path fill="#06196A" d="M242.076,18.489H97.339c-5.28,0-9.576-4.149-9.576-9.25C87.763,4.144,92.059,0,97.339,0h144.737
					c5.275,0,9.571,4.144,9.571,9.239C251.647,14.34,247.352,18.489,242.076,18.489z M97.339,4.92c-2.568,0-4.655,1.939-4.655,4.319
					c0,2.388,2.087,4.329,4.655,4.329h144.737c2.566,0,4.651-1.941,4.651-4.329c0-2.38-2.085-4.319-4.651-4.319H97.339z"/>
			</g>
			<g>
				<path fill="#06196A" d="M242.076,18.116H97.339c-5.074,0-9.201-3.981-9.201-8.877c0-4.889,4.127-8.867,9.201-8.867h144.737
					c5.074,0,9.201,3.978,9.201,8.867C251.277,14.135,247.15,18.116,242.076,18.116z M97.339,4.545
					c-2.772,0-5.025,2.106-5.025,4.694c0,2.592,2.253,4.704,5.025,4.704h144.737c2.768,0,5.025-2.112,5.025-4.704
					c0-2.587-2.258-4.694-5.025-4.694H97.339z"/>
			</g>
		</g>
		<g>
			<g>
				<path fill="#9BA9DD" d="M236.378,236.951H99.621c-2.945,0-5.353-2.41-5.353-5.352v-0.672c0-2.945,2.407-5.354,5.353-5.354
					h136.757c2.945,0,5.353,2.408,5.353,5.354v0.672C241.73,234.541,239.323,236.951,236.378,236.951z"/>
			</g>
			<g>
				<path fill="#06196A" d="M236.378,239.037H99.621c-4.104,0-7.442-3.334-7.442-7.438v-0.672c0-4.104,3.339-7.439,7.442-7.439
					h136.757c4.104,0,7.442,3.336,7.442,7.439v0.672C243.82,235.703,240.481,239.037,236.378,239.037z M99.621,227.66
					c-1.802,0-3.268,1.465-3.268,3.268v0.672c0,1.797,1.466,3.262,3.268,3.262h136.757c1.797,0,3.268-1.465,3.268-3.262v-0.672
					c0-1.803-1.471-3.268-3.268-3.268H99.621z"/>
			</g>
		</g>
		<g>
			<g>
				<path fill="#9BA9DD" d="M251.484,313.068H84.515c-5.141,0-9.35-4.203-9.35-9.346v-1.166c0-5.143,4.209-9.352,9.35-9.352h166.97
					c5.141,0,9.345,4.209,9.345,9.352v1.166C260.829,308.865,256.625,313.068,251.484,313.068z"/>
			</g>
			<g>
				<path fill="#06196A" d="M251.484,315.158H84.515c-6.304,0-11.435-5.127-11.435-11.436v-1.166
					c0-6.309,5.131-11.436,11.435-11.436h166.97c6.304,0,11.435,5.127,11.435,11.436v1.166
					C262.919,310.031,257.788,315.158,251.484,315.158z M84.515,295.291c-4.007,0-7.265,3.258-7.265,7.266v1.166
					c0,4.004,3.258,7.26,7.265,7.26h166.97c4.002,0,7.26-3.256,7.26-7.26v-1.166c0-4.008-3.258-7.266-7.26-7.266H84.515z"/>
			</g>
		</g>
		<g>
			<g>
				<path fill="#FFFFFF" d="M96.306,276.174c-1.153,0-2.09-0.934-2.09-2.086v-2.254c0-1.152,0.937-2.084,2.09-2.084
					s2.085,0.932,2.085,2.084v2.254C98.391,275.24,97.459,276.174,96.306,276.174z"/>
			</g>
		</g>
		<g>
			<g>
				<path fill="#FFFFFF" d="M96.306,266.703c-1.153,0-2.09-0.932-2.09-2.086v-9.547c0-2.104,1.187-5.713,4.531-8.945
					c4.968-4.801,13.837-3.941,14.207-3.906c1.148,0.119,1.979,1.143,1.859,2.287c-0.115,1.148-1.144,1.988-2.287,1.863
					c-0.077-0.004-7.317-0.688-10.873,2.758c-2.58,2.488-3.263,4.979-3.263,5.943v9.547
					C98.391,265.771,97.459,266.703,96.306,266.703z"/>
			</g>
		</g>
		<g>
			<g>
				<path fill="#06196A" d="M181.282,134.755c-0.701,0-1.384-0.355-1.777-0.997c-0.605-0.982-0.298-2.268,0.682-2.873
					c5.468-3.358,10.652-7.209,15.404-11.444c4.339-3.868,8.379-8.113,12.007-12.612c0.721-0.896,2.042-1.043,2.936-0.315
					c0.898,0.724,1.038,2.037,0.317,2.936c-3.771,4.678-7.972,9.089-12.482,13.11c-4.939,4.398-10.316,8.398-15.99,11.887
					C182.036,134.655,181.657,134.755,181.282,134.755z"/>
			</g>
		</g>
		<g>
			<g>
				<path fill="#06196A" d="M213.104,103.926c-0.36,0-0.73-0.097-1.066-0.296c-0.989-0.588-1.312-1.871-0.726-2.861l2.196-3.692
					c0.591-0.989,1.873-1.313,2.863-0.726c0.99,0.589,1.316,1.872,0.726,2.861l-2.196,3.692
					C214.512,103.561,213.814,103.926,213.104,103.926z"/>
			</g>
		</g>
	</g>
</g>
</svg>
