<?xml version="1.0" encoding="utf-8"?>
<!-- Generator: Adobe Illustrator 15.0.0, SVG Export Plug-In . SVG Version: 6.00 Build 0)  -->
<!DOCTYPE svg PUBLIC "-//W3C//DTD SVG 1.1//EN" "http://www.w3.org/Graphics/SVG/1.1/DTD/svg11.dtd">
<svg version="1.1" id="Layer_1" xmlns="http://www.w3.org/2000/svg" xmlns:xlink="http://www.w3.org/1999/xlink" x="0px" y="0px"
	 width="350px" height="268px" viewBox="0 0 350 268" enable-background="new 0 0 350 268" xml:space="preserve">
<g>
	<g opacity="0.5">
		<g id="XMLID_272_">
			<g>
				<g>
					<path fill="#F5BFBA" d="M260.869,132.943h-1.473c-3.057,0-5.535-2.479-5.535-5.537v-19.999c0-3.056,2.479-5.537,5.535-5.537
						h1.473c3.059,0,5.537,2.48,5.537,5.537v19.999C266.406,130.465,263.928,132.943,260.869,132.943z"/>
				</g>
			</g>
		</g>
		<g id="XMLID_271_">
			<g>
				<g>
					<path fill="#F5BFBA" d="M278.018,132.943h-1.469c-3.059,0-5.535-2.479-5.535-5.537v-13.169c0-3.056,2.477-5.536,5.535-5.536
						h1.469c3.059,0,5.535,2.48,5.535,5.536v13.169C283.553,130.465,281.076,132.943,278.018,132.943z"/>
				</g>
			</g>
		</g>
		<g id="XMLID_270_">
			<g>
				<g>
					<path fill="#F5BFBA" d="M295.17,132.943h-1.473c-3.059,0-5.537-2.479-5.537-5.537V98.501c0-3.058,2.479-5.536,5.537-5.536
						h1.473c3.053,0,5.531,2.478,5.531,5.536v28.905C300.701,130.465,298.223,132.943,295.17,132.943z"/>
				</g>
			</g>
		</g>
		<g id="XMLID_269_">
			<g>
				<g>
					<path fill="#F5BFBA" d="M312.316,132.943h-1.467c-3.059,0-5.537-2.479-5.537-5.537v-6.396c0-3.054,2.479-5.532,5.537-5.532
						h1.467c3.059,0,5.537,2.478,5.537,5.532v6.396C317.854,130.465,315.375,132.943,312.316,132.943z"/>
				</g>
			</g>
		</g>
		<g>
			<g>
				<g>
					<path fill="#F5BFBA" d="M319.955,136.31H251.76c-0.309,0-0.559-0.284-0.559-0.633c0-0.345,0.25-0.629,0.559-0.629h68.195
						c0.307,0,0.559,0.284,0.559,0.629C320.514,136.026,320.262,136.31,319.955,136.31z"/>
				</g>
			</g>
		</g>
	</g>
	<g opacity="0.1">
		<g>
			<path fill="#06196A" d="M279.141,237.984c-15.713,2.227-30.252-8.707-32.475-24.42c-2.223-15.712,8.707-30.248,24.42-32.471
				c15.709-2.227,30.248,8.705,32.471,24.416C305.783,221.223,294.85,235.758,279.141,237.984z"/>
		</g>
	</g>
	<g opacity="0.69">
		<g>
			<polygon fill="#9BA9DD" points="270.777,253.842 276.477,252.037 278.285,246.336 280.09,252.037 285.787,253.842 
				280.09,255.648 278.285,261.346 276.477,255.648 			"/>
			<polygon fill="#06196A" points="278.289,268.217 274.82,257.303 263.898,253.842 274.82,250.383 278.289,239.461 
				281.744,250.383 292.666,253.842 281.744,257.303 			"/>
		</g>
		<g>
			<path fill="#06196A" d="M278.281,262.182L278.281,262.182c-0.361,0-0.686-0.236-0.795-0.584l-1.676-5.285l-5.283-1.674
				c-0.35-0.111-0.586-0.436-0.586-0.801c0-0.359,0.236-0.682,0.586-0.793l5.283-1.676l1.676-5.285c0.219-0.697,1.371-0.697,1.594,0
				l1.676,5.285l5.283,1.676c0.35,0.111,0.584,0.434,0.584,0.793c0,0.365-0.234,0.689-0.584,0.801l-5.283,1.674l-1.676,5.285
				C278.971,261.945,278.646,262.182,278.281,262.182z M273.539,253.838l3.188,1.016c0.26,0.08,0.463,0.283,0.549,0.543l1.006,3.188
				l1.01-3.188c0.086-0.26,0.287-0.463,0.547-0.543l3.188-1.016l-3.188-1.004c-0.26-0.086-0.461-0.289-0.547-0.549l-1.01-3.184
				l-1.006,3.184c-0.086,0.26-0.289,0.463-0.549,0.549L273.539,253.838z"/>
		</g>
	</g>
	<g opacity="0.5">
		<g>
			<path fill="#06196A" d="M292.545,199.053c-0.396,0-0.738-0.276-0.818-0.666l-1.902-8.938l-8.943-1.906
				c-0.385-0.081-0.662-0.422-0.662-0.814c0-0.395,0.277-0.735,0.662-0.815l8.943-1.906l1.902-8.939
				c0.166-0.771,1.471-0.771,1.633,0l1.906,8.939l8.943,1.906c0.387,0.08,0.662,0.421,0.662,0.815c0,0.393-0.275,0.733-0.662,0.814
				l-8.943,1.906l-1.906,8.938C293.279,198.777,292.939,199.053,292.545,199.053z M285.066,186.728l5.633,1.199
				c0.324,0.069,0.576,0.321,0.646,0.642l1.199,5.638l1.201-5.638c0.068-0.32,0.32-0.572,0.641-0.642l5.637-1.199l-5.637-1.201
				c-0.32-0.069-0.572-0.32-0.641-0.645l-1.201-5.634l-1.199,5.634c-0.07,0.324-0.322,0.575-0.646,0.645L285.066,186.728z"/>
		</g>
	</g>
	<g opacity="0.5">
		<g>
			<path fill="#06196A" d="M283.781,154.856c-0.199,0-0.369-0.137-0.41-0.333l-0.953-4.474l-4.469-0.949
				c-0.195-0.041-0.334-0.211-0.334-0.405c0-0.203,0.139-0.374,0.334-0.414l4.469-0.949l0.953-4.47c0.082-0.389,0.734-0.389,0.814,0
				l0.953,4.47l4.475,0.949c0.189,0.041,0.328,0.211,0.328,0.414c0,0.194-0.139,0.364-0.328,0.405l-4.475,0.949l-0.953,4.474
				C284.146,154.719,283.975,154.856,283.781,154.856z M280.041,148.696l2.818,0.595c0.158,0.037,0.285,0.159,0.32,0.321
				l0.602,2.818l0.6-2.818c0.033-0.162,0.158-0.284,0.32-0.321l2.818-0.595l-2.818-0.604c-0.162-0.037-0.287-0.158-0.32-0.321
				l-0.6-2.815l-0.602,2.815c-0.035,0.163-0.162,0.284-0.32,0.321L280.041,148.696z"/>
		</g>
	</g>
	<g opacity="0.76">
		<g>
			<path fill="#06196A" d="M319.209,228.223c-1.303,0-2.576-0.633-3.336-1.801c-1.191-1.842-0.668-4.305,1.164-5.496l0,0
				c1.842-1.195,4.305-0.67,5.492,1.164c1.193,1.834,0.67,4.299-1.164,5.492C320.695,228.016,319.949,228.223,319.209,228.223z
				 M317.639,221.846c-1.326,0.865-1.707,2.646-0.844,3.975c0.863,1.322,2.645,1.705,3.971,0.844
				c1.326-0.867,1.707-2.648,0.844-3.975C320.746,221.359,318.965,220.979,317.639,221.846z"/>
		</g>
	</g>
	<g opacity="0.58">
		<g>
			<path fill="#06196A" d="M277.26,84.363c-1.348,0-2.471-1.061-2.531-2.419c-0.029-0.675,0.207-1.32,0.66-1.821
				c0.459-0.499,1.084-0.789,1.756-0.819c0.658-0.035,1.322,0.203,1.822,0.659c0.498,0.457,0.791,1.079,0.818,1.756
				c0.066,1.394-1.018,2.578-2.412,2.643C277.336,84.363,277.295,84.363,277.26,84.363z M277.262,80.106
				c-0.027,0-0.051,0-0.08,0.002c-0.463,0.019-0.889,0.219-1.197,0.558c-0.311,0.341-0.475,0.783-0.449,1.243
				c0.041,0.925,0.807,1.651,1.725,1.651c0.023,0,0.047,0,0.076-0.004c0.949-0.041,1.688-0.85,1.646-1.803
				c-0.02-0.458-0.219-0.884-0.561-1.196C278.104,80.264,277.693,80.106,277.262,80.106z"/>
		</g>
	</g>
	<g opacity="0.5">
		<g>
			<circle fill="#06196A" cx="286.23" cy="220.186" r="4.334"/>
		</g>
	</g>
	<g opacity="0.55">
		<g>
			<g>
				<path fill="#06196A" d="M332.008,82.438c0,0-0.004,0-0.008,0l-25.99-0.199c-0.49-0.004-0.883-0.403-0.881-0.896
					c0.006-0.486,0.398-0.88,0.889-0.88c0,0,0,0,0.006,0l25.992,0.199c0.49,0.004,0.881,0.405,0.881,0.896
					C332.893,82.047,332.496,82.438,332.008,82.438z"/>
			</g>
		</g>
		<g>
			<g>
				<path fill="#06196A" d="M344.145,82.552h-0.01l-5.93-0.042c-0.49-0.002-0.885-0.403-0.881-0.892
					c0.006-0.489,0.398-0.882,0.885-0.882c0.004,0,0.008,0,0.008,0l5.93,0.043c0.492,0.003,0.885,0.403,0.885,0.892
					C345.027,82.158,344.631,82.552,344.145,82.552z"/>
			</g>
		</g>
	</g>
	<g opacity="0.2">
		<g>
			<g>
				<path fill="#06196A" d="M337.195,109.647h-0.008l-21.568-0.152c-0.527-0.004-0.953-0.434-0.949-0.957
					c0.004-0.525,0.43-0.947,0.953-0.947h0.004l21.572,0.154c0.527,0.002,0.949,0.432,0.945,0.957
					C338.141,109.225,337.715,109.647,337.195,109.647z"/>
			</g>
		</g>
		<g>
			<g>
				<path fill="#06196A" d="M349.051,109.738c-0.004,0-0.004,0-0.004,0l-4.924-0.031c-0.527-0.004-0.953-0.432-0.949-0.959
					c0.004-0.523,0.43-0.945,0.953-0.945h0.004l4.924,0.03c0.527,0.004,0.949,0.432,0.945,0.959
					C349.996,109.316,349.574,109.738,349.051,109.738z"/>
			</g>
		</g>
	</g>
	<g opacity="0.4">
		<g>
			<g>
				<path fill="#06196A" d="M292.297,61.681c0.24,0,0.432,0.19,0.432,0.43v0.221c0.592,0.07,1.09,0.261,1.553,0.551
					c0.158,0.089,0.299,0.239,0.299,0.48c0,0.311-0.25,0.55-0.562,0.55c-0.098,0-0.199-0.028-0.301-0.089
					c-0.348-0.211-0.689-0.361-1.029-0.44v1.922c1.52,0.379,2.174,0.991,2.174,2.062c0,1.103-0.863,1.833-2.133,1.953v0.603
					c0,0.239-0.191,0.43-0.432,0.43c-0.238,0-0.441-0.19-0.441-0.43v-0.623c-0.75-0.079-1.443-0.351-2.053-0.781
					c-0.17-0.109-0.271-0.269-0.271-0.48c0-0.31,0.24-0.552,0.553-0.552c0.121,0,0.238,0.041,0.328,0.112
					c0.475,0.341,0.934,0.57,1.484,0.671v-1.974c-1.465-0.381-2.143-0.93-2.143-2.062c0-1.073,0.848-1.813,2.102-1.915v-0.21
					C291.855,61.871,292.059,61.681,292.297,61.681z M291.896,65.096v-1.772c-0.641,0.061-0.961,0.402-0.961,0.842
					C290.936,64.585,291.125,64.846,291.896,65.096z M292.688,66.489v1.821c0.641-0.069,0.992-0.39,0.992-0.87
					C293.68,67,293.457,66.728,292.688,66.489z"/>
			</g>
		</g>
	</g>
	<g opacity="0.3">
		<g>
			<path fill="#06196A" d="M277.521,61.119c0,4.659-3.77,8.433-8.432,8.433c-4.656,0-8.428-3.774-8.428-8.433
				c0-4.655,3.771-8.43,8.428-8.43C273.752,52.689,277.521,56.463,277.521,61.119z"/>
		</g>
	</g>
	<g opacity="0.5">
		<g id="XMLID_257_">
			<g id="XMLID_258_">
				<g id="XMLID_268_">
					<g>
						<g>
							<path fill="#F5BFBA" d="M10.583,225.936L10.583,225.936c-2.184,0-3.954-1.77-3.954-3.955v-11.262
								c0-2.184,1.77-3.951,3.954-3.951l0,0c2.184,0,3.956,1.768,3.956,3.951v11.262C14.54,224.166,12.768,225.936,10.583,225.936z"
								/>
						</g>
					</g>
				</g>
				<g id="XMLID_267_">
					<g>
						<g>
							<path fill="#F5BFBA" d="M22.299,225.936L22.299,225.936c-2.185,0-3.955-1.77-3.955-3.955v-50.353
								c0-2.189,1.77-3.958,3.955-3.958l0,0c2.184,0,3.954,1.769,3.954,3.958v50.353C26.253,224.166,24.482,225.936,22.299,225.936z
								"/>
						</g>
					</g>
				</g>
				<g id="XMLID_266_">
					<g>
						<g>
							<path fill="#F5BFBA" d="M36.822,225.936L36.822,225.936c-2.184,0-3.956-1.77-3.956-3.955v-34.122
								c0-2.183,1.772-3.95,3.956-3.95l0,0c2.185,0,3.955,1.768,3.955,3.95v34.122C40.777,224.166,39.007,225.936,36.822,225.936z"
								/>
						</g>
					</g>
				</g>
				<g id="XMLID_265_">
					<g>
						<g>
							<path fill="#F5BFBA" d="M48.536,225.936L48.536,225.936c-2.184,0-3.954-1.77-3.954-3.955v-79.077
								c0-2.186,1.77-3.958,3.954-3.958l0,0c2.186,0,3.957,1.773,3.957,3.958v79.077C52.492,224.166,50.722,225.936,48.536,225.936z
								"/>
						</g>
					</g>
				</g>
				<g id="XMLID_264_">
					<g>
						<g>
							<path fill="#F5BFBA" d="M63.059,225.936L63.059,225.936c-2.184,0-3.954-1.77-3.954-3.955v-48.613
								c0-2.186,1.771-3.954,3.954-3.954l0,0c2.187,0,3.957,1.768,3.957,3.954v48.613C67.016,224.166,65.246,225.936,63.059,225.936
								z"/>
						</g>
					</g>
				</g>
				<g id="XMLID_263_">
					<g>
						<g>
							<path fill="#F5BFBA" d="M74.775,225.936L74.775,225.936c-2.184,0-3.955-1.77-3.955-3.955v-62.297
								c0-2.187,1.771-3.955,3.955-3.955l0,0c2.184,0,3.954,1.768,3.954,3.955v62.297C78.729,224.166,76.959,225.936,74.775,225.936
								z"/>
						</g>
					</g>
				</g>
				<g id="XMLID_262_">
					<g>
						<g>
							<path fill="#F5BFBA" d="M89.298,225.936L89.298,225.936c-2.184,0-3.954-1.77-3.954-3.955v-55.941
								c0-2.182,1.771-3.955,3.954-3.955l0,0c2.184,0,3.955,1.773,3.955,3.955v55.941C93.253,224.166,91.482,225.936,89.298,225.936
								z"/>
						</g>
					</g>
				</g>
				<g id="XMLID_261_">
					<g>
						<g>
							<path fill="#F5BFBA" d="M101.014,225.936L101.014,225.936c-2.184,0-3.956-1.77-3.956-3.955V119.868
								c0-2.187,1.772-3.957,3.956-3.957l0,0c2.185,0,3.955,1.77,3.955,3.957V221.98
								C104.968,224.166,103.198,225.936,101.014,225.936z"/>
						</g>
					</g>
				</g>
				<g id="XMLID_260_">
					<g>
						<g>
							<path fill="#F5BFBA" d="M115.538,225.936L115.538,225.936c-2.186,0-3.957-1.77-3.957-3.955V158.52
								c0-2.182,1.771-3.955,3.957-3.955l0,0c2.184,0,3.955,1.772,3.955,3.955v63.461
								C119.492,224.166,117.722,225.936,115.538,225.936z"/>
						</g>
					</g>
				</g>
				<g id="XMLID_259_">
					<g>
						<g>
							<path fill="#F5BFBA" d="M127.25,225.936L127.25,225.936c-2.184,0-3.954-1.77-3.954-3.955v-79.1
								c0-2.182,1.771-3.951,3.954-3.951l0,0c2.187,0,3.958,1.769,3.958,3.951v79.1C131.209,224.166,129.437,225.936,127.25,225.936
								z"/>
						</g>
					</g>
				</g>
			</g>
		</g>
		<g>
			<g>
				<g>
					<path fill="#F5BFBA" d="M136.725,232.055H1.113C0.5,232.055,0,231.557,0,230.939c0-0.607,0.5-1.111,1.113-1.111h135.612
						c0.608,0,1.111,0.504,1.111,1.111C137.836,231.557,137.333,232.055,136.725,232.055z"/>
				</g>
			</g>
		</g>
	</g>
	<g opacity="0.1">
		<g>
			<path fill="#06196A" d="M63.206,254.633c3.606,0.512,6.943-1.998,7.455-5.604c0.509-3.611-2-6.943-5.607-7.455
				c-3.605-0.512-6.944,1.994-7.455,5.605C57.089,250.785,59.598,254.123,63.206,254.633z"/>
		</g>
	</g>
	<g opacity="0.1">
		<g>
			<circle fill="#06196A" cx="86.9" cy="95.127" r="25.573"/>
		</g>
	</g>
	<g opacity="0.1">
		<g>
			<circle fill="#06196A" cx="36.144" cy="67.395" r="6.595"/>
		</g>
	</g>
	<g opacity="0.43">
		<g>
			<path fill="#06196A" d="M67.391,118.213c-0.207,0-0.383-0.146-0.426-0.349l-1.002-4.682l-4.682-1
				c-0.203-0.042-0.347-0.221-0.347-0.428c0-0.207,0.144-0.385,0.347-0.428l4.682-0.998l1.002-4.683
				c0.042-0.205,0.219-0.347,0.426-0.347l0,0c0.209,0,0.385,0.142,0.428,0.347l0.998,4.683l4.686,0.998
				c0.203,0.043,0.345,0.221,0.345,0.428c0,0.207-0.142,0.386-0.345,0.428l-4.686,1l-0.998,4.682
				C67.776,118.066,67.6,118.213,67.391,118.213z M63.473,111.753l2.953,0.631c0.168,0.035,0.3,0.168,0.337,0.336l0.628,2.951
				l0.628-2.951c0.037-0.168,0.168-0.302,0.337-0.336l2.955-0.631l-2.955-0.628c-0.168-0.035-0.3-0.168-0.337-0.336l-0.628-2.953
				l-0.628,2.953c-0.037,0.168-0.168,0.302-0.337,0.336L63.473,111.753z"/>
		</g>
	</g>
	<g opacity="0.71">
		<g>
			<g>
				<path fill="#06196A" d="M66.623,64.443c-3.285,0-5.956-2.673-5.956-5.956c0-3.285,2.671-5.958,5.956-5.958
					c3.283,0,5.958,2.673,5.958,5.958c0,0.389-0.316,0.706-0.706,0.706c-0.391,0-0.708-0.316-0.708-0.706
					c0-2.508-2.038-4.546-4.544-4.546c-2.504,0-4.544,2.038-4.544,4.546c0,2.504,2.04,4.542,4.544,4.542
					c0.392,0,0.706,0.316,0.706,0.706C67.329,64.126,67.014,64.443,66.623,64.443z"/>
			</g>
		</g>
		<g>
			<g>
				<path fill="#06196A" d="M66.628,61.683c-1.119,0-2.204-0.583-2.792-1.624c-0.866-1.533-0.323-3.49,1.21-4.36
					c0.341-0.19,0.769-0.069,0.963,0.268c0.193,0.341,0.073,0.769-0.266,0.963c-0.86,0.485-1.165,1.578-0.678,2.438
					c0.483,0.856,1.574,1.158,2.438,0.675c0.856-0.484,1.16-1.58,0.675-2.437c-0.192-0.339-0.073-0.771,0.268-0.961
					c0.333-0.191,0.771-0.073,0.961,0.268c0.868,1.535,0.324,3.492-1.211,4.36C67.702,61.551,67.162,61.683,66.628,61.683z"/>
			</g>
		</g>
	</g>
	<g opacity="0.98">
		<g>
			<g>
				<path fill="#06196A" d="M45.281,121.98c-2.32,0-4.208-1.886-4.208-4.208c0-2.318,1.888-4.207,4.208-4.207
					c2.32,0,4.208,1.888,4.208,4.207C49.489,120.094,47.601,121.98,45.281,121.98z M45.281,114.611
					c-1.746,0-3.164,1.417-3.164,3.162c0,1.746,1.417,3.165,3.164,3.165c1.744,0,3.164-1.419,3.164-3.165
					C48.444,116.028,47.025,114.611,45.281,114.611z"/>
			</g>
		</g>
		<g>
			<g>
				<circle fill="#06196A" cx="45.28" cy="117.772" r="2.068"/>
			</g>
		</g>
	</g>
	<g opacity="0.91">
		<g>
			<g>
				<path fill="#06196A" d="M50.665,92.625c-0.678,0-1.231-0.549-1.235-1.231c-0.002-0.681,0.547-1.237,1.23-1.241l17.582-0.085
					h0.006c0.679,0,1.233,0.549,1.237,1.231c0,0.683-0.547,1.237-1.231,1.241l-17.583,0.085H50.665z"/>
			</g>
		</g>
		<g>
			<g>
				<path fill="#06196A" d="M41.002,92.688c-0.681,0-1.233-0.552-1.235-1.233c-0.004-0.684,0.547-1.237,1.23-1.239l4.014-0.014
					c0.594-0.03,1.237,0.55,1.241,1.233c0.002,0.681-0.55,1.235-1.233,1.239l-4.014,0.014
					C41.004,92.688,41.004,92.688,41.002,92.688z"/>
			</g>
		</g>
	</g>
	<g opacity="0.83">
		<g>
			<g>
				<path fill="#06196A" d="M65.15,81.004c-0.677,0-1.231-0.547-1.237-1.225c-0.004-0.681,0.543-1.241,1.226-1.247l10.122-0.087
					c0,0,0.006,0,0.008,0c0.678,0,1.231,0.547,1.237,1.227c0.006,0.682-0.543,1.241-1.227,1.245l-10.12,0.087
					C65.158,81.004,65.154,81.004,65.15,81.004z"/>
			</g>
		</g>
		<g>
			<g>
				<path fill="#06196A" d="M57.976,81.065c-0.677,0-1.229-0.548-1.235-1.225c-0.006-0.683,0.543-1.239,1.223-1.247l1.525-0.014
					c0.004,0,0.008,0,0.012,0c0.677,0,1.227,0.548,1.235,1.225c0.006,0.683-0.544,1.239-1.223,1.247l-1.525,0.014
					C57.983,81.065,57.979,81.065,57.976,81.065z"/>
			</g>
		</g>
	</g>
	<g>
		<g>
			<g>
				<path fill="#9BA9DD" d="M247.543,263.531H103.175c-9.367,0-16.959-7.592-16.959-16.953V36.267
					c0-9.357,7.587-16.941,16.943-16.941h144.366c9.365,0,16.959,7.592,16.959,16.959v210.311
					C264.484,255.947,256.898,263.531,247.543,263.531z"/>
				<path fill="#06196A" d="M247.543,265.609H103.175c-10.497,0-19.036-8.539-19.036-19.031V36.267
					c0-10.486,8.531-19.018,19.02-19.018h144.366c10.496,0,19.033,8.54,19.033,19.036v210.311
					C266.559,257.08,258.031,265.609,247.543,265.609z M103.159,21.402c-8.196,0-14.866,6.668-14.866,14.865v210.311
					c0,8.205,6.675,14.877,14.882,14.877h144.368c8.195,0,14.863-6.668,14.863-14.859V36.285c0-8.207-6.676-14.883-14.881-14.883
					H103.159z"/>
			</g>
			<g>
				<path fill="#06196A" d="M247.543,265.896H103.175c-10.654,0-19.32-8.668-19.32-19.318V36.267
					c0-10.645,8.657-19.304,19.302-19.304h144.368c10.654,0,19.322,8.665,19.322,19.32v210.308
					C266.848,257.238,258.189,265.896,247.543,265.896z M103.157,21.687c-8.039,0-14.579,6.54-14.579,14.581v210.311
					c0,8.047,6.548,14.594,14.597,14.594h144.368c8.041,0,14.58-6.543,14.58-14.58V36.284c0-8.049-6.547-14.597-14.598-14.597
					H103.157z"/>
			</g>
		</g>
		<g>
			<g>
				<path fill="#F5BFBA" d="M255.764,55.228v177.975c0,10.314-8.506,18.818-18.824,18.818H120.707
					c-9.292,0-17.008-6.926-18.425-15.826c2.914,6.061,9.213,10.314,16.379,10.314h113.242c10.078,0,18.35-8.27,18.35-18.35V54.756
					c0-10.158-8.271-18.349-18.35-18.349h5.037C247.334,36.407,255.764,44.833,255.764,55.228z"/>
			</g>
		</g>
		<g>
			<g>
				<path fill="#FFFFFF" d="M231.883,246.475H118.668c-10.005,0-18.194-8.186-18.194-18.195V54.731
					c0-10.09,8.255-18.346,18.346-18.346h113.062c10.131,0,18.344,8.213,18.344,18.346v173.394
					C250.227,238.215,241.969,246.475,231.883,246.475z"/>
			</g>
			<g>
				<path fill="#06196A" d="M231.883,248.834H118.668c-11.334,0-20.555-9.219-20.555-20.555V54.729
					c0-11.417,9.288-20.707,20.707-20.707h113.062c11.416,0,20.703,9.29,20.703,20.707v173.4
					C252.586,239.547,243.299,248.834,231.883,248.834z M118.821,38.745c-8.813,0-15.984,7.17-15.984,15.984v173.55
					c0,8.729,7.104,15.834,15.832,15.834h113.214c8.812,0,15.984-7.172,15.984-15.984v-173.4c0-8.813-7.172-15.984-15.984-15.984
					H118.821z"/>
			</g>
		</g>
		<g>
			<g>
				<path fill="#9BA9DD" d="M142.877,82.576c0,8.028-6.12,14.528-13.684,14.528c-7.55,0-13.674-6.5-13.674-14.528
					c0-7.99,6.124-14.524,13.674-14.524C136.757,68.052,142.877,74.586,142.877,82.576z"/>
				<path fill="#06196A" d="M129.193,99.181c-8.686,0-15.75-7.448-15.75-16.604c0-9.154,7.065-16.6,15.75-16.6
					c8.691,0,15.761,7.446,15.761,16.6C144.955,91.732,137.885,99.181,129.193,99.181z M129.193,70.129
					c-6.394,0-11.598,5.583-11.598,12.447c0,6.866,5.204,12.451,11.598,12.451c6.4,0,11.608-5.585,11.608-12.451
					C140.801,75.712,135.593,70.129,129.193,70.129z"/>
			</g>
			<g>
				<path fill="#06196A" d="M129.193,99.467c-8.841,0-16.035-7.576-16.035-16.891c0-9.31,7.193-16.884,16.035-16.884
					c8.846,0,16.045,7.574,16.045,16.884C145.238,91.891,138.039,99.467,129.193,99.467z M129.193,70.415
					c-6.236,0-11.312,5.458-11.312,12.162c0,6.708,5.076,12.168,11.312,12.168c6.242,0,11.32-5.46,11.32-12.168
					C140.513,75.872,135.436,70.415,129.193,70.415z"/>
			</g>
		</g>
		<g>
			<g>
				<path fill="#C3FBED" d="M140.327,121.153c0,6.501-4.977,11.798-11.133,11.798c-6.132,0-11.119-5.297-11.119-11.798
					c0-6.534,4.987-11.833,11.119-11.833C135.35,109.32,140.327,114.619,140.327,121.153z"/>
			</g>
		</g>
		<g>
			<g>
				<path fill="#C3FBED" d="M140.327,161.699c0,6.535-4.977,11.803-11.133,11.803c-6.132,0-11.119-5.268-11.119-11.803
					c0-6.498,4.987-11.798,11.119-11.798C135.35,149.901,140.327,155.201,140.327,161.699z"/>
			</g>
		</g>
		<g>
			<g>
				<path fill="#C3FBED" d="M140.327,202.127c0,6.49-4.977,11.795-11.133,11.795c-6.132,0-11.119-5.305-11.119-11.795
					c0-6.538,4.987-11.838,11.119-11.838C135.35,190.289,140.327,195.589,140.327,202.127z"/>
			</g>
		</g>
		<g>
			<g>
				<path fill="#06196A" d="M228.836,87.954H154.06c-2.085,0-3.788-1.703-3.788-3.786l0,0c0-2.083,1.703-3.786,3.788-3.786h74.776
					c2.084,0,3.789,1.703,3.789,3.786l0,0C232.625,86.251,230.92,87.954,228.836,87.954z"/>
			</g>
		</g>
		<g>
			<g>
				<path fill="#06196A" d="M228.836,124.925H154.06c-2.085,0-3.788-1.703-3.788-3.784l0,0c0-2.085,1.703-3.788,3.788-3.788h74.776
					c2.084,0,3.789,1.703,3.789,3.788l0,0C232.625,123.222,230.92,124.925,228.836,124.925z"/>
			</g>
		</g>
		<g>
			<g>
				<path fill="#06196A" d="M228.836,165.503H154.06c-2.085,0-3.788-1.703-3.788-3.788l0,0c0-2.081,1.703-3.788,3.788-3.788h74.776
					c2.084,0,3.789,1.708,3.789,3.788l0,0C232.625,163.8,230.92,165.503,228.836,165.503z"/>
			</g>
		</g>
		<g>
			<g>
				<path fill="#06196A" d="M228.836,205.887H154.06c-2.085,0-3.788-1.703-3.788-3.783l0,0c0-2.085,1.703-3.789,3.788-3.789h74.776
					c2.084,0,3.789,1.703,3.789,3.789l0,0C232.625,204.184,230.92,205.887,228.836,205.887z"/>
			</g>
		</g>
		<g>
			<g>
				<g>
					<path fill="#06196A" d="M127.677,91.067c-0.014,0-0.026,0-0.041,0c-0.633-0.012-1.227-0.312-1.614-0.809l-5.007-6.477
						c-0.708-0.913-0.538-2.229,0.375-2.937c0.909-0.702,2.227-0.545,2.934,0.375l3.417,4.421l6.388-7.629
						c0.738-0.892,2.06-1.001,2.945-0.266c0.888,0.743,1.006,2.064,0.259,2.949l-8.053,9.625
						C128.881,90.795,128.297,91.067,127.677,91.067z"/>
				</g>
			</g>
		</g>
		<g>
			<g>
				<path fill="#FFFFFF" d="M94.342,39.544c-1.03,0-1.894-0.799-1.963-1.839c-0.108-1.639,0.057-4.099,1.458-6.506
					c3.472-5.976,11.022-5.846,11.352-5.822l11.235,0.041c1.086,0.004,1.965,0.89,1.961,1.977c-0.004,1.083-0.886,1.961-1.969,1.961
					c0,0-0.004,0-0.008,0l-11.283-0.042c-0.092,0.008-5.593-0.081-7.885,3.861c-0.9,1.552-1.006,3.182-0.931,4.273
					c0.071,1.085-0.75,2.022-1.835,2.095C94.427,39.542,94.386,39.544,94.342,39.544z"/>
			</g>
		</g>
		<g>
			<g>
				<path fill="#C3FBED" d="M204.762,14.013c-1.721-2.458-0.938-4.394-2.872-7.446c-0.827-1.31-2.485-3.001-6.197-4.038h-40.684
					c-3.593,1.03-5.296,2.697-6.188,4.038c-2.093,3.153-1.46,5.08-3.318,7.579c-2.848,3.833-6.992,1.578-12.09,4.751
					c-5.299,3.297-5.725,10.792-7.135,17.251c-0.729,3.344,2.019,6.457,5.443,6.457h87.26c3.424,0,6.174-3.113,5.443-6.457
					c-0.615-2.812-0.459-12.932-7.755-17.505C211.498,15.4,207.381,17.764,204.762,14.013z M189.361,19.326h-28.674
					c-2.312,0-4.202-1.893-4.202-4.204s1.89-4.204,4.202-4.204h28.674c2.312,0,4.202,1.892,4.202,4.204
					S191.674,19.326,189.361,19.326z"/>
			</g>
			<g>
				<path fill="#06196A" d="M218.98,45.133h-87.26c-2.48,0-4.796-1.107-6.355-3.043c-1.486-1.845-2.054-4.208-1.558-6.481
					c0.237-1.091,0.446-2.208,0.655-3.33c1.071-5.725,2.284-12.212,7.615-15.529c2.774-1.728,5.297-2.103,7.325-2.401
					c2.182-0.327,3.188-0.519,4.072-1.712c0.636-0.86,0.852-1.622,1.152-2.679c0.357-1.275,0.811-2.863,2.084-4.788
					c1.574-2.371,4.133-4.077,7.601-5.074L155.008,0l41.366,0.093c3.549,0.992,6.124,2.713,7.653,5.119
					c1.221,1.926,1.574,3.526,1.861,4.812c0.235,1.051,0.386,1.742,0.945,2.539l0,0c0.713,1.022,1.492,1.207,3.711,1.511
					c2.057,0.282,4.611,0.635,7.471,2.425c7.09,4.445,8.133,13.171,8.635,17.365c0.086,0.729,0.15,1.326,0.244,1.744
					c0.494,2.271-0.07,4.634-1.559,6.479C223.779,44.024,221.463,45.133,218.98,45.133z M155.378,5.056
					c-2.105,0.657-3.606,1.632-4.449,2.91c-0.844,1.264-1.12,2.237-1.436,3.367c-0.361,1.27-0.766,2.711-1.955,4.317
					c-2.174,2.925-4.948,3.336-7.394,3.699c-1.805,0.27-3.513,0.521-5.398,1.695c-3.439,2.142-4.348,7.008-5.313,12.164
					c-0.217,1.172-0.436,2.342-0.685,3.48c-0.231,1.053,0.251,1.85,0.558,2.229c0.584,0.728,1.486,1.162,2.415,1.162h87.26
					c0.93,0,1.83-0.436,2.418-1.162c0.305-0.379,0.781-1.176,0.557-2.229c-0.119-0.534-0.217-1.294-0.326-2.221
					c-0.471-3.936-1.258-10.519-6.299-13.681c-1.938-1.216-3.654-1.452-5.475-1.701c-2.4-0.331-5.127-0.706-7.166-3.624l0,0
					c-1.133-1.618-1.457-3.064-1.736-4.339c-0.244-1.087-0.451-2.022-1.201-3.202c-0.795-1.251-2.279-2.214-4.42-2.863H155.378z
					 M189.361,21.853h-28.674c-3.711,0-6.733-3.02-6.733-6.73c0-3.713,3.022-6.73,6.733-6.73h28.674c3.711,0,6.732,3.017,6.732,6.73
					C196.094,18.833,193.072,21.853,189.361,21.853z M160.687,13.447c-0.909,0-1.671,0.769-1.671,1.675
					c0,0.906,0.763,1.675,1.671,1.675h28.674c0.908,0,1.676-0.769,1.676-1.675c0-0.907-0.768-1.675-1.676-1.675H160.687z"/>
			</g>
		</g>
	</g>
</g>
</svg>
