<?xml version="1.0" encoding="utf-8"?>
<!-- Generator: Adobe Illustrator 15.0.0, SVG Export Plug-In . SVG Version: 6.00 Build 0)  -->
<!DOCTYPE svg PUBLIC "-//W3C//DTD SVG 1.1//EN" "http://www.w3.org/Graphics/SVG/1.1/DTD/svg11.dtd">
<svg version="1.1" id="Layer_1" xmlns="http://www.w3.org/2000/svg" xmlns:xlink="http://www.w3.org/1999/xlink" x="0px" y="0px"
	 width="22px" height="22px" viewBox="0 0 22 22" enable-background="new 0 0 22 22" xml:space="preserve">
<g>
	<path fill="#FFFFFF" d="M18.664,5.176h-3.118l-1.865-1.885c0,0-0.01-0.009-0.014-0.009l-0.01-0.009l0,0
		c-0.276-0.277-0.651-0.453-1.078-0.453H8.701c-0.453,0-0.855,0.194-1.137,0.503v0.004L5.739,5.176H2.553
		C1.693,5.176,1,5.85,1,6.709v9.335c0,0.861,0.693,1.557,1.553,1.557h16.111c0.854,0,1.553-0.695,1.553-1.557V6.709
		C20.217,5.85,19.519,5.176,18.664,5.176z M10.608,15.271c-2.352,0-4.269-1.923-4.269-4.277c0-2.362,1.917-4.28,4.269-4.28
		c2.356,0,4.268,1.918,4.268,4.28C14.876,13.348,12.965,15.271,10.608,15.271z M18.372,7.647c-0.354,0-0.645-0.291-0.645-0.652
		c0-0.36,0.29-0.651,0.645-0.651c0.356,0,0.646,0.291,0.646,0.651C19.019,7.356,18.729,7.647,18.372,7.647z"/>
	<path fill="#FFFFFF" d="M10.608,7.759c-1.784,0-3.225,1.445-3.225,3.234c0,1.783,1.441,3.231,3.225,3.231
		c1.778,0,3.225-1.445,3.225-3.231C13.833,9.204,12.387,7.759,10.608,7.759z"/>
</g>
</svg>
