<?xml version="1.0" encoding="utf-8"?>
<!-- Generator: Adobe Illustrator 15.0.0, SVG Export Plug-In . SVG Version: 6.00 Build 0)  -->
<!DOCTYPE svg PUBLIC "-//W3C//DTD SVG 1.1//EN" "http://www.w3.org/Graphics/SVG/1.1/DTD/svg11.dtd">
<svg version="1.1" id="Layer_1" xmlns="http://www.w3.org/2000/svg" xmlns:xlink="http://www.w3.org/1999/xlink" x="0px" y="0px"
	 width="198px" height="30px" viewBox="0.042 0 198 30" enable-background="new 0.042 0 198 30" xml:space="preserve">
<g>
	<rect x="0.042" y="7.879" fill="#F9F9F9" width="42.353" height="14.117"/>
	<path fill="#09599E" d="M1.807-0.062h38.824c0.97,0,1.765,0.794,1.765,1.765V7.88H0.042V1.702C0.042,0.731,0.836-0.062,1.807-0.062
		z"/>
	<path fill="#E59703" d="M0.042,21.996h42.353v6.177c0,0.972-0.794,1.765-1.765,1.765H1.807c-0.971,0-1.765-0.793-1.765-1.765
		V21.996z"/>
	<path opacity="0.05" fill="#FFFFFF" enable-background="new    " d="M1.807,29.895c-0.971,0-1.765-0.795-1.765-1.766V1.702
		c0-0.971,0.794-1.765,1.765-1.765h38.824c0.97,0,1.765,0.794,1.765,1.765"/>
	<g>
		<polygon fill="#00589F" points="16.41,18.645 17.689,11.188 19.718,11.188 18.439,18.645 		"/>
		<path fill="#00589F" d="M25.807,11.408c-0.397-0.132-1.015-0.309-1.809-0.309c-2.03,0-3.441,1.015-3.441,2.471
			c0,1.059,1.015,1.676,1.765,2.03c0.794,0.353,1.059,0.617,1.059,0.926c0,0.484-0.618,0.75-1.235,0.75
			c-0.794,0-1.235-0.133-1.897-0.396l-0.265-0.177l-0.265,1.677c0.485,0.221,1.368,0.396,2.25,0.396c2.118,0,3.53-1.016,3.53-2.56
			c0-0.838-0.53-1.5-1.721-2.029c-0.706-0.353-1.147-0.574-1.147-0.926c0-0.309,0.353-0.662,1.147-0.662
			c0.662,0,1.147,0.132,1.5,0.265l0.176,0.088L25.807,11.408"/>
		<path fill="#00589F" d="M31.013,11.231h-1.588c-0.485,0-0.838,0.132-1.059,0.618l-3,6.838h2.118c0,0,0.353-0.928,0.441-1.104
			c0.221,0,2.294,0,2.603,0c0.044,0.266,0.265,1.104,0.265,1.104h1.897L31.013,11.231 M28.498,15.996
			c0.176-0.441,0.794-2.073,0.794-2.073s0.176-0.441,0.265-0.706l0.132,0.662c0,0,0.397,1.766,0.485,2.161h-1.676V15.996z"/>
		<path fill="#00589F" d="M14.689,11.231l-1.985,5.074l-0.22-1.015c-0.353-1.191-1.544-2.471-2.824-3.132l1.853,6.484h2.162
			l3.221-7.456H14.69"/>
		<path fill="#F9A51A" d="M10.851,11.188H7.586l-0.044,0.176c2.559,0.618,4.235,2.118,4.941,3.882l-0.706-3.397
			C11.689,11.364,11.292,11.231,10.851,11.188"/>
	</g>
</g>
<path fill="#4361C3" d="M53.63-0.084h38.824c0.971,0,1.765,0.794,1.765,1.765V28.15c0,0.972-0.794,1.767-1.765,1.767H53.63
	c-0.971,0-1.765-0.795-1.765-1.767V1.68C51.865,0.709,52.659-0.084,53.63-0.084z"/>
<path fill="#FFAF38" d="M78.115,8.739c3.528,0,6.397,2.868,6.397,6.396c0,3.53-2.869,6.397-6.397,6.397
	c-3.529,0-6.397-2.867-6.397-6.397C71.718,11.607,74.586,8.739,78.115,8.739z"/>
<rect x="72.601" y="11.827" fill="#FFAF38" width="4.412" height="0.882"/>
<path fill="#EB3636" d="M67.968,21.533c-3.529,0-6.397-2.867-6.397-6.397c0-3.529,2.868-6.396,6.397-6.396
	c3.529,0,6.397,2.868,6.397,6.396C74.365,18.666,71.498,21.533,67.968,21.533z"/>
<path fill="#FFAF38" d="M72.601,18.004v-0.883h5.735v0.883H72.601z M72.601,11.827h5.735v0.882h-5.735V11.827z M77.896,14.474H72.16
	v-0.882h5.735V14.474z M77.896,16.239H72.16v-0.882h5.735V16.239z"/>
<path opacity="0.05" fill="#FFFFFF" enable-background="new    " d="M53.63,29.916h0.794L94.218,2.474V1.68
	c0-0.971-0.794-1.765-1.765-1.765H53.63c-0.971,0-1.765,0.794-1.765,1.765v26.47C51.865,29.121,52.659,29.916,53.63,29.916z"/>
<g>
	<path fill="#F7F6F4" d="M105.077-0.085h38.824c0.971,0,1.765,0.794,1.765,1.765v26.47c0,0.971-0.794,1.765-1.765,1.765h-38.824
		c-0.971,0-1.764-0.794-1.764-1.765V1.68C103.313,0.709,104.106-0.085,105.077-0.085z"/>
	<path fill="#053385" d="M126.343,14.121l-4.059,5.955c-0.045,0.089-0.178,0.133-0.311,0.133h-1.234
		c-0.176,0-0.266-0.176-0.176-0.354l1.278-1.81l-1.323-4.014c-0.045-0.132,0.045-0.265,0.221-0.265h1.191
		c0.176,0,0.309,0.088,0.354,0.265l0.705,2.426l1.677-2.515c0.044-0.088,0.177-0.176,0.31-0.176h1.234
		C126.343,13.768,126.431,13.989,126.343,14.121z M118.886,18.533h-1.102c-0.133,0-0.221-0.133-0.221-0.266l0.043-0.354
		c0,0-0.617,0.706-1.676,0.706c-0.617,0-1.146-0.177-1.545-0.617c-0.396-0.485-0.572-1.19-0.441-1.897
		c0.222-1.456,1.369-2.471,2.736-2.471c0.573,0,1.19,0.132,1.455,0.529l0.088,0.132l0.045-0.353c0-0.088,0.088-0.176,0.221-0.176
		h1.234c0.133,0,0.221,0.132,0.221,0.265l-0.66,4.235C119.194,18.4,119.063,18.533,118.886,18.533z M117.784,15.312
		c-0.178-0.221-0.486-0.354-0.795-0.354c-0.705,0-1.234,0.485-1.367,1.19c-0.045,0.354,0,0.662,0.176,0.884
		c0.178,0.221,0.486,0.352,0.84,0.352c0.705,0,1.234-0.483,1.366-1.188C118.048,15.841,117.96,15.533,117.784,15.312z
		 M111.386,16.15h-0.793c-0.177,0-0.309,0.133-0.354,0.309l-0.266,1.766c-0.043,0.176-0.177,0.31-0.353,0.31h-1.19
		c-0.134,0-0.222-0.134-0.222-0.267l1.015-6.617c0.045-0.176,0.178-0.309,0.354-0.309h2.561c0.838,0,1.498,0.221,1.853,0.662
		c0.309,0.397,0.44,0.971,0.309,1.676C113.989,15.356,113.019,16.15,111.386,16.15z M112.269,13.106
		c-0.221-0.265-0.662-0.265-1.103-0.265h-0.177c-0.088,0-0.176,0.088-0.221,0.177l-0.266,1.721h0.396c0.662,0,1.367,0,1.5-0.927
		C112.444,13.503,112.401,13.239,112.269,13.106z"/>
	<path fill="#199DDB" d="M139.798,18.268c-0.044,0.178-0.176,0.31-0.354,0.31h-1.059c-0.132,0-0.221-0.132-0.221-0.265l1.061-6.706
		c0-0.088,0.088-0.177,0.219-0.177h1.19c0.134,0,0.222,0.132,0.222,0.265L139.798,18.268z M136.976,18.533h-1.104
		c-0.133,0-0.221-0.133-0.221-0.266l0.043-0.354c0,0-0.617,0.706-1.676,0.706c-0.617,0-1.146-0.177-1.545-0.617
		c-0.396-0.485-0.572-1.19-0.44-1.897c0.221-1.456,1.368-2.471,2.735-2.471c0.573,0,1.19,0.132,1.455,0.529l0.09,0.132l0.043-0.353
		c0-0.088,0.088-0.176,0.221-0.176h1.236c0.131,0,0.221,0.132,0.221,0.265l-0.662,4.235C137.327,18.4,137.151,18.533,136.976,18.533
		z M135.872,15.312c-0.178-0.221-0.484-0.354-0.795-0.354c-0.705,0-1.234,0.485-1.367,1.19c-0.044,0.354,0,0.662,0.176,0.884
		c0.178,0.221,0.486,0.352,0.84,0.352c0.705,0,1.234-0.483,1.367-1.188C136.138,15.841,136.093,15.533,135.872,15.312z
		 M129.476,16.15h-0.795c-0.177,0-0.309,0.133-0.354,0.309l-0.309,1.896c0,0.133-0.133,0.221-0.265,0.221h-1.323
		c-0.134,0-0.222-0.133-0.222-0.264l1.015-6.619c0.045-0.176,0.178-0.309,0.354-0.309h2.559c0.84,0,1.502,0.221,1.854,0.662
		c0.309,0.397,0.44,0.971,0.309,1.676C132.122,15.356,131.151,16.15,129.476,16.15z M130.356,13.106
		c-0.222-0.265-0.662-0.265-1.104-0.265h-0.177c-0.089,0-0.177,0.088-0.22,0.177l-0.266,1.721h0.396c0.662,0,1.367,0,1.5-0.927
		C130.534,13.503,130.489,13.239,130.356,13.106z"/>
	<path opacity="0.12" fill="#FFFFFF" enable-background="new    " d="M105.739,29.915c-1.323,0-2.426-1.103-2.426-2.47V2.386
		c0-1.368,1.059-2.471,2.426-2.471h37.544c1.323,0,2.427,1.103,2.427,2.471"/>
</g>
<path fill="#2AA0D0" d="M156.652,0h38.823c0.971,0,1.766,0.794,1.766,1.765v26.471c0,0.971-0.795,1.765-1.766,1.765h-38.823
	c-0.971,0-1.765-0.794-1.765-1.765V1.765C154.888,0.794,155.682,0,156.652,0z"/>
<path fill="#2AA0D0" d="M184.005,11.471h-5.293c-0.221,0-0.441,0.177-0.441,0.397c0-0.221-0.221-0.397-0.441-0.397h-2.559
	c-0.178,0-0.354,0.088-0.397,0.265l-1.411,3.529l-1.766-3.573c-0.088-0.133-0.221-0.265-0.396-0.265h-2.295
	c-0.264,0-0.441,0.176-0.441,0.441v4.146l-1.94-4.323c-0.089-0.177-0.221-0.265-0.397-0.265h-2.338
	c-0.176,0-0.309,0.088-0.396,0.265l-3.045,6.617c-0.044,0.133-0.044,0.31,0.045,0.441c0.088,0.132,0.221,0.221,0.353,0.221h1.897
	c0.176,0,0.353-0.089,0.396-0.265l0.662-1.5h2.426l0.618,1.5c0.088,0.176,0.221,0.265,0.397,0.265h3.529
	c0.264,0,0.441-0.177,0.441-0.441v-2.515l1.102,2.691c0.089,0.176,0.221,0.265,0.398,0.265h1.367c0.176,0,0.353-0.089,0.396-0.265
	l1.147-2.735v2.559c0,0.265,0.177,0.441,0.44,0.441h1.766c0.221,0,0.441-0.177,0.441-0.397c0,0.221,0.221,0.397,0.441,0.397h5.293
	c0.266,0,0.441-0.177,0.441-0.441v-1.323c0-0.265-0.176-0.441-0.441-0.441h-3.088v-0.441h3c0.266,0,0.441-0.177,0.441-0.44v-1.324
	c0-0.265-0.176-0.441-0.441-0.441h-3v-0.44h3.088c0.266,0,0.441-0.177,0.441-0.441v-1.323
	C184.446,11.691,184.226,11.471,184.005,11.471z M164.638,15l0.396-0.883L165.432,15H164.638z"/>
<path fill="#2AA0D0" d="M191.373,17.162l-1.765-1.897l1.765-1.897c0.089-0.088,0.132-0.176,0.132-0.309v-1.146
	c0-0.133-0.043-0.221-0.132-0.31c-0.089-0.088-0.177-0.132-0.31-0.132h-1.19c-0.132,0-0.265,0.044-0.353,0.132l-1.545,1.854
	l-1.588-1.809c-0.088-0.133-0.176-0.177-0.309-0.177h-1.191c-0.265,0-0.441,0.177-0.441,0.441v6.617
	c0,0.265,0.177,0.441,0.441,0.441h1.059c0.133,0,0.221-0.044,0.309-0.133l1.678-1.765l1.676,1.765
	c0.088,0.089,0.221,0.133,0.309,0.133h1.146c0.133,0,0.221-0.044,0.31-0.133c0.089-0.088,0.132-0.176,0.132-0.309v-1.059
	C191.505,17.338,191.462,17.25,191.373,17.162z M185.329,16.323v-2.162l1.014,1.06L185.329,16.323z"/>
<polygon fill="#FFFFFF" points="163.976,15.441 166.094,15.441 165.034,13.059 "/>
<polygon fill="#FFFFFF" points="184.888,17.471 186.962,15.265 184.888,13.059 "/>
<path fill="#FFFFFF" d="M191.726,16.854l-1.5-1.589l1.5-1.588c0.133-0.177,0.221-0.397,0.221-0.618v-1.146
	c0-0.221-0.088-0.441-0.264-0.618c-0.178-0.176-0.398-0.265-0.619-0.265h-1.19c-0.265,0-0.485,0.089-0.662,0.309l-1.235,1.412
	l-1.234-1.412c-0.178-0.176-0.398-0.309-0.662-0.309h-1.191c-0.177,0-0.309,0.044-0.441,0.133c-0.132-0.089-0.264-0.133-0.441-0.133
	h-5.293c-0.178,0-0.31,0.044-0.441,0.133c-0.133-0.089-0.266-0.133-0.441-0.133h-2.559c-0.354,0-0.706,0.221-0.839,0.573
	l-1.059,2.647l-1.323-2.691c-0.133-0.309-0.441-0.485-0.795-0.485h-2.25c-0.484,0-0.882,0.397-0.882,0.883v2.073l-1.103-2.427
	c-0.133-0.309-0.441-0.529-0.795-0.529h-2.338c-0.354,0-0.662,0.221-0.794,0.529l-3.044,6.618c-0.133,0.265-0.088,0.573,0.043,0.838
	c0.178,0.265,0.441,0.397,0.751,0.397h1.897c0.353,0,0.661-0.221,0.793-0.529l0.529-1.235h1.854l0.485,1.235
	c0.132,0.353,0.441,0.573,0.839,0.573h3.529c0.484,0,0.882-0.397,0.882-0.882v-0.31l0.265,0.662
	c0.133,0.309,0.441,0.529,0.795,0.529h1.367c0.353,0,0.662-0.221,0.838-0.529l0.265-0.662v0.221c0,0.485,0.397,0.883,0.882,0.883
	h1.766c0.176,0,0.309-0.044,0.441-0.133c0.132,0.089,0.264,0.133,0.441,0.133h5.293c0.178,0,0.31-0.044,0.441-0.133
	c0.133,0.089,0.265,0.133,0.441,0.133h1.059c0.221,0,0.485-0.089,0.662-0.265l1.367-1.456l1.367,1.456
	c0.178,0.176,0.398,0.265,0.662,0.265h1.059c0.221,0,0.441-0.089,0.619-0.265c0.176-0.177,0.264-0.397,0.264-0.618v-1.059
	C191.946,17.25,191.858,17.029,191.726,16.854z M177.829,18.529h-1.766v-4.809l-1.984,4.809h-1.367l-1.941-4.765v4.765h-3.529
	l-0.707-1.765h-3l-0.75,1.765h-1.896l3.044-6.617h2.339l2.779,6.176v-6.176h2.25l2.205,4.455l1.766-4.455h2.559V18.529z
	 M184.005,13.235h-3.529v1.323h3.441v1.324h-3.441v1.323h3.529v1.323h-5.293v-6.617h5.293V13.235z M190.005,18.529l-2.029-2.117
	l-2.029,2.117h-1.059v-6.617h1.191l1.896,2.205l1.897-2.205h1.19v1.146l-2.072,2.206l2.072,2.206v1.059H190.005z"/>
<path opacity="0.05" fill="#FFFFFF" enable-background="new    " d="M156.652,30h0.794l39.795-27.441V1.765
	c0-0.971-0.795-1.765-1.766-1.765h-38.823c-0.971,0-1.765,0.794-1.765,1.765v26.471C154.888,29.206,155.682,30,156.652,30z"/>
</svg>
