<?xml version="1.0" encoding="utf-8"?>
<!-- Generator: Adobe Illustrator 19.1.0, SVG Export Plug-In . SVG Version: 6.00 Build 0)  -->
<!DOCTYPE svg PUBLIC "-//W3C//DTD SVG 1.1//EN" "http://www.w3.org/Graphics/SVG/1.1/DTD/svg11.dtd">
<svg version="1.1" id="Layer_1" xmlns="http://www.w3.org/2000/svg" xmlns:xlink="http://www.w3.org/1999/xlink" x="0px" y="0px"
	 width="96px" height="68px" viewBox="0 0 96 68" enable-background="new 0 0 96 68" xml:space="preserve">
<g>
	<path fill="#F7F6F4" d="M4,0h88c2.2,0,4,1.8,4,4V64c0,2.2-1.8,4-4,4H4c-2.2,0-4-1.8-4-4V4C0,1.8,1.8,0,4,0z"/>
	<path fill="#053385" d="M52.2,32.2l-9.2,13.5c-0.1,0.2-0.4,0.3-0.7,0.3h-2.8c-0.4,0-0.6-0.4-0.4-0.8l2.9-4.1l-3-9.1
		c-0.1-0.3,0.1-0.6,0.5-0.6h2.7c0.4,0,0.7,0.2,0.8,0.6l1.6,5.5l3.8-5.7c0.1-0.2,0.4-0.4,0.7-0.4h2.8C52.2,31.4,52.4,31.9,52.2,32.2z
		 M35.3,42.2h-2.5c-0.3,0-0.5-0.3-0.5-0.6l0.1-0.8c0,0-1.4,1.6-3.8,1.6c-1.4,0-2.6-0.4-3.5-1.4c-0.9-1.1-1.3-2.7-1-4.3
		c0.5-3.3,3.1-5.6,6.2-5.6c1.3,0,2.7,0.3,3.3,1.2l0.2,0.3l0.1-0.8c0-0.2,0.2-0.4,0.5-0.4h2.8c0.3,0,0.5,0.3,0.5,0.6l-1.5,9.6
		C36,41.9,35.7,42.2,35.3,42.2z M32.8,34.9c-0.4-0.5-1.1-0.8-1.8-0.8c-1.6,0-2.8,1.1-3.1,2.7c-0.1,0.8,0,1.5,0.4,2
		c0.4,0.5,1.1,0.8,1.9,0.8c1.6,0,2.8-1.1,3.1-2.7C33.4,36.1,33.2,35.4,32.8,34.9z M18.3,36.8h-1.8c-0.4,0-0.7,0.3-0.8,0.7l-0.6,4
		c-0.1,0.4-0.4,0.7-0.8,0.7h-2.7c-0.3,0-0.5-0.3-0.5-0.6l2.3-15c0.1-0.4,0.4-0.7,0.8-0.7h5.8c1.9,0,3.4,0.5,4.2,1.5
		c0.7,0.9,1,2.2,0.7,3.8C24.2,35,22,36.8,18.3,36.8z M20.3,29.9c-0.5-0.6-1.5-0.6-2.5-0.6h-0.4c-0.2,0-0.4,0.2-0.5,0.4l-0.6,3.9h0.9
		c1.5,0,3.1,0,3.4-2.1C20.7,30.8,20.6,30.2,20.3,29.9z"/>
	<path fill="#199DDB" d="M82.7,41.6c-0.1,0.4-0.4,0.7-0.8,0.7h-2.4c-0.3,0-0.5-0.3-0.5-0.6l2.4-15.2c0-0.2,0.2-0.4,0.5-0.4h2.7
		c0.3,0,0.5,0.3,0.5,0.6L82.7,41.6z M76.3,42.2h-2.5c-0.3,0-0.5-0.3-0.5-0.6l0.1-0.8c0,0-1.4,1.6-3.8,1.6c-1.4,0-2.6-0.4-3.5-1.4
		c-0.9-1.1-1.3-2.7-1-4.3c0.5-3.3,3.1-5.6,6.2-5.6c1.3,0,2.7,0.3,3.3,1.2l0.2,0.3l0.1-0.8c0-0.2,0.2-0.4,0.5-0.4h2.8
		c0.3,0,0.5,0.3,0.5,0.6l-1.5,9.6C77.1,41.9,76.7,42.2,76.3,42.2z M73.8,34.9c-0.4-0.5-1.1-0.8-1.8-0.8c-1.6,0-2.8,1.1-3.1,2.7
		c-0.1,0.8,0,1.5,0.4,2c0.4,0.5,1.1,0.8,1.9,0.8c1.6,0,2.8-1.1,3.1-2.7C74.4,36.1,74.3,35.4,73.8,34.9z M59.3,36.8h-1.8
		c-0.4,0-0.7,0.3-0.8,0.7L56,41.8c0,0.3-0.3,0.5-0.6,0.5h-3c-0.3,0-0.5-0.3-0.5-0.6l2.3-15c0.1-0.4,0.4-0.7,0.8-0.7h5.8
		c1.9,0,3.4,0.5,4.2,1.5c0.7,0.9,1,2.2,0.7,3.8C65.3,35,63.1,36.8,59.3,36.8z M61.3,29.9c-0.5-0.6-1.5-0.6-2.5-0.6h-0.4
		c-0.2,0-0.4,0.2-0.5,0.4l-0.6,3.9h0.9c1.5,0,3.1,0,3.4-2.1C61.7,30.8,61.6,30.2,61.3,29.9z"/>
	<path opacity="0.12" fill="#FFFFFF" d="M5.5,68c-3,0-5.5-2.5-5.5-5.6V5.6C0,2.5,2.4,0,5.5,0h85.1
		c3,0,5.5,2.5,5.5,5.6"/>
</g>
</svg>
