<?xml version="1.0" encoding="utf-8"?>
<!-- Generator: Adobe Illustrator 19.1.0, SVG Export Plug-In . SVG Version: 6.00 Build 0)  -->
<!DOCTYPE svg PUBLIC "-//W3C//DTD SVG 1.1//EN" "http://www.w3.org/Graphics/SVG/1.1/DTD/svg11.dtd">
<svg version="1.1" id="Layer_1" xmlns="http://www.w3.org/2000/svg" xmlns:xlink="http://www.w3.org/1999/xlink" x="0px" y="0px"
	 width="96px" height="68px" viewBox="0 0 96 68" enable-background="new 0 0 96 68" xml:space="preserve">
<path fill="#0069AA" d="M4,0h88c2.2,0,4,1.8,4,4v60c0,2.2-1.8,4-4,4H4c-2.2,0-4-1.8-4-4V4C0,1.8,1.8,0,4,0z"/>
<path fill="#FFFFFF" d="M51.8,51h-8.2c-9.6,0-17.6-7.8-17.6-17.3C26,23.2,33.9,16,43.6,16h8.2C61.3,16,70,23.2,70,33.7
	C70,43.2,61.3,51.1,51.8,51z M43.5,18C34.9,18,28,25,28,33.5S34.9,49,43.5,49S59,42.1,59,33.5S52.1,18,43.5,18z M46,44.8V22.3
	c5.1,1.1,9,5.7,9,11.2S51.1,43.6,46,44.8z M32,33.5c0-5.5,3.9-10.1,9-11.2v22.4C35.9,43.6,32,39,32,33.5z"/>
<path opacity="0.05" fill="#FFFFFF" d="M4,68h1.8L96,5.8V4c0-2.2-1.8-4-4-4H4C1.8,0,0,1.8,0,4v60C0,66.2,1.8,68,4,68z"/>
</svg>
