<?xml version="1.0" encoding="utf-8"?>
<!-- Generator: Adobe Illustrator 19.1.0, SVG Export Plug-In . SVG Version: 6.00 Build 0)  -->
<!DOCTYPE svg PUBLIC "-//W3C//DTD SVG 1.1//EN" "http://www.w3.org/Graphics/SVG/1.1/DTD/svg11.dtd">
<svg version="1.1" id="Layer_1" xmlns="http://www.w3.org/2000/svg" xmlns:xlink="http://www.w3.org/1999/xlink" x="0px" y="0px"
	 width="96px" height="68px" viewBox="0 0 96 68" enable-background="new 0 0 96 68" xml:space="preserve">
<path fill="#FFE7A8" d="M4,0h88c2.2,0,4,1.8,4,4v60c0,2.2-1.8,4-4,4H4c-2.2,0-4-1.8-4-4V4C0,1.8,1.8,0,4,0z"/>
<path fill="#F7931A" d="M68.4,39.1c-2.8,11.2-14.2,18.1-25.5,15.3c-11.2-2.8-18.1-14.2-15.3-25.5c2.8-11.3,14.2-18.1,25.4-15.3
	C64.3,16.5,71.2,27.9,68.4,39.1L68.4,39.1z"/>
<path fill="#FFFFFF" d="M57.3,31c0.4-2.8-1.7-4.3-4.6-5.3l0.9-3.8l-2.3-0.6l-0.9,3.7c-0.6-0.2-1.2-0.3-1.8-0.4l0.9-3.7l-2.3-0.6
	l-0.9,3.8c-0.5-0.1-1-0.2-1.5-0.3l0,0L41.5,23l-0.6,2.5c0,0,1.7,0.4,1.7,0.4c0.9,0.2,1.1,0.9,1.1,1.3l-1.1,4.3c0.1,0,0.1,0,0.2,0.1
	c-0.1,0-0.2,0-0.2-0.1l-1.5,6c-0.1,0.3-0.4,0.7-1.1,0.5c0,0-1.7-0.4-1.7-0.4l-1.1,2.6l3,0.7c0.6,0.1,1.1,0.3,1.6,0.4l-1,3.8l2.3,0.6
	l0.9-3.8c0.6,0.2,1.2,0.3,1.8,0.5L45,46.4l2.3,0.6l1-3.8c3.9,0.7,6.9,0.4,8.1-3.1c1-2.9,0-4.5-2.1-5.6C55.8,34.1,57,33.1,57.3,31
	L57.3,31z M52,38.4c-0.7,2.9-5.5,1.3-7.1,0.9l1.3-5.1C47.7,34.7,52.7,35.4,52,38.4z M52.7,31c-0.7,2.6-4.7,1.3-6,1l1.1-4.6
	C49.2,27.7,53.4,28.3,52.7,31z"/>
<path opacity="0.05" fill="#FFFFFF" d="M4,68h1.8L96,5.8V4c0-2.2-1.8-4-4-4H4C1.8,0,0,1.8,0,4v60C0,66.2,1.8,68,4,68z"/>
</svg>
