<?xml version="1.0" encoding="utf-8"?>
<!-- Generator: Adobe Illustrator 19.1.0, SVG Export Plug-In . SVG Version: 6.00 Build 0)  -->
<!DOCTYPE svg PUBLIC "-//W3C//DTD SVG 1.1//EN" "http://www.w3.org/Graphics/SVG/1.1/DTD/svg11.dtd">
<svg version="1.1" id="Layer_1" xmlns="http://www.w3.org/2000/svg" xmlns:xlink="http://www.w3.org/1999/xlink" x="0px" y="0px"
	 width="96px" height="68px" viewBox="0 0 96 68" enable-background="new 0 0 96 68" xml:space="preserve">
<g>
	<path fill="#F7E8D7" d="M4,0h88c2.2,0,4,1.8,4,4v60c0,2.2-1.8,4-4,4H4c-2.2,0-4-1.8-4-4V4C0,1.8,1.8,0,4,0z"/>
	<path fill="#F48221" d="M96,46.4V64c0,2.2-1.8,4-4,4H20.1C54.9,64.8,78.4,56.6,96,46.4z"/>
	<path fill="#190F04" d="M83,39.7h-2.6l-3-4.2h-0.3v4.2H75V29.2h3.2c2.5,0,3.9,1.1,3.9,3.1c0,1.6-0.9,2.7-2.5,3L83,39.7z M79.8,32.4
		c0-1-0.7-1.6-2.1-1.6h-0.7v3.2h0.6C79.1,34.1,79.8,33.5,79.8,32.4z M67.5,29.2h6.1V31h-3.9v2.3h3.8v1.8h-3.8V38h3.9v1.8h-6.1V29.2z
		 M60.6,40l-4.7-10.8h2.3l2.9,7.1l3-7.1h2.3L61.7,40H60.6z M41.1,40c-3.3,0-5.8-2.4-5.8-5.5c0-3,2.6-5.5,5.9-5.5
		c0.9,0,1.7,0.2,2.6,0.6v2.4c-0.9-0.8-1.7-1.2-2.7-1.2c-2,0-3.6,1.6-3.6,3.6c0,2.1,1.5,3.6,3.7,3.6c1,0,1.7-0.3,2.6-1.1v2.4
		C42.8,39.8,42,40,41.1,40z M34.6,36.5c0,2-1.6,3.4-3.8,3.4c-1.6,0-2.8-0.6-3.8-2l1.4-1.3c0.5,0.9,1.3,1.4,2.3,1.4
		c1,0,1.7-0.6,1.7-1.5c0-0.4-0.2-0.8-0.6-1.1c-0.2-0.1-0.6-0.3-1.5-0.6c-2-0.7-2.7-1.4-2.7-2.9c0-1.7,1.5-3,3.4-3
		c1.2,0,2.3,0.4,3.2,1.2l-1.1,1.4c-0.6-0.6-1.1-0.8-1.7-0.8c-0.9,0-1.6,0.5-1.6,1.2c0,0.6,0.4,0.9,1.7,1.3
		C33.9,34.1,34.6,34.9,34.6,36.5z M24.1,29.2h2.1v10.5h-2.1V29.2z M17.1,39.7H14V29.2h3.2c3.5,0,5.9,2.2,5.9,5.3c0,1.5-0.7,3-2,4
		C20,39.4,18.8,39.7,17.1,39.7z M19.7,31.9C19,31.2,18.1,31,16.7,31h-0.6V38h0.6c1.4,0,2.3-0.3,2.9-0.8c0.7-0.6,1.2-1.6,1.2-2.6
		C20.9,33.5,20.4,32.5,19.7,31.9z"/>
	<path fill="#F48221" d="M50.5,29c-3.2,0-5.9,2.4-5.9,5.4c0,3.2,2.5,5.5,5.9,5.5c3.3,0,5.9-2.4,5.9-5.5C56.3,31.4,53.8,29,50.5,29z"
		/>
	<path opacity="0.2" fill="#FFFFFF" d="M4,68c-2.2,0-4-1.8-4-4V4c0-2.2,1.8-4,4-4h88c2.2,0,4,1.8,4,4"
		/>
</g>
</svg>
