<?xml version="1.0" encoding="utf-8"?>
<!-- Generator: Adobe Illustrator 19.1.0, SVG Export Plug-In . SVG Version: 6.00 Build 0)  -->
<!DOCTYPE svg PUBLIC "-//W3C//DTD SVG 1.1//EN" "http://www.w3.org/Graphics/SVG/1.1/DTD/svg11.dtd">
<svg version="1.1" id="Layer_1" xmlns="http://www.w3.org/2000/svg" xmlns:xlink="http://www.w3.org/1999/xlink" x="0px" y="0px"
	 width="96px" height="68px" viewBox="0 0 96 68" enable-background="new 0 0 96 68" xml:space="preserve">
<g>
	<path fill="#FF9C20" d="M4,0h88c2.2,0,4,1.8,4,4v60c0,2.2-1.8,4-4,4H4c-2.2,0-4-1.8-4-4V4C0,1.8,1.8,0,4,0z"/>
	<path fill="#FFFFFF" d="M62.8,50.2c-0.3,0.3-0.6,0.1-0.4-0.3c0.4-1.3,1.4-4.4,0.9-5.1c-0.5-0.7-3.1-0.3-4.2-0.2
		c-0.4,0.1-0.4-0.3-0.1-0.6c2.1-1.8,5.5-1.3,5.8-0.7C65.3,44,64.8,48.2,62.8,50.2z M61.8,47c-3.6,3.3-8.8,5-13.4,5
		c-6.3,0-12-2.9-16.3-7.7c-0.3-0.4,0-0.9,0.4-0.6c4.6,3.3,10.4,5.4,16.3,5.4c4,0,8.4-1,12.5-3.2C61.9,45.6,62.4,46.4,61.8,47z"/>
	<path opacity="0.05" fill="#FFFFFF" d="M5.5,68c-3,0-5.5-2.5-5.5-5.6V5.6C0,2.5,2.4,0,5.5,0
		h85.1c3,0,5.5,2.5,5.5,5.6"/>
	<path fill="#FFFFFF" d="M57.6,37.8c-0.8-1.1-1.6-1.9-1.6-3.9v-6.5c0-2.8,0.2-5.3-1.8-7.2c-1.6-1.5-4.1-2.1-6.1-2.1
		c-4,0-8.4,1.5-9.4,6.4c-0.1,0.5,0.3,0.8,0.6,0.9l4.1,0.4c0.4,0,0.7-0.4,0.7-0.8c0.3-1.7,1.8-2.5,3.4-2.5c0.9,0,1.8,0.3,2.3,1.1
		c0.6,0.9,0.5,2,0.5,3v0.5c-2.4,0.3-5.6,0.5-7.9,1.5C39.8,29.7,38,32,38,35.5c0,4.4,2.7,6.5,6.3,6.5c3,0,4.6-0.7,6.9-3.1
		c0.8,1.1,0.8,1.6,2.2,2.8c0.3,0.2,0.7,0.2,1-0.1l0,0c0.8-0.7,2.4-2.1,3.2-2.8C57.9,38.6,57.9,38.1,57.6,37.8z M49.5,35.9
		c-0.7,1.2-1.7,1.9-2.9,1.9c-1.6,0-2.5-1.2-2.5-3c0-3.6,3.2-4.2,6.2-4.2v0.9C50.3,33,50.4,34.4,49.5,35.9z"/>
</g>
</svg>
