<?xml version="1.0" encoding="utf-8"?>
<!-- Generator: Adobe Illustrator 19.1.0, SVG Export Plug-In . SVG Version: 6.00 Build 0)  -->
<!DOCTYPE svg PUBLIC "-//W3C//DTD SVG 1.1//EN" "http://www.w3.org/Graphics/SVG/1.1/DTD/svg11.dtd">
<svg version="1.1" id="Layer_1" xmlns="http://www.w3.org/2000/svg" xmlns:xlink="http://www.w3.org/1999/xlink" x="0px" y="0px"
	 width="96px" height="68px" viewBox="0 0 96 68" enable-background="new 0 0 96 68" xml:space="preserve">
<g>
	<path fill="#F7F6F4" d="M4,0h88c2.2,0,4,1.8,4,4V64c0,2.2-1.8,4-4,4H4c-2.2,0-4-1.8-4-4V4C0,1.8,1.8,0,4,0z"/>
	<path fill="#3C3C3C" d="M56.1,32.9c0-3.8,3.1-5.6,3.2-5.7c-1.7-2.6-4.4-3-5.4-3.1c-2.3-0.2-4.5,1.6-5.7,1.6s-3-1.6-4.9-1.5
		c-2.5,0-4.8,1.6-6.1,3.9c-2.6,4.6-0.7,11.4,1.9,15.1c1.2,1.8,2.7,3.9,4.7,3.8c1.9-0.1,2.6-1.2,4.8-1.2c2.3,0,2.9,1.2,4.9,1.2
		c2,0,3.3-1.9,4.5-3.7c1.4-2.1,2-4.2,2-4.3C60,39,56.1,37.5,56.1,32.9 M51.4,21.8c1-1.3,1.7-3,1.5-4.8c-1.5,0.1-3.3,1-4.3,2.3
		c-1,1.1-1.8,2.9-1.6,4.6C48.7,24,50.4,23.1,51.4,21.8"/>
	<path opacity="0.12" fill="#FFFFFF" d="M5.5,68c-3,0-5.5-2.5-5.5-5.6V5.6C0,2.5,2.4,0,5.5,0
		h85.1c3,0,5.5,2.5,5.5,5.6"/>
</g>
</svg>
