<?xml version="1.0" encoding="utf-8"?>
<!-- Generator: Adobe Illustrator 15.0.0, SVG Export Plug-In . SVG Version: 6.00 Build 0)  -->
<!DOCTYPE svg PUBLIC "-//W3C//DTD SVG 1.1//EN" "http://www.w3.org/Graphics/SVG/1.1/DTD/svg11.dtd">
<svg version="1.1" id="Layer_1" xmlns="http://www.w3.org/2000/svg" xmlns:xlink="http://www.w3.org/1999/xlink" x="0px" y="0px"
	 width="28px" height="28px" viewBox="11 11 28 28" enable-background="new 11 11 28 28" xml:space="preserve">
<g>
	<path d="M30.426,28.502c1.429-1.839,2.289-4.141,2.289-6.645C32.715,15.87,27.844,11,21.857,11S11,15.87,11,21.857
		s4.87,10.858,10.857,10.858c2.185,0,4.216-0.654,5.921-1.769 M12.8,21.857c0-4.994,4.063-9.057,9.057-9.057
		c4.995,0,9.057,4.063,9.057,9.057c0,4.995-4.062,9.057-9.057,9.057C16.863,30.914,12.8,26.852,12.8,21.857z"/>
	<path d="M27.778,30.946L35.832,39l2.545-2.545l-7.951-7.953"/>
</g>
</svg>
