<?xml version="1.0" encoding="utf-8"?>
<!-- Generator: Adobe Illustrator 15.0.0, SVG Export Plug-In . SVG Version: 6.00 Build 0)  -->
<!DOCTYPE svg PUBLIC "-//W3C//DTD SVG 1.1//EN" "http://www.w3.org/Graphics/SVG/1.1/DTD/svg11.dtd">
<svg version="1.1" id="Layer_1" xmlns:sketch="http://www.bohemiancoding.com/sketch/ns"
	 xmlns="http://www.w3.org/2000/svg" xmlns:xlink="http://www.w3.org/1999/xlink" x="0px" y="0px" width="28px" height="28px"
	 viewBox="-6 -6 28 28" enable-background="new -6 -6 28 28" xml:space="preserve">
<title></title>
<desc></desc>
<g id="Page-1">
	<g id="Core" transform="translate(-340.000000, -4.000000)">
		<g id="apps" transform="translate(340.000000, 4.000000)">
			<path id="Shape" d="M-6,1h7v-7h-7V1L-6,1z M4.5,22h7v-7h-7V22L4.5,22z M-6,22h7v-7h-7V22L-6,22z M-6,11.5h7v-7h-7V11.5L-6,11.5z
				 M4.5,11.5h7v-7h-7V11.5L4.5,11.5z M15-6v7h7v-7H15L15-6z M4.5,1h7v-7h-7V1L4.5,1z M15,11.5h7v-7h-7V11.5L15,11.5z M15,22h7v-7
				h-7V22L15,22z"/>
		</g>
	</g>
</g>
</svg>
