<?xml version="1.0" encoding="utf-8"?>
<!-- Generator: Adobe Illustrator 15.0.0, SVG Export Plug-In . SVG Version: 6.00 Build 0)  -->
<!DOCTYPE svg PUBLIC "-//W3C//DTD SVG 1.1//EN" "http://www.w3.org/Graphics/SVG/1.1/DTD/svg11.dtd">
<svg version="1.1" id="Layer_1" xmlns="http://www.w3.org/2000/svg" xmlns:xlink="http://www.w3.org/1999/xlink" x="0px" y="0px"
	 width="26px" height="28px" viewBox="1 0 26 28" enable-background="new 1 0 26 28" xml:space="preserve">
<path d="M24.437,6.764H20.01V5.828C20.01,2.614,17.396,0,14.183,0c-3.214,0-5.828,2.614-5.828,5.828v0.937H3.927L1.5,28h25.364
	L24.437,6.764z M9.865,5.828c0-2.382,1.936-4.318,4.318-4.318c2.381,0,4.317,1.936,4.317,4.318v0.937H9.865V5.828L9.865,5.828z
	 M5.274,8.274h3.081v1.237c-0.225,0.206-0.373,0.497-0.373,0.825c0,0.623,0.504,1.128,1.127,1.128s1.127-0.505,1.127-1.128
	c0-0.33-0.147-0.619-0.373-0.825V8.274H18.5v1.237c-0.225,0.206-0.372,0.497-0.372,0.825c0,0.623,0.506,1.128,1.127,1.128
	c0.623,0,1.128-0.505,1.128-1.128c0-0.33-0.147-0.619-0.373-0.825V8.274h3.082l2.08,18.216H3.193L5.274,8.274z"/>
</svg>
