<?xml version="1.0" encoding="utf-8"?>
<!-- Generator: Adobe Illustrator 15.0.0, SVG Export Plug-In . SVG Version: 6.00 Build 0)  -->
<!DOCTYPE svg PUBLIC "-//W3C//DTD SVG 1.1//EN" "http://www.w3.org/Graphics/SVG/1.1/DTD/svg11.dtd">
<svg version="1.1" id="Layer_1" xmlns="http://www.w3.org/2000/svg" xmlns:xlink="http://www.w3.org/1999/xlink" x="0px" y="0px"
	 width="100px" height="35px" viewBox="0 0 100 35" enable-background="new 0 0 100 35" xml:space="preserve">
<path fill="#FFFFFF" d="M38.315,32.275l-0.155-0.435l-0.02-0.055c0,0-12.43-30.793-12.43-30.796c-0.139-0.342-2.18-0.58-2.57-0.652
	C22.283,0.18,21.417,0.043,20.545,0c0,0-7.845,19.475-7.865,19.475c-1.185-0.039-2.369,0.059-3.614,0.332l7.982-19.768
	c-1.341,0.097-2.68,0.35-3.981,0.739L3.146,25.367c0.854-0.369,1.98-0.816,3.223-1.242c2.589-0.896,5.336-1.443,8.077-1.059
	c2.961,0.42,5.696,1.83,8.391,3.104c2.569,1.21,5.734,2.762,8.659,2.359c0.52-0.071,1.025-0.174,1.518-0.36l1.089,2.685
	c-4.1,1.901-8.41-0.267-12.176-1.924c-3.152-1.39-6.47-2.811-9.982-3.02c-3.609-0.215-6.744,1.271-9.783,3.066
	c-0.21,0.125-0.42,0.25-0.627,0.377L0,33.15c1.456,0.562,2.777,0.078,3.612-0.394c0.118-0.073,0.233-0.151,0.331-0.229
	C3.982,32.507,4,32.489,4.059,32.45c5.555-5.271,10.644-3.017,16.488-0.408C23.75,33.463,27.208,35,30.761,35
	c2.119,0,4.254-0.545,6.389-1.984h0.059L38.315,32.275z M16.158,19.939l3.185-7.897l4.351,10.776
	C21.402,21.751,18.876,20.583,16.158,19.939z M28.121,24.708L21.168,7.51l1.747-4.338l8.818,21.85
	C30.705,25.311,29.539,25.175,28.121,24.708z"/>
<g>
	<path fill="#FFFFFF" d="M41.993,28.923V7.404h3.31v21.519H41.993z"/>
	<path fill="#FFFFFF" d="M49.658,28.923V7.404h3.309v21.519H49.658z"/>
	<path fill="#FFFFFF" d="M58.396,26.846c-1.451-1.561-2.18-3.559-2.18-5.99c0-2.433,0.723-4.412,2.162-5.934
		c1.441-1.522,3.238-2.282,5.387-2.282c1.26,0,2.366,0.286,3.324,0.857c0.958,0.571,1.699,1.323,2.225,2.254V12.9h3.338v16.021
		h-3.338v-2.993c-0.543,0.987-1.289,1.776-2.236,2.368c-0.948,0.593-2.053,0.888-3.311,0.888
		C61.637,29.186,59.848,28.404,58.396,26.846z M67.875,24.838c0.958-0.979,1.438-2.291,1.438-3.938s-0.479-2.958-1.438-3.926
		c-0.957-0.969-2.098-1.454-3.411-1.454c-1.315,0-2.452,0.475-3.411,1.426c-0.957,0.95-1.436,2.25-1.436,3.896
		s0.479,2.973,1.436,3.971c0.959,1,2.096,1.498,3.411,1.498C65.779,26.307,66.917,25.816,67.875,24.838z"/>
	<path fill="#FFFFFF" d="M80.777,8.655c0,0.601-0.201,1.104-0.606,1.512c-0.407,0.407-0.905,0.611-1.495,0.611
		c-0.591,0-1.09-0.204-1.494-0.611c-0.406-0.407-0.609-0.911-0.609-1.512c0-0.601,0.203-1.105,0.609-1.513
		c0.404-0.407,0.903-0.611,1.494-0.611c0.59,0,1.088,0.204,1.495,0.611C80.576,7.55,80.777,8.055,80.777,8.655z M77.005,28.923
		V12.901h3.31v16.021L77.005,28.923L77.005,28.923z"/>
	<path fill="#FFFFFF" d="M85.743,26.846c-1.45-1.561-2.179-3.559-2.179-5.99c0-2.433,0.723-4.412,2.162-5.934
		c1.441-1.522,3.238-2.282,5.389-2.282c1.259,0,2.367,0.286,3.324,0.857c0.957,0.571,1.697,1.323,2.222,2.254V12.9H100v16.021
		h-3.339v-2.993c-0.543,0.987-1.288,1.776-2.235,2.368c-0.949,0.593-2.052,0.888-3.311,0.888
		C88.986,29.186,87.195,28.404,85.743,26.846z M95.223,24.838c0.961-0.979,1.438-2.291,1.438-3.938s-0.478-2.958-1.438-3.926
		c-0.957-0.969-2.096-1.454-3.408-1.454c-1.316,0-2.453,0.475-3.412,1.426c-0.959,0.95-1.437,2.25-1.437,3.896
		s0.478,2.973,1.437,3.971c0.959,1,2.096,1.498,3.412,1.498C93.127,26.307,94.266,25.816,95.223,24.838z"/>
</g>
</svg>
