<?xml version="1.0" encoding="utf-8"?>
<!-- Generator: Adobe Illustrator 15.0.0, SVG Export Plug-In . SVG Version: 6.00 Build 0)  -->
<!DOCTYPE svg PUBLIC "-//W3C//DTD SVG 1.1//EN" "http://www.w3.org/Graphics/SVG/1.1/DTD/svg11.dtd">
<svg version="1.1" id="Layer_1" xmlns="http://www.w3.org/2000/svg" xmlns:xlink="http://www.w3.org/1999/xlink" x="0px" y="0px"
	 width="24px" height="30px" viewBox="0 0 24 30" enable-background="new 0 0 24 30" xml:space="preserve">
<g>
	<path fill="#70B634" d="M1.875,24.375c0-2.402,0.908-4.688,2.557-6.435c3.548-3.76,9.494-3.933,13.253-0.384l1.287-1.363
		c-1.1-1.038-2.369-1.829-3.741-2.349c2.11-1.328,3.52-3.672,3.52-6.345c0-4.135-3.365-7.5-7.5-7.5s-7.5,3.365-7.5,7.5
		c0,2.679,1.417,5.027,3.535,6.354c-1.581,0.594-3.023,1.535-4.216,2.799C1.09,18.75,0,21.494,0,24.375V30h13.125v-1.875H1.875
		V24.375z M5.625,7.5c0-3.102,2.523-5.625,5.625-5.625s5.625,2.523,5.625,5.625s-2.523,5.625-5.625,5.625S5.625,10.602,5.625,7.5z"
		/>
	<polygon fill="#70B634" points="23.438,23.438 19.688,23.438 19.688,19.688 17.812,19.688 17.812,23.438 14.062,23.438 
		14.062,25.313 17.812,25.313 17.812,29.063 19.688,29.063 19.688,25.313 23.438,25.313 	"/>
</g>
</svg>
