<?xml version="1.0" encoding="utf-8"?>
<!-- Generator: Adobe Illustrator 15.0.0, SVG Export Plug-In . SVG Version: 6.00 Build 0)  -->
<!DOCTYPE svg PUBLIC "-//W3C//DTD SVG 1.1//EN" "http://www.w3.org/Graphics/SVG/1.1/DTD/svg11.dtd">
<svg version="1.1" id="Layer_1" xmlns="http://www.w3.org/2000/svg" xmlns:xlink="http://www.w3.org/1999/xlink" x="0px" y="0px"
	 width="25px" height="25px" viewBox="0 0 25 25" enable-background="new 0 0 25 25" xml:space="preserve">
<path fill="#444444" d="M24.754,23.57l-6.173-6.174c1.574-1.844,2.53-4.23,2.53-6.84C21.111,4.736,16.377,0,10.556,0
	C4.736,0,0,4.736,0,10.556c0,5.821,4.736,10.555,10.556,10.555c2.61,0,4.997-0.955,6.84-2.531l6.174,6.174
	C23.733,24.918,23.947,25,24.163,25c0.214,0,0.429-0.082,0.591-0.246C25.082,24.428,25.082,23.896,24.754,23.57z M1.676,10.556
	c0-4.896,3.984-8.88,8.88-8.88c4.896,0,8.881,3.984,8.881,8.88c0,2.446-0.996,4.665-2.601,6.274c-0.002,0-0.004,0.002-0.005,0.002
	c-0.001,0.002-0.002,0.004-0.003,0.006c-1.608,1.605-3.827,2.6-6.273,2.6C5.66,19.438,1.676,15.453,1.676,10.556z"/>
</svg>
