<?xml version="1.0" encoding="utf-8"?>
<!-- Generator: Adobe Illustrator 15.0.0, SVG Export Plug-In . SVG Version: 6.00 Build 0)  -->
<!DOCTYPE svg PUBLIC "-//W3C//DTD SVG 1.1//EN" "http://www.w3.org/Graphics/SVG/1.1/DTD/svg11.dtd">
<svg version="1.1" id="Layer_1" xmlns="http://www.w3.org/2000/svg" xmlns:xlink="http://www.w3.org/1999/xlink" x="0px" y="0px"
	 width="37px" height="75px" viewBox="0 0 37 75" enable-background="new 0 0 37 75" xml:space="preserve">
<path fill="#CCCCCC" d="M37,72c0,1.657-1.343,3-3,3H3c-1.657,0-3-1.343-3-3V41c0-1.656,1.343-3,3-3h31c1.657,0,3,1.344,3,3V72z"/>
<g>
	<g>
		<path fill="#FFFFFF" d="M14.777,52.837c0,0-4.073,0.45-6.791,0.753c-0.245,0.029-0.461,0.193-0.542,0.441s0,0.508,0.181,0.672
			c2.019,1.842,5.052,4.602,5.052,4.602c-0.002,0-0.833,4.012-1.384,6.689c-0.047,0.242,0.041,0.499,0.252,0.652
			c0.21,0.153,0.48,0.155,0.693,0.035c2.377-1.351,5.938-3.382,5.938-3.382s3.561,2.031,5.934,3.384
			c0.218,0.118,0.49,0.116,0.699-0.037c0.211-0.153,0.299-0.41,0.25-0.65c-0.551-2.68-1.379-6.691-1.379-6.691
			s3.031-2.76,5.051-4.598c0.182-0.169,0.263-0.428,0.182-0.676c-0.08-0.247-0.297-0.41-0.541-0.439
			c-2.721-0.305-6.793-0.755-6.793-0.755s-1.689-3.735-2.814-6.228c-0.105-0.224-0.327-0.379-0.588-0.379
			c-0.261,0-0.483,0.158-0.584,0.379C16.464,49.102,14.777,52.837,14.777,52.837z"/>
	</g>
</g>
<path fill="#FEC348" d="M37,34c0,1.657-1.343,3-3,3H3c-1.657,0-3-1.343-3-3V3c0-1.656,1.343-3,3-3h31c1.657,0,3,1.344,3,3V34z"/>
<g>
	<g>
		<path fill="#FFFFFF" d="M14.777,14.837c0,0-4.073,0.45-6.791,0.753c-0.245,0.029-0.461,0.193-0.542,0.441
			c-0.081,0.249,0,0.508,0.181,0.672c2.019,1.842,5.052,4.601,5.052,4.601c-0.002,0-0.833,4.013-1.384,6.69
			c-0.047,0.242,0.041,0.499,0.252,0.652c0.21,0.154,0.48,0.156,0.693,0.035c2.377-1.35,5.938-3.381,5.938-3.381
			s3.561,2.031,5.934,3.384c0.218,0.118,0.49,0.116,0.699-0.038c0.211-0.153,0.299-0.41,0.25-0.65
			c-0.551-2.68-1.379-6.692-1.379-6.692s3.031-2.759,5.051-4.597c0.182-0.169,0.263-0.428,0.182-0.676
			c-0.08-0.247-0.297-0.41-0.541-0.439c-2.721-0.305-6.793-0.755-6.793-0.755s-1.689-3.736-2.813-6.227
			c-0.105-0.224-0.328-0.379-0.588-0.379c-0.262,0-0.484,0.157-0.584,0.379C16.464,11.101,14.777,14.837,14.777,14.837z"/>
	</g>
</g>
</svg>
