<?xml version="1.0" encoding="utf-8"?>
<!-- Generator: Adobe Illustrator 15.0.0, SVG Export Plug-In . SVG Version: 6.00 Build 0)  -->
<!DOCTYPE svg PUBLIC "-//W3C//DTD SVG 1.1//EN" "http://www.w3.org/Graphics/SVG/1.1/DTD/svg11.dtd">
<svg version="1.1" id="Layer_1" xmlns="http://www.w3.org/2000/svg" xmlns:xlink="http://www.w3.org/1999/xlink" x="0px" y="0px"
	 width="200px" height="177px" viewBox="-0.269 -0.265 200 177" enable-background="new -0.269 -0.265 200 177"
	 xml:space="preserve">
<path fill="#00A4FF" d="M199.731,112.199L178.06,92.507h-37.21V62.678H112.16c3.207-8.021,4.885-14.479,4.885-19.198
	c0-24.121-19.669-43.745-43.845-43.745l0,0c-0.003,0-0.003,0-0.006,0H3.927c-1.299,0-2.352,1.05-2.352,2.347
	c0,1.296,1.053,2.347,2.352,2.347h69.267c0.003,0,0.003,0,0.006,0l0,0c21.583,0,39.14,17.518,39.14,39.052
	c0,9.087-7.317,26.439-21.166,50.182c-7.321,12.592-14.608,23.67-17.974,28.685c-3.362-5.015-10.644-16.09-17.976-28.688
	c-6.623-11.357-11.786-21.305-15.35-29.561l-0.611-1.42H-0.269v100.024h29.865c1.147,7.623,7.696,13.504,15.649,13.504
	c7.958,0,14.506-5.881,15.653-13.504l91.394,0.015c1.155,7.615,7.695,13.489,15.646,13.489c7.95,0,14.494-5.874,15.646-13.489
	h16.147V112.199z M94.553,97.187h29.478v-4.694h-26.79c5.425-9.496,9.734-17.876,12.93-25.121h25.973v25.136v31.683H77.619
	C81.097,118.986,87.758,108.79,94.553,97.187z M36.176,67.372c3.203,7.231,7.597,15.703,12.975,25.121H16.55v4.694h35.297
	c6.798,11.604,13.459,21.8,16.935,27.004H4.436V67.372H36.176z M45.246,171.513c-6.166,0-11.182-5.005-11.182-11.156
	c0-6.155,5.016-11.157,11.182-11.157c6.17,0,11.186,5.002,11.186,11.157C56.431,166.508,51.416,171.513,45.246,171.513z
	 M60.898,158.008c-1.147-7.62-7.695-13.501-15.653-13.501c-7.954,0-14.502,5.881-15.649,13.501H4.436v-29.125h131.709v29.125H60.898
	z M167.938,171.513c-6.166,0-11.182-5.005-11.182-11.156c0-6.155,5.016-11.157,11.182-11.157s11.182,5.002,11.182,11.157
	C179.12,166.508,174.104,171.513,167.938,171.513z M195.027,158.024h-11.439c-1.141-7.631-7.693-13.518-15.649-13.518
	c-7.958,0-14.508,5.887-15.649,13.518h-11.439V97.201h35.389l18.789,17.069V158.024z M149.972,104.298v28.264h37.3v-14.948
	l-14.616-13.316H149.972z M182.568,127.869h-27.892v-18.877h16.159l11.733,10.695V127.869z M28.66,53.777h22.512
	c3.896,8.253,12.291,13.99,22.021,13.99c13.428,0,24.352-10.899,24.352-24.297c0-13.397-10.923-24.297-24.352-24.297
	c-5.404,0-10.388,1.787-14.432,4.771H28.77c-1.3,0-2.352,1.05-2.352,2.347c0,1.297,1.052,2.348,2.352,2.348h25.178
	c-3.189,4.109-5.106,9.247-5.106,14.832c0,1.935,0.25,3.809,0.681,5.613H28.66c-1.299,0-2.352,1.05-2.352,2.347
	C26.308,52.727,27.361,53.777,28.66,53.777z M73.193,23.867c10.835,0,19.647,8.792,19.647,19.603s-8.812,19.604-19.647,19.604
	c-10.836,0-19.647-8.792-19.647-19.604S62.357,23.867,73.193,23.867z M9.472,23.944h9.705c1.299,0,2.352,1.05,2.352,2.347
	c0,1.297-1.053,2.348-2.352,2.348H9.472c-1.3,0-2.353-1.05-2.353-2.348C7.12,24.994,8.172,23.944,9.472,23.944z M60.521,13.38
	c0,1.296-1.053,2.346-2.352,2.346H19.752c-1.299,0-2.352-1.05-2.352-2.346c0-1.298,1.053-2.348,2.352-2.348h38.417
	C59.468,11.032,60.521,12.083,60.521,13.38z M40.803,41.208H17.125c-1.299,0-2.352-1.05-2.352-2.347
	c0-1.297,1.053-2.347,2.352-2.347h23.677c1.299,0,2.352,1.05,2.352,2.347C43.154,40.158,42.102,41.208,40.803,41.208z"/>
</svg>
