<?xml version="1.0" encoding="utf-8"?>
<!-- Generator: Adobe Illustrator 15.0.0, SVG Export Plug-In . SVG Version: 6.00 Build 0)  -->
<!DOCTYPE svg PUBLIC "-//W3C//DTD SVG 1.1//EN" "http://www.w3.org/Graphics/SVG/1.1/DTD/svg11.dtd">
<svg version="1.1" id="Layer_1" xmlns="http://www.w3.org/2000/svg" xmlns:xlink="http://www.w3.org/1999/xlink" x="0px" y="0px"
	 width="350px" height="268px" viewBox="0 0 350 268" enable-background="new 0 0 350 268" xml:space="preserve">
<g>
	<g opacity="0.5">
		<g id="XMLID_256_">
			<g>
				<g>
					<path fill="#F5BFBA" d="M288.451,135.359h-1.516c-3.154,0-5.718-2.558-5.718-5.711V109.01c0-3.155,2.562-5.711,5.718-5.711
						h1.516c3.158,0,5.715,2.557,5.715,5.711v20.638C294.166,132.802,291.609,135.359,288.451,135.359z"/>
				</g>
			</g>
		</g>
		<g id="XMLID_255_">
			<g>
				<g>
					<path fill="#F5BFBA" d="M306.149,135.359h-1.52c-3.153,0-5.711-2.558-5.711-5.711v-13.589c0-3.155,2.558-5.714,5.711-5.714
						h1.52c3.154,0,5.712,2.559,5.712,5.714v13.589C311.861,132.802,309.305,135.359,306.149,135.359z"/>
				</g>
			</g>
		</g>
		<g id="XMLID_254_">
			<g>
				<g>
					<path fill="#F5BFBA" d="M323.845,135.359h-1.516c-3.154,0-5.711-2.558-5.711-5.711V99.817c0-3.154,2.557-5.711,5.711-5.711
						h1.516c3.154,0,5.711,2.557,5.711,5.711v29.831C329.556,132.802,326.999,135.359,323.845,135.359z"/>
				</g>
			</g>
		</g>
		<g id="XMLID_253_">
			<g>
				<g>
					<path fill="#F5BFBA" d="M341.544,135.359h-1.516c-3.155,0-5.712-2.558-5.712-5.711v-6.598c0-3.155,2.557-5.713,5.712-5.713
						h1.516c3.153,0,5.71,2.559,5.71,5.713v6.598C347.254,132.802,344.697,135.359,341.544,135.359z"/>
				</g>
			</g>
		</g>
		<g>
			<g>
				<g>
					<path fill="#F5BFBA" d="M349.427,138.835h-70.374c-0.314,0-0.576-0.295-0.576-0.655c0-0.356,0.262-0.646,0.576-0.646h70.374
						c0.315,0,0.573,0.291,0.573,0.646C350,138.54,349.742,138.835,349.427,138.835z"/>
				</g>
			</g>
		</g>
	</g>
	<g opacity="0.1">
		<g>
			<path fill="#06196A" d="M252.51,78.007c-11.027-12.354-29.945-13.411-42.299-2.388c-12.355,11.023-13.413,29.989-2.393,42.299
				c11.07,12.352,29.99,13.409,42.348,2.386C262.473,109.283,263.575,90.317,252.51,78.007z M242.999,112.315
				c-7.897,7.071-20.069,6.383-27.144-1.516c-7.119-7.946-6.426-20.116,1.518-27.19c7.898-7.071,20.07-6.382,27.143,1.517
				C251.592,93.072,250.941,105.242,242.999,112.315z"/>
		</g>
	</g>
	<g opacity="0.1">
		<g>
			<path fill="#06196A" d="M290.799,247.84c-16.212,2.294-31.215-8.988-33.513-25.197c-2.294-16.216,8.987-31.22,25.2-33.513
				c16.211-2.294,31.214,8.989,33.51,25.2C318.29,230.542,307.011,245.544,290.799,247.84z"/>
		</g>
	</g>
	<g opacity="0.69">
		<g>
			<polygon fill="#9BA9DD" points="114.566,82.291 120.447,80.427 122.311,74.547 124.175,80.427 130.056,82.291 124.175,84.155 
				122.311,90.037 120.447,84.155 			"/>
			<path fill="#06196A" d="M122.311,96.979l-3.536-11.152l-11.151-3.535l11.151-3.536l3.536-11.147l3.536,11.147l11.152,3.536
				l-11.152,3.535L122.311,96.979z M121.508,82.291l0.61,0.192l0.193,0.61l0.193-0.61l0.61-0.192l-0.61-0.193l-0.193-0.61
				l-0.193,0.61L121.508,82.291z"/>
		</g>
		<g>
			<path fill="#06196A" d="M122.311,90.898c-0.375,0-0.707-0.243-0.822-0.602l-1.729-5.455l-5.455-1.728
				c-0.358-0.115-0.602-0.446-0.602-0.823c0-0.375,0.244-0.709,0.602-0.822l5.455-1.729l1.729-5.453
				c0.228-0.719,1.416-0.719,1.643,0l1.731,5.453l5.453,1.729c0.358,0.113,0.602,0.447,0.602,0.822c0,0.376-0.244,0.708-0.602,0.823
				l-5.453,1.728l-1.731,5.455C123.02,90.655,122.686,90.898,122.311,90.898z M117.417,82.291l3.29,1.043
				c0.269,0.085,0.478,0.294,0.562,0.562l1.042,3.286l1.042-3.286c0.086-0.269,0.293-0.477,0.562-0.562l3.29-1.043l-3.29-1.041
				c-0.269-0.086-0.475-0.297-0.562-0.563l-1.042-3.288l-1.042,3.288c-0.084,0.267-0.293,0.478-0.562,0.563L117.417,82.291z"/>
		</g>
	</g>
	<g opacity="0.5">
		<g>
			<path fill="#06196A" d="M304.631,207.664c-0.408,0-0.759-0.287-0.844-0.68l-1.969-9.231l-9.226-1.962
				c-0.394-0.082-0.681-0.434-0.681-0.844c0-0.406,0.287-0.758,0.681-0.846l9.226-1.966l1.969-9.227
				c0.171-0.795,1.516-0.795,1.688,0l1.968,9.227l9.226,1.966c0.397,0.088,0.68,0.438,0.68,0.846c0,0.41-0.281,0.762-0.68,0.844
				l-9.226,1.962l-1.968,9.231C305.389,207.377,305.04,207.664,304.631,207.664z M296.912,194.947l5.816,1.236
				c0.332,0.074,0.59,0.328,0.664,0.664l1.237,5.816l1.237-5.816c0.072-0.336,0.33-0.59,0.663-0.664l5.817-1.236l-5.817-1.237
				c-0.333-0.073-0.591-0.332-0.663-0.663l-1.237-5.818l-1.237,5.818c-0.074,0.331-0.332,0.59-0.664,0.663L296.912,194.947z"/>
		</g>
	</g>
	<g opacity="0.5">
		<g>
			<path fill="#06196A" d="M320.26,178.256c-0.201,0-0.381-0.139-0.422-0.335l-0.982-4.616l-4.612-0.979
				c-0.197-0.046-0.341-0.222-0.341-0.427c0-0.2,0.144-0.377,0.341-0.418l4.612-0.983l0.982-4.612c0.082-0.402,0.763-0.402,0.845,0
				l0.983,4.612l4.612,0.983c0.196,0.041,0.341,0.218,0.341,0.418c0,0.205-0.145,0.381-0.341,0.427l-4.612,0.979l-0.983,4.616
				C320.642,178.117,320.46,178.256,320.26,178.256z M316.404,171.896l2.903,0.623c0.169,0.033,0.298,0.164,0.333,0.328l0.618,2.909
				l0.619-2.909c0.036-0.164,0.164-0.295,0.331-0.328l2.909-0.623l-2.909-0.619c-0.167-0.035-0.295-0.168-0.331-0.332l-0.619-2.903
				l-0.618,2.903c-0.035,0.164-0.164,0.297-0.333,0.332L316.404,171.896z"/>
		</g>
	</g>
	<g opacity="0.58">
		<g>
			<path fill="#06196A" d="M282.729,85.231c-1.394,0-2.549-1.097-2.613-2.498c-0.029-0.696,0.213-1.364,0.684-1.878
				c0.473-0.516,1.114-0.815,1.812-0.846c0.688-0.037,1.363,0.208,1.877,0.68c0.516,0.472,0.812,1.112,0.847,1.811
				c0.065,1.438-1.053,2.659-2.489,2.729C282.802,85.231,282.766,85.231,282.729,85.231z M282.729,80.836
				c-0.025,0-0.054,0-0.082,0.002c-0.477,0.021-0.914,0.226-1.237,0.575c-0.319,0.353-0.483,0.808-0.464,1.283
				c0.041,0.954,0.832,1.702,1.783,1.702c0.024,0,0.049,0,0.078-0.002c0.979-0.043,1.741-0.877,1.7-1.86
				c-0.021-0.475-0.229-0.913-0.583-1.235C283.598,81,283.17,80.836,282.729,80.836z"/>
		</g>
	</g>
	<g opacity="0.5">
		<g>
			<path fill="#06196A" d="M298.116,225.002c2.467,0,4.47,2,4.47,4.475c0,2.467-2.003,4.471-4.47,4.471
				c-2.472,0-4.474-2.004-4.474-4.471C293.643,227.002,295.646,225.002,298.116,225.002z"/>
		</g>
	</g>
	<g opacity="0.3">
		<g>
			<path fill="#06196A" d="M282.999,61.245c0,4.803-3.894,8.699-8.702,8.699c-4.803,0-8.697-3.896-8.697-8.699
				c0-4.806,3.896-8.7,8.697-8.7C279.105,52.545,282.999,56.438,282.999,61.245z"/>
		</g>
	</g>
	<g opacity="0.5">
		<g id="XMLID_241_">
			<g id="XMLID_242_">
				<g id="XMLID_252_">
					<g>
						<g>
							<path fill="#F5BFBA" d="M10.92,231.32L10.92,231.32c-2.253,0-4.08-1.828-4.08-4.08v-11.624c0-2.253,1.827-4.081,4.08-4.081
								l0,0c2.256,0,4.083,1.828,4.083,4.081v11.624C15.003,229.492,13.176,231.32,10.92,231.32z"/>
						</g>
					</g>
				</g>
				<g id="XMLID_251_">
					<g>
						<g>
							<path fill="#F5BFBA" d="M23.009,231.32L23.009,231.32c-2.254,0-4.081-1.828-4.081-4.08v-51.967
								c0-2.254,1.827-4.082,4.081-4.082l0,0c2.255,0,4.083,1.828,4.083,4.082v51.967C27.091,229.492,25.264,231.32,23.009,231.32z"
								/>
						</g>
					</g>
				</g>
				<g id="XMLID_250_">
					<g>
						<g>
							<path fill="#F5BFBA" d="M37.997,231.32L37.997,231.32c-2.255,0-4.082-1.828-4.082-4.08v-35.211
								c0-2.254,1.827-4.08,4.082-4.08l0,0c2.253,0,4.081,1.826,4.081,4.08v35.211C42.078,229.492,40.25,231.32,37.997,231.32z"/>
						</g>
					</g>
				</g>
				<g id="XMLID_249_">
					<g>
						<g>
							<path fill="#F5BFBA" d="M50.085,231.32L50.085,231.32c-2.255,0-4.082-1.828-4.082-4.08v-81.605
								c0-2.253,1.827-4.078,4.082-4.078l0,0c2.253,0,4.081,1.825,4.081,4.078v81.605C54.166,229.492,52.338,231.32,50.085,231.32z"
								/>
						</g>
					</g>
				</g>
				<g id="XMLID_248_">
					<g>
						<g>
							<path fill="#F5BFBA" d="M65.072,231.32L65.072,231.32c-2.255,0-4.081-1.828-4.081-4.08v-50.168
								c0-2.254,1.826-4.081,4.081-4.081l0,0c2.254,0,4.081,1.827,4.081,4.081v50.168C69.153,229.492,67.326,231.32,65.072,231.32z"
								/>
						</g>
					</g>
				</g>
				<g id="XMLID_247_">
					<g>
						<g>
							<path fill="#F5BFBA" d="M77.16,231.32L77.16,231.32c-2.253,0-4.081-1.828-4.081-4.08v-64.286
								c0-2.259,1.828-4.085,4.081-4.085l0,0c2.253,0,4.081,1.826,4.081,4.085v64.286C81.241,229.492,79.414,231.32,77.16,231.32z"
								/>
						</g>
					</g>
				</g>
				<g id="XMLID_246_">
					<g>
						<g>
							<path fill="#F5BFBA" d="M92.147,231.32L92.147,231.32c-2.254,0-4.081-1.828-4.081-4.08v-57.729
								c0-2.258,1.827-4.084,4.081-4.084l0,0c2.253,0,4.082,1.826,4.082,4.084v57.729C96.229,229.492,94.4,231.32,92.147,231.32z"/>
						</g>
					</g>
				</g>
				<g id="XMLID_245_">
					<g>
						<g>
							<path fill="#F5BFBA" d="M104.235,231.32L104.235,231.32c-2.254,0-4.081-1.828-4.081-4.08V121.865
								c0-2.255,1.827-4.081,4.081-4.081l0,0c2.255,0,4.08,1.825,4.08,4.081V227.24C108.315,229.492,106.49,231.32,104.235,231.32z"
								/>
						</g>
					</g>
				</g>
				<g id="XMLID_244_">
					<g>
						<g>
							<path fill="#F5BFBA" d="M119.222,231.32L119.222,231.32c-2.253,0-4.081-1.828-4.081-4.08v-65.487
								c0-2.253,1.828-4.08,4.081-4.08l0,0c2.255,0,4.081,1.827,4.081,4.08v65.487C123.302,229.492,121.477,231.32,119.222,231.32z"
								/>
						</g>
					</g>
				</g>
				<g id="XMLID_243_">
					<g>
						<g>
							<path fill="#F5BFBA" d="M131.31,231.32L131.31,231.32c-2.253,0-4.08-1.828-4.08-4.08v-81.625c0-2.256,1.827-4.079,4.08-4.079
								l0,0c2.256,0,4.083,1.823,4.083,4.079v81.625C135.393,229.492,133.565,231.32,131.31,231.32z"/>
						</g>
					</g>
				</g>
			</g>
		</g>
		<g>
			<g>
				<g>
					<path fill="#F5BFBA" d="M141.085,237.634H1.147c-0.631,0-1.147-0.516-1.147-1.151c0-0.631,0.516-1.146,1.147-1.146h139.938
						c0.631,0,1.148,0.516,1.148,1.146C142.233,237.118,141.716,237.634,141.085,237.634z"/>
				</g>
			</g>
		</g>
	</g>
	<g opacity="0.1">
		<g>
			<path fill="#06196A" d="M47.535,260.934c3.722,0.523,7.166-2.065,7.693-5.785c0.526-3.724-2.063-7.17-5.786-7.693
				c-3.72-0.523-7.166,2.064-7.692,5.785C41.224,256.959,43.813,260.404,47.535,260.934z"/>
		</g>
	</g>
	<g opacity="0.1">
		<g>
			<circle fill="#06196A" cx="74.03" cy="92.248" r="26.389"/>
		</g>
	</g>
	<g opacity="0.43">
		<g>
			<path fill="#06196A" d="M41.635,120.157L41.635,120.157c-0.213,0-0.397-0.15-0.442-0.359l-1.028-4.833l-4.834-1.032
				c-0.208-0.043-0.357-0.228-0.357-0.441c0-0.212,0.149-0.397,0.357-0.439l4.834-1.031l1.028-4.833c0.09-0.419,0.794-0.419,0.885,0
				l1.028,4.833l4.834,1.031c0.209,0.042,0.358,0.227,0.358,0.439c0,0.213-0.149,0.398-0.358,0.441l-4.834,1.032l-1.028,4.833
				C42.033,120.007,41.849,120.157,41.635,120.157z M37.592,113.493l3.048,0.652c0.174,0.035,0.31,0.174,0.348,0.346l0.647,3.046
				l0.649-3.046c0.037-0.172,0.172-0.312,0.349-0.346l3.046-0.652l-3.046-0.649c-0.176-0.035-0.312-0.171-0.349-0.346l-0.649-3.046
				l-0.647,3.046c-0.039,0.174-0.174,0.311-0.348,0.346L37.592,113.493z"/>
		</g>
	</g>
	<g opacity="0.91">
		<g>
			<g>
				<path fill="#06196A" d="M36.64,89.667c-0.701,0-1.273-0.567-1.275-1.27c-0.003-0.705,0.564-1.278,1.268-1.283l18.146-0.088
					c0.735-0.039,1.276,0.565,1.28,1.27c0.003,0.705-0.564,1.278-1.268,1.283l-18.146,0.088
					C36.643,89.667,36.642,89.667,36.64,89.667z"/>
			</g>
		</g>
		<g>
			<g>
				<path fill="#06196A" d="M26.667,89.73c-0.701,0-1.272-0.569-1.274-1.271c-0.002-0.705,0.567-1.276,1.27-1.278l4.142-0.015h0.003
					c0.701,0,1.273,0.57,1.275,1.27c0.002,0.706-0.565,1.277-1.27,1.281l-4.142,0.014C26.671,89.73,26.669,89.73,26.667,89.73z"/>
			</g>
		</g>
	</g>
	<g opacity="0.83">
		<g>
			<g>
				<path fill="#06196A" d="M51.587,77.675c-0.698,0-1.268-0.563-1.274-1.264c-0.006-0.703,0.56-1.28,1.262-1.286l10.445-0.09
					c0.002,0,0.006,0,0.006,0c0.703,0,1.272,0.565,1.278,1.266c0.006,0.703-0.56,1.28-1.264,1.287l-10.443,0.087
					C51.593,77.675,51.589,77.675,51.587,77.675z"/>
			</g>
		</g>
		<g>
			<g>
				<path fill="#06196A" d="M44.182,77.739c-0.698,0-1.268-0.565-1.273-1.264c-0.007-0.705,0.559-1.281,1.263-1.289l1.574-0.013
					c0,0,0.008,0,0.012,0c0.698,0,1.268,0.563,1.274,1.263c0.006,0.705-0.559,1.28-1.264,1.288l-1.573,0.014
					C44.19,77.739,44.186,77.739,44.182,77.739z"/>
			</g>
		</g>
	</g>
	<g>
		<g>
			<g>
				<path fill="#FFFFFF" d="M313.283,106.936v12.551c0,4.271-3.557,7.725-7.948,7.725h-4.642l-1.738,7.378l-28.534,119.508
					c-1.247,5.582-7.03,10.12-12.815,10.12H93.479c-5.785,0-11.568-4.538-12.918-10.12L52.13,134.59l-1.737-7.378h-4.66
					c-4.415,0-7.971-3.454-7.971-7.725v-12.551c0-4.251,3.556-7.705,7.971-7.705h113.99l-33.991-70.619
					c-3.617-0.144-6.887-2.063-8.462-5.293c-2.35-4.906,0.103-10.955,5.478-13.531l4.048-1.942
					c5.354-2.574,11.629-0.735,13.98,4.148c1.553,3.19,1.022,6.91-1.063,9.812l37.303,77.424h128.32
					C309.728,99.231,313.283,102.685,313.283,106.936z"/>
			</g>
		</g>
		<g>
			<g>
				<g>
					<g>
						<path fill="#FFFFFF" d="M183.003,115.114c-0.471,0.797-1.208,1.491-2.188,1.96l-6.273,3.025
							c-0.469,0.226-0.981,0.369-1.45,0.431c-1.675,0.305-3.251-0.308-3.883-1.617l-9.485-19.682l-33.991-70.619l-4.373-9.075
							c-0.797-1.676,0.246-3.884,2.411-4.907l6.275-3.023c2.126-1.022,4.54-0.512,5.336,1.186l4.333,9.013l37.302,77.424
							l4.272,8.891l1.839,3.781l0.123,0.266C183.68,113.068,183.557,114.152,183.003,115.114z"/>
					</g>
					<g>
						<path fill="#06196A" d="M172.206,123.307c-2.321,0-4.439-1.198-5.418-3.22l-47.853-99.382
							c-0.644-1.354-0.705-2.907-0.177-4.386c0.627-1.756,2.037-3.257,3.866-4.12l6.253-3.014c1.851-0.893,3.927-1.036,5.696-0.407
							c1.465,0.522,2.614,1.539,3.238,2.87l47.875,99.386c0.795,1.658,0.668,3.64-0.353,5.415c-0.007,0.012-0.013,0.022-0.015,0.033
							c-0.771,1.296-1.926,2.341-3.344,3.019l-6.267,3.02c-0.718,0.342-1.496,0.574-2.268,0.676
							C173.027,123.273,172.612,123.307,172.206,123.307z M132.269,13.773c-0.291,0-0.657,0.063-1.059,0.258l-6.272,3.021
							c-0.653,0.309-1,0.756-1.115,1.075c-0.051,0.143-0.046,0.234-0.036,0.254l47.844,99.366c0.032,0.066,0.392,0.242,0.978,0.137
							c0.348-0.05,0.582-0.121,0.78-0.213l6.261-3.019c0.455-0.217,0.811-0.525,1.031-0.894c0.139-0.248,0.145-0.416,0.135-0.448
							l-6.225-12.917l-41.634-86.435C132.893,13.877,132.64,13.773,132.269,13.773z"/>
					</g>
				</g>
			</g>
			<g>
				<g>
					<path fill="#F5BFBA" d="M139.712,21.807c-1.063,1.512-2.554,2.821-4.394,3.7l-4.068,1.96c-1.635,0.778-3.351,1.166-5.027,1.166
						c-0.165,0-0.328,0-0.492-0.021c-3.617-0.144-6.887-2.063-8.462-5.293c-2.35-4.906,0.103-10.955,5.478-13.531l4.048-1.942
						c5.354-2.574,11.629-0.735,13.98,4.148C142.329,15.185,141.798,18.905,139.712,21.807z"/>
				</g>
				<g>
					<path fill="#06196A" d="M126.221,31.32c-0.229,0-0.459-0.004-0.686-0.026c-4.652-0.215-8.739-2.814-10.681-6.796
						c-2.991-6.242,0.033-13.921,6.732-17.134l4.047-1.94c6.699-3.216,14.579-0.796,17.563,5.406
						c1.917,3.94,1.424,8.745-1.294,12.537c-1.375,1.946-3.249,3.525-5.426,4.566l-4.059,1.956
						C130.439,30.827,128.303,31.32,126.221,31.32z M131.84,9.371c-1.28,0-2.611,0.289-3.879,0.897l-4.05,1.942
						c-4.029,1.93-5.92,6.393-4.218,9.947c1.096,2.248,3.396,3.663,6.146,3.772l0.221,0.018c1.451,0,2.791-0.313,4.038-0.905
						l4.054-1.957c1.36-0.649,2.52-1.622,3.364-2.825l0.014-0.021c1.594-2.218,1.906-4.862,0.83-7.069
						C137.191,10.743,134.633,9.371,131.84,9.371z"/>
				</g>
			</g>
			<g>
				<g>
					<path fill="#9BA9DD" stroke="#06196A" stroke-width="3" stroke-miterlimit="10" d="M49.35,122.736l1.043,4.476l1.737,7.378
						l28.431,119.508c1.35,5.582,7.133,10.12,12.918,10.12h164.126c5.785,0,11.568-4.538,12.815-10.12l28.534-119.508l1.738-7.378
						l1.043-4.476H49.35z M113.529,244.84c-6.07,1.27-12.039-3.556-13.489-10.688l-15.126-76.707
						c-1.348-7.139,2.393-13.881,8.38-15.045c6.072-1.246,12.141,3.66,13.491,10.709l15.125,76.711
						C123.362,236.95,119.601,243.697,113.529,244.84z M153.816,244.758c-6.071,0.188-11.078-5.498-11.283-12.527l-2.311-76.523
						c-0.183-7.137,4.537-13.02,10.609-13.204c5.967-0.207,11.078,5.498,11.262,12.631l2.227,76.425
						C164.607,238.688,159.784,244.553,153.816,244.758z M207.982,231.926c-0.205,7.049-5.318,12.733-11.283,12.529
						c-6.07-0.186-10.792-6.072-10.61-13.206l2.229-76.423c0.287-7.113,5.293-12.816,11.363-12.61
						c5.99,0.185,10.711,6.07,10.506,13.203L207.982,231.926z M266.091,157.157l-15.128,76.71
						c-1.347,7.13-7.419,11.936-13.508,10.686c-5.973-1.139-9.812-7.886-8.381-15.02l15.146-76.729
						c1.43-7.115,7.418-11.938,13.491-10.693C263.779,143.275,267.54,150.023,266.091,157.157z"/>
				</g>
			</g>
			<g opacity="0.3">
				<g>
					<polygon fill="#06196A" points="301.736,122.736 300.693,127.212 298.955,134.59 52.13,134.59 50.393,127.212 49.35,122.736 
											"/>
				</g>
			</g>
			<g>
				<g>
					<path fill="#F5BFBA" d="M313.283,106.936v12.551c0,4.271-3.557,7.725-7.948,7.725H45.732c-4.415,0-7.971-3.454-7.971-7.725
						v-12.551c0-4.251,3.556-7.705,7.971-7.705h259.603C309.728,99.231,313.283,102.685,313.283,106.936z"/>
				</g>
				<g>
					<path fill="#06196A" d="M305.335,129.9H45.732c-5.877,0-10.658-4.671-10.658-10.416v-12.548
						c0-5.729,4.781-10.392,10.658-10.392h259.603c5.866,0,10.636,4.662,10.636,10.392v12.548
						C315.971,125.229,311.201,129.9,305.335,129.9z M45.732,101.917c-2.913,0-5.283,2.253-5.283,5.019v12.548
						c0,2.78,2.37,5.04,5.283,5.04h259.603c2.9,0,5.265-2.259,5.265-5.04v-12.548c0-2.765-2.363-5.019-5.265-5.019H45.732z"/>
				</g>
			</g>
			<g>
				<g>
					<path fill="#06196A" d="M183.241,113.21c0,4.281-3.462,7.721-7.72,7.721c-4.255,0-7.717-3.44-7.717-7.721
						c0-4.254,3.462-7.71,7.717-7.71C179.779,105.5,183.241,108.956,183.241,113.21z"/>
				</g>
			</g>
		</g>
	</g>
</g>
</svg>
