<?xml version="1.0" encoding="utf-8"?>
<!-- Generator: Adobe Illustrator 19.1.0, SVG Export Plug-In . SVG Version: 6.00 Build 0)  -->
<!DOCTYPE svg PUBLIC "-//W3C//DTD SVG 1.1//EN" "http://www.w3.org/Graphics/SVG/1.1/DTD/svg11.dtd">
<svg version="1.1" id="Layer_1" xmlns="http://www.w3.org/2000/svg" xmlns:xlink="http://www.w3.org/1999/xlink" x="0px" y="0px"
	 width="96px" height="68px" viewBox="0 0 96 68" enable-background="new 0 0 96 68" xml:space="preserve">
<path fill="#2AA0D0" d="M4,0h88c2.2,0,4,1.8,4,4v60c0,2.2-1.8,4-4,4H4c-2.2,0-4-1.8-4-4V4C0,1.8,1.8,0,4,0z"/>
<path fill="#2AA0D0" d="M66,26H54c-0.5,0-1,0.4-1,0.9c0-0.5-0.5-0.9-1-0.9h-5.8c-0.4,0-0.8,0.2-0.9,0.6l-3.2,8l-4-8.1
	c-0.2-0.3-0.5-0.6-0.9-0.6H32c-0.6,0-1,0.4-1,1v9.4l-4.4-9.8c-0.2-0.4-0.5-0.6-0.9-0.6h-5.3c-0.4,0-0.7,0.2-0.9,0.6l-6.9,15
	c-0.1,0.3-0.1,0.7,0.1,1c0.2,0.3,0.5,0.5,0.8,0.5h4.3c0.4,0,0.8-0.2,0.9-0.6l1.5-3.4h5.5l1.4,3.4c0.2,0.4,0.5,0.6,0.9,0.6H36
	c0.6,0,1-0.4,1-1v-5.7l2.5,6.1c0.2,0.4,0.5,0.6,0.9,0.6h3.1c0.4,0,0.8-0.2,0.9-0.6l2.6-6.2V42c0,0.6,0.4,1,1,1h4c0.5,0,1-0.4,1-0.9
	c0,0.5,0.5,0.9,1,0.9h12c0.6,0,1-0.4,1-1v-3c0-0.6-0.4-1-1-1h-7v-1h6.8c0.6,0,1-0.4,1-1v-3c0-0.6-0.4-1-1-1H59v-1h7c0.6,0,1-0.4,1-1
	v-3C67,26.5,66.5,26,66,26z M22.1,34l0.9-2l0.9,2H22.1z"/>
<path fill="#2AA0D0" d="M82.7,38.9l-4-4.3l4-4.3c0.2-0.2,0.3-0.4,0.3-0.7l0-2.6c0-0.3-0.1-0.5-0.3-0.7C82.5,26.1,82.3,26,82,26h-2.7
	c-0.3,0-0.6,0.1-0.8,0.3L75,30.5l-3.6-4.1C71.2,26.1,71,26,70.7,26H68c-0.6,0-1,0.4-1,1v15c0,0.6,0.4,1,1,1h2.4
	c0.3,0,0.5-0.1,0.7-0.3l3.8-4l3.8,4c0.2,0.2,0.5,0.3,0.7,0.3H82c0.3,0,0.5-0.1,0.7-0.3c0.2-0.2,0.3-0.4,0.3-0.7l0-2.4
	C83,39.3,82.9,39.1,82.7,38.9z M69,37v-4.9l2.3,2.4L69,37z"/>
<polygon fill="#FFFFFF" points="20.6,35 25.4,35 23,29.6 "/>
<polygon fill="#FFFFFF" points="68,39.6 72.7,34.6 68,29.6 "/>
<path fill="#FFFFFF" d="M83.5,38.2l-3.4-3.6l3.4-3.6c0.3-0.4,0.5-0.9,0.5-1.4l0-2.6c0-0.5-0.2-1-0.6-1.4C83,25.2,82.5,25,82,25h-2.7
	c-0.6,0-1.1,0.2-1.5,0.7L75,28.9l-2.8-3.2c-0.4-0.4-0.9-0.7-1.5-0.7H68c-0.4,0-0.7,0.1-1,0.3c-0.3-0.2-0.6-0.3-1-0.3H54
	c-0.4,0-0.7,0.1-1,0.3c-0.3-0.2-0.6-0.3-1-0.3h-5.8c-0.8,0-1.6,0.5-1.9,1.3l-2.4,6l-3-6.1c-0.3-0.7-1-1.1-1.8-1.1H32
	c-1.1,0-2,0.9-2,2v4.7l-2.5-5.5c-0.3-0.7-1-1.2-1.8-1.2h-5.3c-0.8,0-1.5,0.5-1.8,1.2l-6.9,15c-0.3,0.6-0.2,1.3,0.1,1.9
	c0.4,0.6,1,0.9,1.7,0.9h4.3c0.8,0,1.5-0.5,1.8-1.2l1.2-2.8h4.2l1.1,2.8c0.3,0.8,1,1.3,1.9,1.3h8c1.1,0,2-0.9,2-2v-0.7l0.6,1.5
	c0.3,0.7,1,1.2,1.8,1.2h3.1c0.8,0,1.5-0.5,1.9-1.2l0.6-1.5V42c0,1.1,0.9,2,2,2h4c0.4,0,0.7-0.1,1-0.3c0.3,0.2,0.6,0.3,1,0.3h12
	c0.4,0,0.7-0.1,1-0.3c0.3,0.2,0.6,0.3,1,0.3h2.4c0.5,0,1.1-0.2,1.5-0.6l3.1-3.3l3.1,3.3c0.4,0.4,0.9,0.6,1.5,0.6H82
	c0.5,0,1-0.2,1.4-0.6S84,42.5,84,42l0-2.4C84,39.1,83.8,38.6,83.5,38.2z M52,42h-4V31.1L43.5,42h-3.1L36,31.2V42h-8l-1.6-4h-6.8
	l-1.7,4h-4.3l6.9-15h5.3l6.3,14V27h5.1l5,10.1L46.2,27H52V42z M66,30h-8v3h7.8v3H58v3h8v3H54V27h12V30z M79.6,42L75,37.2L70.4,42H68
	V27h2.7l4.3,5l4.3-5H82l0,2.6l-4.7,5l4.7,5l0,2.4H79.6z"/>
<path opacity="0.05" fill="#FFFFFF" d="M4,68h1.8L96,5.8V4c0-2.2-1.8-4-4-4H4C1.8,0,0,1.8,0,4v60C0,66.2,1.8,68,4,68z"/>
</svg>
