<?xml version="1.0" encoding="utf-8"?>
<!-- Generator: Adobe Illustrator 19.1.0, SVG Export Plug-In . SVG Version: 6.00 Build 0)  -->
<!DOCTYPE svg PUBLIC "-//W3C//DTD SVG 1.1//EN" "http://www.w3.org/Graphics/SVG/1.1/DTD/svg11.dtd">
<svg version="1.1" id="Layer_1" xmlns="http://www.w3.org/2000/svg" xmlns:xlink="http://www.w3.org/1999/xlink" x="0px" y="0px"
	 width="96px" height="68px" viewBox="0 0 96 68" enable-background="new 0 0 96 68" xml:space="preserve">
<g>
	<rect y="18" fill="#F9F9F9" width="96" height="32"/>
	<path fill="#09599E" d="M4,0h88c2.2,0,4,1.8,4,4v14H0V4C0,1.8,1.8,0,4,0z"/>
	<path fill="#E59703" d="M0,50h96v14c0,2.2-1.8,4-4,4H4c-2.2,0-4-1.8-4-4V50z"/>
	<path opacity="0.05" fill="#FFFFFF" d="M4,67.9c-2.2,0-4-1.8-4-4V4c0-2.2,1.8-4,4-4h88
		c2.2,0,4,1.8,4,4"/>
	<g>
		<polygon fill="#00589F" points="37.1,42.4 40,25.5 44.6,25.5 41.7,42.4 		"/>
		<path fill="#00589F" d="M58.4,26c-0.9-0.3-2.3-0.7-4.1-0.7c-4.6,0-7.8,2.3-7.8,5.6c0,2.4,2.3,3.8,4,4.6c1.8,0.8,2.4,1.4,2.4,2.1
			c0,1.1-1.4,1.7-2.8,1.7c-1.8,0-2.8-0.3-4.3-0.9L45.2,38l-0.6,3.8c1.1,0.5,3.1,0.9,5.1,0.9c4.8,0,8-2.3,8-5.8
			c0-1.9-1.2-3.4-3.9-4.6c-1.6-0.8-2.6-1.3-2.6-2.1c0-0.7,0.8-1.5,2.6-1.5c1.5,0,2.6,0.3,3.4,0.6l0.4,0.2L58.4,26"/>
		<path fill="#00589F" d="M70.2,25.6h-3.6c-1.1,0-1.9,0.3-2.4,1.4l-6.8,15.5h4.8c0,0,0.8-2.1,1-2.5c0.5,0,5.2,0,5.9,0
			c0.1,0.6,0.6,2.5,0.6,2.5h4.3L70.2,25.6 M64.5,36.4c0.4-1,1.8-4.7,1.8-4.7c0,0,0.4-1,0.6-1.6l0.3,1.5c0,0,0.9,4,1.1,4.9H64.5z"/>
		<path fill="#00589F" d="M33.2,25.6l-4.5,11.5l-0.5-2.3c-0.8-2.7-3.5-5.6-6.4-7.1L26,42.4l4.9,0l7.3-16.9H33.2"/>
		<path fill="#F9A51A" d="M24.5,25.5h-7.4l-0.1,0.4c5.8,1.4,9.6,4.8,11.2,8.8L26.6,27C26.4,25.9,25.5,25.6,24.5,25.5"/>
	</g>
</g>
</svg>
