<?xml version="1.0" encoding="utf-8"?>
<!-- Generator: Adobe Illustrator 15.0.0, SVG Export Plug-In . SVG Version: 6.00 Build 0)  -->
<!DOCTYPE svg PUBLIC "-//W3C//DTD SVG 1.1//EN" "http://www.w3.org/Graphics/SVG/1.1/DTD/svg11.dtd">
<svg version="1.1" id="Layer_1" xmlns="http://www.w3.org/2000/svg" xmlns:xlink="http://www.w3.org/1999/xlink" x="0px" y="0px"
	 width="50px" height="30px" viewBox="0 0 50 30" enable-background="new 0 0 50 30" xml:space="preserve">
<g>
	<g>
		<path fill="#FFFFFF" d="M29.167,13.333h-8.333C20.373,13.333,20,12.96,20,12.5V8.333c0-2.757,2.243-5,5-5s5,2.243,5,5V12.5
			C30,12.96,29.627,13.333,29.167,13.333z M21.667,11.667h6.667V8.333C28.333,6.495,26.838,5,25,5c-1.838,0-3.333,1.495-3.333,3.333
			V11.667z"/>
	</g>
	<g>
		<path fill="#FFFFFF" d="M32.5,30c-0.461,0-0.833-0.373-0.833-0.833V8.333c0-3.676-2.991-6.667-6.667-6.667
			s-6.667,2.991-6.667,6.667v20.833c0,0.46-0.374,0.833-0.833,0.833s-0.833-0.373-0.833-0.833V8.333C16.667,3.738,20.405,0,25,0
			c4.595,0,8.333,3.738,8.333,8.333v20.833C33.333,29.627,32.961,30,32.5,30z"/>
	</g>
	<g>
		<path fill="#FFFFFF" d="M11.667,10H0.833C0.373,10,0,9.627,0,9.167c0-0.46,0.373-0.833,0.833-0.833h10.833
			c0.46,0,0.833,0.373,0.833,0.833C12.5,9.627,12.127,10,11.667,10z"/>
	</g>
	<g>
		<path fill="#FFFFFF" d="M5,14.167c-0.213,0-0.426-0.081-0.589-0.244L0.244,9.756c-0.326-0.326-0.326-0.853,0-1.178l4.167-4.167
			c0.326-0.325,0.853-0.325,1.179,0c0.325,0.326,0.325,0.853,0,1.179L2.012,9.167l3.578,3.578c0.325,0.326,0.325,0.853,0,1.178
			C5.426,14.085,5.213,14.167,5,14.167z"/>
	</g>
	<g>
		<path fill="#FFFFFF" d="M49.167,10H38.333c-0.46,0-0.833-0.373-0.833-0.833c0-0.46,0.373-0.833,0.833-0.833h10.834
			c0.46,0,0.833,0.373,0.833,0.833C50,9.627,49.627,10,49.167,10z"/>
	</g>
	<g>
		<path fill="#FFFFFF" d="M45,14.167c-0.213,0-0.427-0.081-0.589-0.244c-0.326-0.325-0.326-0.853,0-1.178l3.577-3.578l-3.577-3.577
			c-0.326-0.326-0.326-0.853,0-1.179c0.325-0.325,0.853-0.325,1.178,0l4.167,4.167c0.325,0.325,0.325,0.853,0,1.178l-4.167,4.167
			C45.427,14.085,45.213,14.167,45,14.167z"/>
	</g>
</g>
</svg>
