<?xml version="1.0" encoding="utf-8"?>
<!-- Generator: Adobe Illustrator 15.0.0, SVG Export Plug-In . SVG Version: 6.00 Build 0)  -->
<!DOCTYPE svg PUBLIC "-//W3C//DTD SVG 1.1//EN" "http://www.w3.org/Graphics/SVG/1.1/DTD/svg11.dtd">
<svg version="1.1" id="Layer_1" xmlns="http://www.w3.org/2000/svg" xmlns:xlink="http://www.w3.org/1999/xlink" x="0px" y="0px"
	 width="32px" height="28px" viewBox="-2 -1.5 32 28" enable-background="new -2 -1.5 32 28" xml:space="preserve">
<g>
	<path d="M13.94,26.5l-0.519-0.433c-0.833-0.691-1.96-1.447-3.267-2.323C5.025,20.31-2,15.608-2,7.563C-2,2.565,2.065-1.5,7.063-1.5
		c2.667,0,5.165,1.166,6.877,3.165C15.653-0.334,18.15-1.5,20.818-1.5c4.998,0,9.063,4.065,9.063,9.063
		c0,8.045-7.026,12.746-12.156,16.181c-1.305,0.876-2.435,1.632-3.266,2.323L13.94,26.5z M7.063,0.121
		c-4.104,0-7.442,3.338-7.442,7.442c0,7.18,6.609,11.604,11.437,14.832c1.098,0.736,2.074,1.391,2.883,2.013
		c0.81-0.622,1.786-1.276,2.884-2.013c4.827-3.229,11.437-7.652,11.437-14.832c0-4.104-3.338-7.442-7.442-7.442
		c-2.499,0-4.815,1.246-6.202,3.334L13.94,4.472l-0.675-1.017C11.879,1.367,9.562,0.121,7.063,0.121z"/>
</g>
</svg>
