<?xml version="1.0" encoding="utf-8"?>
<!-- Generator: Adobe Illustrator 15.0.0, SVG Export Plug-In . SVG Version: 6.00 Build 0)  -->
<!DOCTYPE svg PUBLIC "-//W3C//DTD SVG 1.1//EN" "http://www.w3.org/Graphics/SVG/1.1/DTD/svg11.dtd">
<svg version="1.1" id="Layer_1" xmlns="http://www.w3.org/2000/svg" xmlns:xlink="http://www.w3.org/1999/xlink" x="0px" y="0px"
	 width="50px" height="50px" viewBox="0 0 50 50" enable-background="new 0 0 50 50" xml:space="preserve">
<circle fill="none" stroke="#000000" stroke-width="1.5" stroke-linecap="round" stroke-miterlimit="10" cx="14" cy="14" r="13"/>
<path fill="none" stroke="#000000" stroke-width="1.5" stroke-linecap="round" stroke-miterlimit="10" d="M16.672,19.702
	c-0.08-0.873-0.049-1.482-0.049-2.279c0.395-0.208,1.104-1.531,1.223-2.648c0.311-0.025,0.802-0.328,0.944-1.526
	c0.078-0.643-0.23-1.004-0.417-1.119c0.505-1.521,1.557-6.229-1.944-6.715c-0.359-0.633-1.282-0.953-2.48-0.953
	C9.153,4.55,8.575,8.083,9.626,12.129c-0.187,0.114-0.494,0.476-0.417,1.119c0.144,1.198,0.634,1.501,0.944,1.526
	c0.119,1.117,0.856,2.44,1.253,2.648c0,0.797,0.029,1.406-0.05,2.279c-0.683,1.836-4.19,1.981-6.214,3.751
	c2.115,2.13,5.544,3.654,9.163,3.654c3.618,0,7.871-2.857,8.579-3.637C20.873,21.684,17.356,21.545,16.672,19.702z"/>
</svg>
