<?xml version="1.0" encoding="utf-8"?>
<!-- Generator: Adobe Illustrator 15.0.0, SVG Export Plug-In . SVG Version: 6.00 Build 0)  -->
<!DOCTYPE svg PUBLIC "-//W3C//DTD SVG 1.1//EN" "http://www.w3.org/Graphics/SVG/1.1/DTD/svg11.dtd">
<svg version="1.1" id="Layer_1" xmlns="http://www.w3.org/2000/svg" xmlns:xlink="http://www.w3.org/1999/xlink" x="0px" y="0px"
	 width="28px" height="28px" viewBox="11 11 28 28" enable-background="new 11 11 28 28" xml:space="preserve">
<path d="M38.891,24.945C38.891,17.256,32.635,11,24.945,11S11,17.256,11,24.945c0,4.453,2.105,8.416,5.365,10.971
	c0.04,0.033,0.083,0.061,0.123,0.092c0.275,0.211,0.553,0.416,0.844,0.607c0.183,0.12,0.374,0.23,0.564,0.343
	c0.182,0.107,0.361,0.218,0.548,0.315c0.259,0.139,0.527,0.262,0.797,0.385c0.124,0.056,0.244,0.116,0.369,0.168
	C21.381,38.574,23.331,39,25.255,39c1.126,0,2.298-0.254,3.421-0.63c2.002-0.558,3.82-1.546,5.354-2.866
	c0.217-0.174,0.383-0.324,0.488-0.441l0.008-0.008C37.207,32.511,38.891,28.925,38.891,24.945z M24.945,12.474
	c6.877,0,12.473,5.595,12.473,12.471c0,3.361-1.344,6.409-3.512,8.654c-0.902-0.637-1.947-1.064-2.896-1.439
	c-1.182-0.467-2.301-0.908-2.625-1.598c-0.049-0.601-0.045-1.074-0.041-1.617l0.002-0.188c0.514-0.559,0.975-1.601,1.166-2.487
	c0.414-0.245,0.889-0.791,1.033-2c0.074-0.608-0.086-1.089-0.324-1.425c0.334-1.172,0.943-3.966-0.193-5.797
	c-0.49-0.79-1.227-1.293-2.189-1.499c-0.564-0.668-1.594-1.032-2.958-1.032c-2.086,0.038-3.618,0.682-4.552,1.914
	c-1.088,1.434-1.304,3.582-0.642,6.39c-0.246,0.337-0.416,0.826-0.342,1.449c0.146,1.207,0.62,1.753,1.034,2
	c0.2,0.937,0.691,1.947,1.195,2.488l0.001,0.188c0.005,0.543,0.009,1.017-0.04,1.617c-0.325,0.688-1.449,1.131-2.636,1.598
	c-0.953,0.375-2.003,0.806-2.91,1.443c-2.17-2.246-3.514-5.295-3.514-8.658C12.474,18.069,18.069,12.474,24.945,12.474z
	 M24.945,37.418c-2.13,0-4.136-0.539-5.892-1.484c-0.02-0.012-0.041-0.021-0.061-0.031c-0.294-0.16-0.577-0.338-0.856-0.521
	c-0.06-0.039-0.125-0.074-0.184-0.114c-0.03-0.021-0.058-0.045-0.087-0.065c-0.265-0.188-0.523-0.381-0.766-0.587
	c0.704-0.439,1.531-0.765,2.338-1.082c1.548-0.608,3.009-1.185,3.512-2.536l0.043-0.189c0.065-0.727,0.061-1.284,0.056-1.875
	l-0.003-0.509l0.034-0.426l-0.396-0.207c-0.217-0.171-0.816-1.207-0.916-2.136l-0.03-0.599l-0.608-0.05
	c-0.059-0.03-0.244-0.261-0.322-0.911c-0.041-0.341,0.073-0.422,0.076-0.419l0.468-0.284l-0.138-0.531
	c-0.653-2.514-0.554-4.429,0.288-5.538c0.647-0.853,1.793-1.301,3.391-1.331c1.138,0,1.716,0.307,1.88,0.594l0.178,0.316l0.361,0.05
	c0.678,0.095,1.156,0.38,1.463,0.874c0.809,1.303,0.326,3.748-0.086,4.987l-0.203,0.548l0.504,0.304
	c0.002,0.001,0.129,0.114,0.092,0.429c-0.078,0.65-0.264,0.881-0.289,0.904l-0.607,0.05l-0.064,0.606
	c-0.1,0.936-0.68,1.97-0.852,2.115l-0.396,0.207l-0.002,0.955c-0.006,0.591-0.01,1.148,0.055,1.875l0.043,0.189
	c0.504,1.352,1.959,1.926,3.5,2.535c0.801,0.315,1.619,0.639,2.318,1.075c-0.939,0.689-2.695,1.731-4.588,2.366
	C27.16,37.254,26.072,37.418,24.945,37.418z"/>
</svg>
