<?xml version="1.0" encoding="utf-8"?>
<!-- Generator: Adobe Illustrator 15.0.0, SVG Export Plug-In . SVG Version: 6.00 Build 0)  -->
<!DOCTYPE svg PUBLIC "-//W3C//DTD SVG 1.1//EN" "http://www.w3.org/Graphics/SVG/1.1/DTD/svg11.dtd">
<svg version="1.1" id="Layer_1" xmlns="http://www.w3.org/2000/svg" xmlns:xlink="http://www.w3.org/1999/xlink" x="0px" y="0px"
	 width="100px" height="35px" viewBox="0 0 100 35" enable-background="new 0 0 100 35" xml:space="preserve">
<path fill="#282828" d="M38.315,32.275l-0.155-0.433l-0.02-0.055c0,0-12.43-30.794-12.43-30.797c-0.139-0.342-2.18-0.58-2.57-0.652
	C22.283,0.18,21.417,0.043,20.545,0c0,0-7.845,19.473-7.865,19.473c-1.185-0.039-2.369,0.059-3.614,0.332l7.982-19.766
	c-1.341,0.097-2.68,0.35-3.981,0.739L3.146,25.366c0.854-0.369,1.98-0.816,3.223-1.242c2.589-0.896,5.336-1.444,8.077-1.058
	c2.961,0.42,5.696,1.83,8.391,3.103c2.569,1.211,5.734,2.763,8.659,2.36c0.52-0.071,1.025-0.174,1.519-0.36l1.088,2.685
	c-4.1,1.901-8.41-0.267-12.176-1.924c-3.152-1.39-6.47-2.812-9.982-3.021c-3.609-0.214-6.744,1.272-9.783,3.067
	c-0.21,0.125-0.42,0.25-0.627,0.377L0,33.15c1.456,0.562,2.777,0.078,3.612-0.392c0.118-0.075,0.233-0.153,0.331-0.229
	c0.039-0.021,0.057-0.039,0.116-0.078c5.555-5.271,10.644-3.016,16.488-0.408C23.75,33.463,27.208,35,30.762,35
	c2.118,0,4.253-0.545,6.389-1.984h0.059L38.315,32.275z M16.158,19.939l3.185-7.898l4.351,10.777
	C21.402,21.75,18.876,20.582,16.158,19.939z M28.121,24.707L21.168,7.51l1.747-4.339l8.818,21.849
	C30.705,25.309,29.539,25.174,28.121,24.707z"/>
<g>
	<path fill="#282828" d="M41.993,28.923V7.404h3.31v21.519H41.993z"/>
	<path fill="#282828" d="M49.658,28.923V7.404h3.309v21.519H49.658z"/>
	<path fill="#282828" d="M58.396,26.846c-1.451-1.562-2.179-3.56-2.179-5.992s0.722-4.41,2.162-5.932
		c1.443-1.522,3.238-2.283,5.387-2.283c1.26,0,2.367,0.286,3.325,0.858c0.958,0.572,1.699,1.323,2.223,2.254v-2.851h3.338v16.022
		h-3.338v-2.994c-0.542,0.988-1.289,1.777-2.236,2.369c-0.948,0.592-2.052,0.887-3.31,0.887
		C61.637,29.186,59.847,28.404,58.396,26.846z M67.875,24.837c0.958-0.979,1.437-2.291,1.437-3.938s-0.479-2.957-1.437-3.927
		c-0.957-0.969-2.097-1.454-3.411-1.454c-1.316,0-2.453,0.475-3.411,1.426c-0.958,0.95-1.436,2.248-1.436,3.896
		s0.478,2.972,1.436,3.97c0.958,1,2.095,1.498,3.411,1.498S66.917,25.816,67.875,24.837z"/>
	<path fill="#282828" d="M80.778,8.655c0,0.601-0.202,1.104-0.607,1.512c-0.407,0.407-0.906,0.611-1.495,0.611
		c-0.591,0-1.09-0.204-1.495-0.611c-0.407-0.407-0.61-0.911-0.61-1.512s0.203-1.105,0.61-1.513c0.405-0.407,0.904-0.611,1.495-0.611
		c0.589,0,1.088,0.204,1.495,0.611C80.576,7.55,80.778,8.054,80.778,8.655z M77.005,28.923V12.9h3.31v16.022H77.005z"/>
	<path fill="#282828" d="M85.743,26.846c-1.45-1.562-2.178-3.56-2.178-5.992s0.722-4.41,2.162-5.932
		c1.441-1.522,3.238-2.283,5.388-2.283c1.259,0,2.367,0.286,3.324,0.858c0.957,0.572,1.698,1.323,2.222,2.254v-2.851H100v16.022
		h-3.339v-2.994c-0.543,0.988-1.288,1.777-2.235,2.369c-0.949,0.592-2.052,0.887-3.311,0.887
		C88.986,29.186,87.196,28.404,85.743,26.846z M95.223,24.837c0.96-0.979,1.438-2.291,1.438-3.938s-0.478-2.957-1.438-3.927
		c-0.957-0.969-2.096-1.454-3.409-1.454c-1.316,0-2.453,0.475-3.412,1.426c-0.958,0.95-1.437,2.248-1.437,3.896
		s0.479,2.972,1.437,3.97c0.959,1,2.096,1.498,3.412,1.498C93.127,26.307,94.266,25.816,95.223,24.837z"/>
</g>
</svg>
