<?xml version="1.0" encoding="utf-8"?>
<!-- Generator: Adobe Illustrator 15.0.0, SVG Export Plug-In . SVG Version: 6.00 Build 0)  -->
<!DOCTYPE svg PUBLIC "-//W3C//DTD SVG 1.1//EN" "http://www.w3.org/Graphics/SVG/1.1/DTD/svg11.dtd">
<svg version="1.1" id="Layer_1" xmlns="http://www.w3.org/2000/svg" xmlns:xlink="http://www.w3.org/1999/xlink" x="0px" y="0px"
	 width="118px" height="30px" viewBox="2.75 17 118 30" enable-background="new 2.75 17 118 30" xml:space="preserve">
<g>
	<g>
		<path fill="#139AD6" d="M93.498,24.827h-6.336c-0.373,0-0.745,0.372-0.933,0.746l-2.607,16.398c0,0.371,0.186,0.559,0.559,0.559
			h3.354c0.372,0,0.559-0.188,0.559-0.559l0.746-4.659c0-0.373,0.373-0.746,0.932-0.746h2.049c4.285,0,6.709-2.049,7.268-6.148
			c0.373-1.678,0-3.168-0.746-4.1C97.225,25.385,95.547,24.827,93.498,24.827 M94.242,30.976c-0.371,2.236-2.049,2.236-3.727,2.236
			h-1.117l0.746-4.286c0-0.187,0.186-0.372,0.559-0.372h0.373c1.117,0,2.234,0,2.795,0.745
			C94.242,29.485,94.242,30.044,94.242,30.976"/>
	</g>
	<g>
		<path fill="#263B80" d="M47.845,24.827h-6.336c-0.373,0-0.746,0.372-0.933,0.746l-2.608,16.398c0,0.371,0.187,0.559,0.56,0.559
			h2.981c0.373,0,0.746-0.373,0.932-0.746l0.746-4.472c0-0.373,0.372-0.746,0.932-0.746h2.049c4.286,0,6.708-2.049,7.268-6.148
			c0.372-1.678,0-3.168-0.746-4.1C51.571,25.385,50.08,24.827,47.845,24.827 M48.59,30.976c-0.373,2.236-2.05,2.236-3.727,2.236
			h-0.932l0.745-4.286c0-0.187,0.187-0.372,0.559-0.372h0.373c1.118,0,2.236,0,2.795,0.745C48.59,29.485,48.776,30.044,48.59,30.976
			"/>
	</g>
	<g>
		<path fill="#263B80" d="M67.037,30.789h-2.98c-0.188,0-0.561,0.187-0.561,0.373l-0.186,0.932l-0.186-0.373
			c-0.746-0.932-2.051-1.304-3.541-1.304c-3.354,0-6.336,2.607-6.896,6.148c-0.372,1.863,0.187,3.541,1.118,4.659
			c0.932,1.117,2.236,1.49,3.914,1.49c2.795,0,4.285-1.676,4.285-1.676l-0.186,0.932c0,0.371,0.186,0.559,0.559,0.559h2.795
			c0.373,0,0.746-0.373,0.932-0.746l1.678-10.435C67.596,31.162,67.223,30.789,67.037,30.789 M62.752,36.751
			c-0.373,1.678-1.678,2.982-3.541,2.982c-0.932,0-1.677-0.373-2.049-0.746c-0.373-0.559-0.56-1.305-0.56-2.236
			c0.187-1.676,1.677-2.98,3.354-2.98c0.932,0,1.49,0.373,2.049,0.746C62.564,35.075,62.752,36.007,62.752,36.751"/>
	</g>
	<g>
		<path fill="#139AD6" d="M112.505,30.789h-2.982c-0.186,0-0.559,0.187-0.559,0.373l-0.186,0.932l-0.188-0.373
			c-0.744-0.932-2.049-1.304-3.539-1.304c-3.356,0-6.337,2.607-6.896,6.148c-0.373,1.863,0.186,3.541,1.117,4.659
			c0.932,1.117,2.236,1.49,3.914,1.49c2.796,0,4.286-1.676,4.286-1.676l-0.188,0.932c0,0.371,0.188,0.559,0.561,0.559h2.795
			c0.371,0,0.744-0.373,0.932-0.746l1.676-10.435C113.063,31.162,112.876,30.789,112.505,30.789 M108.218,36.751
			c-0.371,1.678-1.676,2.982-3.539,2.982c-0.932,0-1.678-0.373-2.051-0.746c-0.372-0.559-0.56-1.305-0.56-2.236
			c0.188-1.676,1.679-2.98,3.354-2.98c0.932,0,1.492,0.373,2.051,0.746C108.218,35.075,108.405,36.007,108.218,36.751"/>
	</g>
	<g>
		<g>
			<path fill="#263B80" d="M83.249,30.789h-3.168c-0.373,0-0.559,0.187-0.746,0.373l-4.098,6.335l-1.863-5.963
				c-0.188-0.372-0.373-0.559-0.933-0.559h-2.982c-0.373,0-0.559,0.373-0.559,0.745l3.354,9.877l-3.169,4.471
				C68.9,46.441,69.086,47,69.459,47h2.982c0.372,0,0.56-0.186,0.745-0.371l10.248-14.722
				C83.993,31.349,83.622,30.789,83.249,30.789"/>
		</g>
		<g>
			<path fill="#139AD6" d="M116.044,25.385l-2.607,16.771c0,0.373,0.186,0.559,0.559,0.559h2.607c0.373,0,0.746-0.373,0.933-0.744
				l2.609-16.398c0-0.374-0.186-0.56-0.559-0.56h-2.983C116.417,24.827,116.231,25.012,116.044,25.385"/>
		</g>
		<g>
			<path fill="#263B80" d="M24.179,19.236C22.875,17.745,20.452,17,17.099,17H7.782c-0.56,0-1.119,0.559-1.305,1.118L2.75,42.529
				c0,0.559,0.373,0.932,0.745,0.932h5.777l1.49-9.132v0.373c0.187-0.559,0.746-1.117,1.305-1.117h2.795
				c5.403,0,9.503-2.236,10.807-8.386c0-0.187,0-0.372,0-0.559c-0.186,0-0.186,0,0,0C25.856,22.217,25.484,20.727,24.179,19.236"/>
		</g>
	</g>
	<g>
		<path fill="#139AD6" d="M25.484,24.64L25.484,24.64c0,0.187,0,0.372,0,0.559c-1.305,6.335-5.405,8.386-10.808,8.386H11.88
			c-0.559,0-1.118,0.559-1.304,1.117L8.713,46.068c0,0.373,0.186,0.746,0.745,0.746h4.845c0.559,0,1.118-0.373,1.118-0.932v-0.186
			l0.932-5.777v-0.373c0-0.56,0.56-0.933,1.118-0.933h0.745c4.659,0,8.385-1.863,9.317-7.452c0.373-2.236,0.187-4.286-0.932-5.59
			C26.416,25.199,26.042,24.827,25.484,24.64"/>
	</g>
	<g>
		<path fill="#232C65" d="M24.179,24.081c-0.187,0-0.373-0.186-0.559-0.186c-0.187,0-0.373,0-0.56-0.187
			c-0.745-0.187-1.491-0.187-2.422-0.187h-7.267c-0.187,0-0.373,0-0.56,0.187c-0.372,0.187-0.559,0.559-0.559,0.932l-1.491,9.689
			v0.373c0.187-0.559,0.746-1.117,1.305-1.117h2.795c5.403,0,9.503-2.236,10.807-8.386c0-0.187,0-0.372,0.187-0.559
			c-0.372-0.187-0.559-0.373-0.932-0.373C24.366,24.081,24.366,24.081,24.179,24.081"/>
	</g>
</g>
</svg>
