<?xml version="1.0" encoding="utf-8"?>
<!-- Generator: Adobe Illustrator 15.0.0, SVG Export Plug-In . SVG Version: 6.00 Build 0)  -->
<!DOCTYPE svg PUBLIC "-//W3C//DTD SVG 1.1//EN" "http://www.w3.org/Graphics/SVG/1.1/DTD/svg11.dtd">
<svg version="1.1" id="Layer_1" xmlns="http://www.w3.org/2000/svg" xmlns:xlink="http://www.w3.org/1999/xlink" x="0px" y="0px"
	 width="24px" height="30px" viewBox="0 0 24 30" enable-background="new 0 0 24 30" xml:space="preserve">
<g>
	<path fill="#70B632" d="M2.159,24.421c0-2.435,0.92-4.748,2.59-6.519c3.594-3.807,9.616-3.982,13.426-0.387l1.19-1.263
		c-1.156-1.091-2.485-1.883-3.894-2.389c2.18-1.305,3.646-3.682,3.646-6.402C19.118,3.348,15.77,0,11.656,0
		C7.541,0,4.193,3.348,4.193,7.462c0,2.723,1.471,5.103,3.655,6.407c-1.607,0.577-3.109,1.519-4.36,2.844
		c-1.975,2.092-3.063,4.83-3.063,7.707v5.579h13.116v-1.731H2.159V24.421z M5.927,7.462c0-3.159,2.57-5.728,5.729-5.728
		s5.729,2.569,5.729,5.728c0,3.159-2.57,5.729-5.729,5.729S5.927,10.622,5.927,7.462z"/>
	<polygon fill="#70B632" points="22.35,19.096 16.367,25.079 14.152,22.866 12.928,24.092 16.367,27.531 23.575,20.322 	"/>
</g>
</svg>
